SplineFontDB: 3.0
FontName: Vazir
FullName: Vazir
FamilyName: Vazir
Weight: Regular
Copyright: Copyright (c) 2003 by Bitstream, Inc. All Rights Reserved.\nDejaVu changes are in public domain\nChanges by Saber Rastikerdar are in public domain.\nNon-Arabic(Latin) glyphs and data in extended version are imported from Roboto font under the Apache License, Version 2.0.
Version: 17.1.0
ItalicAngle: 0
UnderlinePosition: -500
UnderlineWidth: 100
Ascent: 1638
Descent: 410
InvalidEm: 0
LayerCount: 2
Layer: 0 1 "Back" 1
Layer: 1 1 "Fore" 0
PreferredKerning: 4
XUID: [1021 502 1027637223 9909349]
UniqueID: 4181118
UseUniqueID: 1
FSType: 0
OS2Version: 1
OS2_WeightWidthSlopeOnly: 0
OS2_UseTypoMetrics: 1
CreationTime: 1431850356
ModificationTime: 1515587831
PfmFamily: 33
TTFWeight: 400
TTFWidth: 5
LineGap: 0
VLineGap: 0
Panose: 2 11 6 3 3 8 4 2 2 4
OS2TypoAscent: 2100
OS2TypoAOffset: 0
OS2TypoDescent: -1100
OS2TypoDOffset: 0
OS2TypoLinegap: 0
OS2WinAscent: 2100
OS2WinAOffset: 0
OS2WinDescent: 1100
OS2WinDOffset: 0
HheadAscent: 2100
HheadAOffset: 0
HheadDescent: -1100
HheadDOffset: 0
OS2SubXSize: 1331
OS2SubYSize: 1433
OS2SubXOff: 0
OS2SubYOff: 286
OS2SupXSize: 1331
OS2SupYSize: 1433
OS2SupXOff: 0
OS2SupYOff: 983
OS2StrikeYSize: 102
OS2StrikeYPos: 530
OS2CapHeight: 1638
OS2XHeight: 1082
OS2Vendor: 'PfEd'
OS2CodePages: 00000041.20080000
OS2UnicodeRanges: 80002003.80000000.00000008.00000000
Lookup: 1 9 0 "'fina' Terminal Forms in Arabic lookup 9" { "'fina' Terminal Forms in Arabic lookup 9 subtable"  } ['fina' ('arab' <'KUR ' 'SND ' 'URD ' 'dflt' > ) ]
Lookup: 1 9 0 "'medi' Medial Forms in Arabic lookup 11" { "'medi' Medial Forms in Arabic lookup 11 subtable"  } ['medi' ('arab' <'KUR ' 'SND ' 'URD ' 'dflt' > ) ]
Lookup: 1 9 0 "'init' Initial Forms in Arabic lookup 13" { "'init' Initial Forms in Arabic lookup 13 subtable"  } ['init' ('arab' <'KUR ' 'SND ' 'URD ' 'dflt' > ) ]

StartChar: exclam
Encoding: 33 33 1
GlifName: exclam
Width: 641
VWidth: 2764
GlyphClass: 2
Flags: W
LayerCount: 2
Fore
SplineSet
185.091796875 140.493164062 m 0,0,1
 185.091796875 196.368164062 185.091796875 196.368164062 224.748046875 236.0234375 c 128,-1,2
 264.403320312 275.6796875 264.403320312 275.6796875 320.278320312 275.6796875 c 128,-1,3
 376.154296875 275.6796875 376.154296875 275.6796875 415.809570312 236.0234375 c 128,-1,4
 455.463867188 196.368164062 455.463867188 196.368164062 455.463867188 140.493164062 c 128,-1,5
 455.463867188 84.6181640625 455.463867188 84.6181640625 415.809570312 44.962890625 c 128,-1,6
 376.154296875 5.306640625 376.154296875 5.306640625 320.278320312 5.306640625 c 0,7,8
 271.354492188 5.306640625 271.354492188 5.306640625 234.928710938 35.65234375 c 0,9,10
 207.508789062 58.4951171875 207.508789062 58.4951171875 194.985351562 88.666015625 c 0,11,12
 185.091796875 112.499023438 185.091796875 112.499023438 185.091796875 140.493164062 c 0,0,1
213.161132812 1407.07128906 m 5,13,-1
 430.612304688 1407.07128906 l 5,14,-1
 406.094726562 449.32421875 l 1,15,-1
 238.90234375 449.32421875 l 1,16,-1
 213.161132812 1407.07128906 l 5,13,-1
EndSplineSet
EndChar

StartChar: period
Encoding: 46 46 2
GlifName: period
Width: 641
VWidth: 2764
GlyphClass: 2
Flags: W
LayerCount: 2
Fore
SplineSet
185.091796875 140.493164062 m 4,0,1
 185.091796875 196.368164062 185.091796875 196.368164062 224.748046875 236.0234375 c 132,-1,2
 264.403320312 275.6796875 264.403320312 275.6796875 320.278320312 275.6796875 c 132,-1,3
 376.154296875 275.6796875 376.154296875 275.6796875 415.809570312 236.0234375 c 132,-1,4
 455.463867188 196.368164062 455.463867188 196.368164062 455.463867188 140.493164062 c 132,-1,5
 455.463867188 84.6181640625 455.463867188 84.6181640625 415.809570312 44.962890625 c 132,-1,6
 376.154296875 5.306640625 376.154296875 5.306640625 320.278320312 5.306640625 c 4,7,8
 271.354492188 5.306640625 271.354492188 5.306640625 234.928710938 35.65234375 c 4,9,10
 207.508789062 58.4951171875 207.508789062 58.4951171875 194.985351562 88.666015625 c 4,11,12
 185.091796875 112.499023438 185.091796875 112.499023438 185.091796875 140.493164062 c 4,0,1
EndSplineSet
EndChar

StartChar: colon
Encoding: 58 58 3
GlifName: colon
Width: 641
VWidth: 2764
GlyphClass: 2
Flags: W
LayerCount: 2
Fore
SplineSet
185.091796875 1010.49316406 m 0,0,1
 185.091796875 1066.36816406 185.091796875 1066.36816406 224.748046875 1106.0234375 c 128,-1,2
 264.403320312 1145.6796875 264.403320312 1145.6796875 320.278320312 1145.6796875 c 128,-1,3
 376.154296875 1145.6796875 376.154296875 1145.6796875 415.809570312 1106.0234375 c 128,-1,4
 455.463867188 1066.36816406 455.463867188 1066.36816406 455.463867188 1010.49316406 c 128,-1,5
 455.463867188 954.618164062 455.463867188 954.618164062 415.809570312 914.962890625 c 128,-1,6
 376.154296875 875.306640625 376.154296875 875.306640625 320.278320312 875.306640625 c 0,7,8
 271.354492188 875.306640625 271.354492188 875.306640625 234.928710938 905.65234375 c 0,9,10
 207.508789062 928.495117188 207.508789062 928.495117188 194.985351562 958.666015625 c 0,11,12
 185.091796875 982.499023438 185.091796875 982.499023438 185.091796875 1010.49316406 c 0,0,1
185.091796875 140.493164062 m 0,13,14
 185.091796875 196.368164062 185.091796875 196.368164062 224.748046875 236.0234375 c 128,-1,15
 264.403320312 275.6796875 264.403320312 275.6796875 320.278320312 275.6796875 c 128,-1,16
 376.154296875 275.6796875 376.154296875 275.6796875 415.809570312 236.0234375 c 128,-1,17
 455.463867188 196.368164062 455.463867188 196.368164062 455.463867188 140.493164062 c 128,-1,18
 455.463867188 84.6181640625 455.463867188 84.6181640625 415.809570312 44.962890625 c 128,-1,19
 376.154296875 5.306640625 376.154296875 5.306640625 320.278320312 5.306640625 c 0,20,21
 271.354492188 5.306640625 271.354492188 5.306640625 234.928710938 35.65234375 c 0,22,23
 207.508789062 58.4951171875 207.508789062 58.4951171875 194.985351562 88.666015625 c 0,24,25
 185.091796875 112.499023438 185.091796875 112.499023438 185.091796875 140.493164062 c 0,13,14
EndSplineSet
EndChar

StartChar: afii57388
Encoding: 1548 1548 5
GlifName: afii57388
Width: 739
VWidth: 2772
GlyphClass: 2
Flags: W
LayerCount: 2
Fore
SplineSet
235.5 290 m 0,0,1
 285 535 285 535 482.162109375 684.440429688 c 1,2,-1
 530.396484375 654.436523438 l 1,3,4
 372 512 372 512 355.990234375 289.19921875 c 1,5,6
 489 291 489 291 522.62890625 224.916015625 c 0,7,8
 542 186 542 186 541.086914062 148 c 0,9,10
 539 9 539 9 396 8.9072265625 c 0,11,12
 179 8 179 8 235.5 290 c 0,0,1
EndSplineSet
EndChar

StartChar: uni0615
Encoding: 1557 1557 6
GlifName: uni0615
Width: -29
VWidth: 2714
GlyphClass: 4
Flags: W
AnchorPoint: "Anchor-10" 658.199 1624.46 mark 0
AnchorPoint: "Anchor-9" 658.199 1624.46 mark 0
AnchorPoint: "Anchor-1" 672.366 2447.86 basemark 0
AnchorPoint: "Anchor-1" 658.199 1624.46 mark 0
LayerCount: 2
Fore
SplineSet
912.769755624 1920.01350395 m 0,0,1
 912.769755624 1994.96856117 912.769755624 1994.96856117 836.782727051 1994.96856117 c 4,2,3
 730.412315598 1994.96856117 730.412315598 1994.96856117 541.2421875 1790.00390625 c 1,4,-1
 677.703125 1790.00390625 l 2,5,6
 781.798204784 1790.00390625 781.798204784 1790.00390625 845.899102392 1824.50195312 c 0,7,8
 912.769755624 1860.49063684 912.769755624 1860.49063684 912.769755624 1920.01350395 c 0,0,1
991.1328125 1928.79980469 m 0,9,10
 991.00004589 1714.07421875 991.00004589 1714.07421875 668.384765625 1714.07421875 c 2,11,-1
 354.936523438 1714.07421875 l 1,12,-1
 354.936523438 1790.00390625 l 1,13,-1
 462.987304688 1790.00390625 l 1,14,-1
 462.987304688 2322.15039062 l 1,15,-1
 540.234375 2321.18359375 l 1,16,-1
 539.275390625 1893.90234375 l 1,17,18
 703.078829305 2080.07964876 703.078829305 2080.07964876 840.555998274 2080.07964876 c 4,19,20
 990.947121021 2080.07964876 990.947121021 2080.07964876 991.1328125 1928.79980469 c 0,9,10
EndSplineSet
EndChar

StartChar: uni061B
Encoding: 1563 1563 7
GlifName: uni061B_
Width: 739
VWidth: 2772
GlyphClass: 2
Flags: W
LayerCount: 2
Fore
SplineSet
262.091796875 140.493164062 m 0,0,1
 262.091796875 196.368164062 262.091796875 196.368164062 301.748046875 236.0234375 c 128,-1,2
 341.403320312 275.6796875 341.403320312 275.6796875 397.278320312 275.6796875 c 128,-1,3
 453.154296875 275.6796875 453.154296875 275.6796875 492.809570312 236.0234375 c 128,-1,4
 532.463867188 196.368164062 532.463867188 196.368164062 532.463867188 140.493164062 c 128,-1,5
 532.463867188 84.6181640625 532.463867188 84.6181640625 492.809570312 44.962890625 c 128,-1,6
 453.154296875 5.306640625 453.154296875 5.306640625 397.278320312 5.306640625 c 0,7,8
 348.354492188 5.306640625 348.354492188 5.306640625 311.928710938 35.65234375 c 0,9,10
 284.508789062 58.4951171875 284.508789062 58.4951171875 271.985351562 88.666015625 c 0,11,12
 262.091796875 112.499023438 262.091796875 112.499023438 262.091796875 140.493164062 c 0,0,1
235.5 730 m 4,13,14
 285 975 285 975 482.162109375 1124.44042969 c 5,15,-1
 530.396484375 1094.43652344 l 5,16,17
 372 952 372 952 355.990234375 729.19921875 c 5,18,19
 489 731 489 731 522.62890625 664.916015625 c 4,20,21
 542 626 542 626 541.086914062 588 c 4,22,23
 539 449 539 449 396 448.907226562 c 4,24,25
 179 448 179 448 235.5 730 c 4,13,14
EndSplineSet
EndChar

StartChar: uni061F
Encoding: 1567 1567 8
GlifName: uni061F_
Width: 974
VWidth: 2764
GlyphClass: 2
Flags: W
LayerCount: 2
Fore
SplineSet
418.091796875 140.493164062 m 0,0,1
 418.091796875 196.368164062 418.091796875 196.368164062 457.748046875 236.0234375 c 128,-1,2
 497.403320312 275.6796875 497.403320312 275.6796875 553.278320312 275.6796875 c 128,-1,3
 609.154296875 275.6796875 609.154296875 275.6796875 648.809570312 236.0234375 c 128,-1,4
 688.463867188 196.368164062 688.463867188 196.368164062 688.463867188 140.493164062 c 128,-1,5
 688.463867188 84.6181640625 688.463867188 84.6181640625 648.809570312 44.962890625 c 128,-1,6
 609.154296875 5.306640625 609.154296875 5.306640625 553.278320312 5.306640625 c 0,7,8
 504.354492188 5.306640625 504.354492188 5.306640625 467.928710938 35.65234375 c 0,9,10
 440.508789062 58.4951171875 440.508789062 58.4951171875 427.985351562 88.666015625 c 0,11,12
 418.091796875 112.499023438 418.091796875 112.499023438 418.091796875 140.493164062 c 0,0,1
452.35 446.33 m 1,13,14
 452.349609375 454 l 2,15,16
 452 542 452 542 279.53515625 677.174804688 c 4,17,18
 101 817 101 817 105 1035 c 4,19,20
 108 1183 108 1183 192 1279 c 4,21,22
 313 1415 313 1415 508.94921875 1414.51660156 c 4,23,24
 876 1413 876 1413 876 1026 c 6,25,-1
 876 1016.25 l 5,26,-1
 715.799804688 1016.24804688 l 5,27,-1
 715.799804688 1024.86523438 l 6,28,29
 716 1221 716 1221 517.600585938 1220.89453125 c 4,30,31
 400 1221 400 1221 344.391601562 1154 c 4,32,33
 300 1101 300 1101 299.510742188 1019 c 4,34,35
 299 890 299 890 439.584960938 762.73046875 c 4,36,37
 654.985303174 567.013353833 654.985303174 567.013353833 654.98046875 457 c 2,38,39
 654.98 446.333007812 l 1,40,-1
 452.35 446.33 l 1,13,14
EndSplineSet
EndChar

StartChar: uni0621
Encoding: 1569 1569 9
GlifName: uni0621
Width: 868
VWidth: 2952
GlyphClass: 2
Flags: W
AnchorPoint: "Anchor-7" 471.326 -95.646 basechar 0
AnchorPoint: "Anchor-10" 467.848 1181.06 basechar 0
LayerCount: 2
Fore
SplineSet
117.76953125 11.8525390625 m 1,0,-1
 117.76953125 189.793945312 l 1,1,2
 229 262 229 262 316.991210938 287.880859375 c 1,3,4
 138 381 138 381 138.256835938 540.622070312 c 4,5,6
 139 676 139 676 210.036132812 758.41015625 c 4,7,8
 312 876 312 876 475.275390625 876.10546875 c 4,9,10
 643 876 643 876 732.643554688 785.666992188 c 5,11,-1
 676.067382812 647.848632812 l 5,12,13
 597 705 597 705 487.036132812 704.736328125 c 4,14,15
 400 704 400 704 349.703125 655.298828125 c 4,16,17
 304 611 304 611 303.731445312 540.56640625 c 4,18,19
 304 450 304 450 476.475585938 371.348632812 c 1,20,-1
 729.202148438 428.447265625 l 1,21,-1
 757 256 l 1,22,23
 505 226 505 226 117.76953125 11.8525390625 c 1,0,-1
EndSplineSet
EndChar

StartChar: uni0627
Encoding: 1575 1575 15
GlifName: uni0627
Width: 477
VWidth: 2952
GlyphClass: 2
Flags: W
AnchorPoint: "Anchor-10" 229.871 1543.46 basechar 0
AnchorPoint: "Anchor-7" 233.587 -236.365 basechar 0
LayerCount: 2
Fore
SplineSet
150.890625 1408.15039062 m 5,0,-1
 324.205078125 1408.15039062 l 5,1,-1
 324.205078125 0.751953125 l 5,2,-1
 150.890625 0.751953125 l 5,3,-1
 150.890625 1408.15039062 l 5,0,-1
EndSplineSet
Substitution2: "'fina' Terminal Forms in Arabic lookup 9 subtable" uniFE8E
EndChar

StartChar: uni062D
Encoding: 1581 1581 21
GlifName: uni062D_
Width: 1386
VWidth: 2952
GlyphClass: 2
Flags: W
AnchorPoint: "Anchor-7" 580.833 -810.619 basechar 0
AnchorPoint: "Anchor-10" 649.478 1262.07 basechar 0
LayerCount: 2
Fore
SplineSet
124.987304688 -144.852539062 m 0,0,1
 124.999999648 438.983789021 124.999999648 438.983789021 841 597.776367188 c 2,2,-1
 851 599.994140625 l 1,3,4
 825 610 825 610 736.876953125 645.083007812 c 0,5,6
 542 724 542 724 469.551071232 723.687573365 c 0,7,8
 356.510781247 724.001358005 356.510781247 724.001358005 283.638671875 630.13671875 c 2,9,-1
 255.610351562 594.034179688 l 1,10,-1
 101.75 669.994140625 l 1,11,-1
 118.447265625 697.567382812 l 2,12,13
 244 905 244 905 471.32421875 905.841796875 c 0,14,-1
 471.790039062 905.841796875 l 0,15,16
 598 906 598 906 774.991210938 820.029296875 c 0,17,18
 1087 668 1087 668 1257.90820312 660.69140625 c 1,19,-1
 1244.91894531 486.9296875 l 1,20,21
 1069 476 1069 476 952.70703125 449.5703125 c 0,22,23
 295 297 295 297 295.249023438 -129.302734375 c 0,24,25
 295 -498 295 -498 826.383789062 -497.783203125 c 0,26,27
 1043 -498 1043 -498 1243.31152344 -402.284179688 c 1,28,-1
 1279.37109375 -581.110351562 l 1,29,30
 1080 -678 1080 -678 811.528320312 -678.249023438 c 0,31,32
 426 -678 426 -678 254 -492.306640625 c 0,33,34
 125 -353 125 -353 124.987304688 -144.852539062 c 0,0,1
EndSplineSet
Substitution2: "'fina' Terminal Forms in Arabic lookup 9 subtable" uniFEA2
Substitution2: "'medi' Medial Forms in Arabic lookup 11 subtable" uniFEA4
Substitution2: "'init' Initial Forms in Arabic lookup 13 subtable" uniFEA3
EndChar

StartChar: uni062F
Encoding: 1583 1583 23
GlifName: uni062F_
Width: 994
VWidth: 2952
GlyphClass: 2
Flags: W
AnchorPoint: "Anchor-10" 396.137 1231.03 basechar 0
AnchorPoint: "Anchor-7" 437.24 -239.316 basechar 0
LayerCount: 2
Fore
SplineSet
100.982421875 211.208007812 m 1,0,1
 227 185 227 185 341.663085938 185.107421875 c 0,2,3
 712 185 712 185 711.954101562 366.380859375 c 0,4,5
 712 575 712 575 297 836 c 1,6,-1
 397.252929688 988.099609375 l 1,7,8
 892 693 892 693 892.479492188 368.896484375 c 0,9,10
 892 3 892 3 354.810072299 2.25983437974 c 0,11,12
 208 2 208 2 100.982421875 25.8583984375 c 1,13,-1
 100.982421875 211.208007812 l 1,0,1
EndSplineSet
Substitution2: "'fina' Terminal Forms in Arabic lookup 9 subtable" uniFEAA
EndChar

StartChar: uni0631
Encoding: 1585 1585 25
GlifName: uni0631
Width: 826
VWidth: 2144
GlyphClass: 2
Flags: W
AnchorPoint: "Anchor-10" 507.256 926.2 basechar 0
AnchorPoint: "Anchor-7" 322.969 -667.998 basechar 0
LayerCount: 2
Fore
SplineSet
645.139648438 531.579101562 m 5,0,1
 729 341 729 341 729.375 163.993164062 c 4,2,3
 729 -436 729 -436 29.4375 -510.154296875 c 5,4,-1
 -13.130859375 -339.87890625 l 5,5,6
 554 -283 554 -283 553.250976562 152.243164062 c 4,7,8
 553 305 553 305 475 472 c 5,9,-1
 645.139648438 531.579101562 l 5,0,1
EndSplineSet
PairPos2: "'kern' Horizontal Kerning lookup 15-2" uniFBFE dx=60 dy=0 dh=60 dv=0 dx=0 dy=0 dh=0 dv=0
PairPos2: "'kern' Horizontal Kerning lookup 15-1" uniFEE7 dx=-178 dy=0 dh=-178 dv=0 dx=0 dy=0 dh=0 dv=0
PairPos2: "'kern' Horizontal Kerning lookup 15-2" uniFB90 dx=-226 dy=0 dh=-226 dv=0 dx=0 dy=0 dh=0 dv=0
PairPos2: "'kern' Horizontal Kerning lookup 15-2" uniFB8E dx=-226 dy=0 dh=-226 dv=0 dx=0 dy=0 dh=0 dv=0
PairPos2: "'kern' Horizontal Kerning lookup 15-2" uni06A9 dx=-226 dy=0 dh=-226 dv=0 dx=0 dy=0 dh=0 dv=0
PairPos2: "'kern' Horizontal Kerning lookup 15-2" uni064A dx=-60 dy=0 dh=-60 dv=0 dx=0 dy=0 dh=0 dv=0
PairPos2: "'kern' Horizontal Kerning lookup 15-2" afii57414 dx=-60 dy=0 dh=-60 dv=0 dx=0 dy=0 dh=0 dv=0
PairPos2: "'kern' Horizontal Kerning lookup 15-2" uni0649 dx=-60 dy=0 dh=-60 dv=0 dx=0 dy=0 dh=0 dv=0
PairPos2: "'kern' Horizontal Kerning lookup 15-2" uniFEEB dx=-178 dy=0 dh=-178 dv=0 dx=0 dy=0 dh=0 dv=0
PairPos2: "'kern' Horizontal Kerning lookup 15-2" uni0647 dx=-178 dy=0 dh=-178 dv=0 dx=0 dy=0 dh=0 dv=0
PairPos2: "'kern' Horizontal Kerning lookup 15-2" uni0646 dx=-60 dy=0 dh=-60 dv=0 dx=0 dy=0 dh=0 dv=0
PairPos2: "'kern' Horizontal Kerning lookup 15-2" uniFEE3 dx=-178 dy=0 dh=-178 dv=0 dx=0 dy=0 dh=0 dv=0
PairPos2: "'kern' Horizontal Kerning lookup 15-2" uni0645 dx=-178 dy=0 dh=-178 dv=0 dx=0 dy=0 dh=0 dv=0
PairPos2: "'kern' Horizontal Kerning lookup 15-2" uniFEFB dx=-143 dy=0 dh=-143 dv=0 dx=0 dy=0 dh=0 dv=0
PairPos2: "'kern' Horizontal Kerning lookup 15-2" uniFEDF dx=-143 dy=0 dh=-143 dv=0 dx=0 dy=0 dh=0 dv=0
PairPos2: "'kern' Horizontal Kerning lookup 15-2" uni0644 dx=-60 dy=0 dh=-60 dv=0 dx=0 dy=0 dh=0 dv=0
PairPos2: "'kern' Horizontal Kerning lookup 15-2" uniFEDB dx=-226 dy=0 dh=-226 dv=0 dx=0 dy=0 dh=0 dv=0
PairPos2: "'kern' Horizontal Kerning lookup 15-2" uni0643 dx=-143 dy=0 dh=-143 dv=0 dx=0 dy=0 dh=0 dv=0
PairPos2: "'kern' Horizontal Kerning lookup 15-2" uniFED7 dx=-178 dy=0 dh=-178 dv=0 dx=0 dy=0 dh=0 dv=0
PairPos2: "'kern' Horizontal Kerning lookup 15-2" uni0642 dx=-60 dy=0 dh=-60 dv=0 dx=0 dy=0 dh=0 dv=0
PairPos2: "'kern' Horizontal Kerning lookup 15-2" uniFED3 dx=-178 dy=0 dh=-178 dv=0 dx=0 dy=0 dh=0 dv=0
PairPos2: "'kern' Horizontal Kerning lookup 15-2" uni0641 dx=-178 dy=0 dh=-178 dv=0 dx=0 dy=0 dh=0 dv=0
PairPos2: "'kern' Horizontal Kerning lookup 15-2" uniFECF dx=-178 dy=0 dh=-178 dv=0 dx=0 dy=0 dh=0 dv=0
PairPos2: "'kern' Horizontal Kerning lookup 15-2" uniFECB dx=-178 dy=0 dh=-178 dv=0 dx=0 dy=0 dh=0 dv=0
PairPos2: "'kern' Horizontal Kerning lookup 15-2" uniFEC7 dx=-178 dy=0 dh=-178 dv=0 dx=0 dy=0 dh=0 dv=0
PairPos2: "'kern' Horizontal Kerning lookup 15-2" uni0638 dx=-178 dy=0 dh=-178 dv=0 dx=0 dy=0 dh=0 dv=0
PairPos2: "'kern' Horizontal Kerning lookup 15-2" uniFEC3 dx=-178 dy=0 dh=-178 dv=0 dx=0 dy=0 dh=0 dv=0
PairPos2: "'kern' Horizontal Kerning lookup 15-2" uni0637 dx=-178 dy=0 dh=-178 dv=0 dx=0 dy=0 dh=0 dv=0
PairPos2: "'kern' Horizontal Kerning lookup 15-2" uniFEBF dx=-178 dy=0 dh=-178 dv=0 dx=0 dy=0 dh=0 dv=0
PairPos2: "'kern' Horizontal Kerning lookup 15-2" uni0636 dx=-178 dy=0 dh=-178 dv=0 dx=0 dy=0 dh=0 dv=0
PairPos2: "'kern' Horizontal Kerning lookup 15-2" uniFEBB dx=-178 dy=0 dh=-178 dv=0 dx=0 dy=0 dh=0 dv=0
PairPos2: "'kern' Horizontal Kerning lookup 15-2" uni0635 dx=-178 dy=0 dh=-178 dv=0 dx=0 dy=0 dh=0 dv=0
PairPos2: "'kern' Horizontal Kerning lookup 15-2" uniFEB7 dx=-178 dy=0 dh=-178 dv=0 dx=0 dy=0 dh=0 dv=0
PairPos2: "'kern' Horizontal Kerning lookup 15-2" uni0634 dx=-178 dy=0 dh=-178 dv=0 dx=0 dy=0 dh=0 dv=0
PairPos2: "'kern' Horizontal Kerning lookup 15-2" uniFEB3 dx=-178 dy=0 dh=-178 dv=0 dx=0 dy=0 dh=0 dv=0
PairPos2: "'kern' Horizontal Kerning lookup 15-2" uni0633 dx=-178 dy=0 dh=-178 dv=0 dx=0 dy=0 dh=0 dv=0
PairPos2: "'kern' Horizontal Kerning lookup 15-2" uni0630 dx=-178 dy=0 dh=-178 dv=0 dx=0 dy=0 dh=0 dv=0
PairPos2: "'kern' Horizontal Kerning lookup 15-2" uni062F dx=-178 dy=0 dh=-178 dv=0 dx=0 dy=0 dh=0 dv=0
PairPos2: "'kern' Horizontal Kerning lookup 15-2" uniFEA7 dx=-178 dy=0 dh=-178 dv=0 dx=0 dy=0 dh=0 dv=0
PairPos2: "'kern' Horizontal Kerning lookup 15-2" uniFEA3 dx=-178 dy=0 dh=-178 dv=0 dx=0 dy=0 dh=0 dv=0
PairPos2: "'kern' Horizontal Kerning lookup 15-2" uniFE9F dx=-178 dy=0 dh=-178 dv=0 dx=0 dy=0 dh=0 dv=0
PairPos2: "'kern' Horizontal Kerning lookup 15-2" uniFE9B dx=-178 dy=0 dh=-178 dv=0 dx=0 dy=0 dh=0 dv=0
PairPos2: "'kern' Horizontal Kerning lookup 15-2" uni062B dx=-178 dy=0 dh=-178 dv=0 dx=0 dy=0 dh=0 dv=0
PairPos2: "'kern' Horizontal Kerning lookup 15-2" uniFE97 dx=-178 dy=0 dh=-178 dv=0 dx=0 dy=0 dh=0 dv=0
PairPos2: "'kern' Horizontal Kerning lookup 15-2" uni062A dx=-178 dy=0 dh=-178 dv=0 dx=0 dy=0 dh=0 dv=0
PairPos2: "'kern' Horizontal Kerning lookup 15-2" uni0629 dx=-178 dy=0 dh=-178 dv=0 dx=0 dy=0 dh=0 dv=0
PairPos2: "'kern' Horizontal Kerning lookup 15-2" uni0628 dx=-178 dy=0 dh=-178 dv=0 dx=0 dy=0 dh=0 dv=0
PairPos2: "'kern' Horizontal Kerning lookup 15-2" uni0627 dx=-143 dy=0 dh=-143 dv=0 dx=0 dy=0 dh=0 dv=0
PairPos2: "'kern' Horizontal Kerning lookup 15-2" uni0623 dx=-143 dy=0 dh=-143 dv=0 dx=0 dy=0 dh=0 dv=0
PairPos2: "'kern' Horizontal Kerning lookup 15-2" uni0622 dx=-143 dy=0 dh=-143 dv=0 dx=0 dy=0 dh=0 dv=0
PairPos2: "'kern' Horizontal Kerning lookup 15-2" uni0621 dx=-178 dy=0 dh=-178 dv=0 dx=0 dy=0 dh=0 dv=0
PairPos2: "'kern' Horizontal Kerning lookup 15-2" uniFB94 dx=-226 dy=0 dh=-226 dv=0 dx=0 dy=0 dh=0 dv=0
PairPos2: "'kern' Horizontal Kerning lookup 15-2" uniFB92 dx=-226 dy=0 dh=-226 dv=0 dx=0 dy=0 dh=0 dv=0
PairPos2: "'kern' Horizontal Kerning lookup 15-2" uni06AF dx=-226 dy=0 dh=-226 dv=0 dx=0 dy=0 dh=0 dv=0
PairPos2: "'kern' Horizontal Kerning lookup 15-2" afii57506 dx=-178 dy=0 dh=-178 dv=0 dx=0 dy=0 dh=0 dv=0
PairPos2: "'kern' Horizontal Kerning lookup 15-2" afii57440 dx=-178 dy=0 dh=-178 dv=0 dx=0 dy=0 dh=0 dv=0
PairPos2: "'kern' Horizontal Kerning lookup 15-2" uniFE8B dx=-178 dy=0 dh=-178 dv=0 dx=0 dy=0 dh=0 dv=0
Substitution2: "'fina' Terminal Forms in Arabic lookup 9 subtable" uniFEAE
EndChar

StartChar: uni0633
Encoding: 1587 1587 27
GlifName: uni0633
Width: 2500
VWidth: 2952
GlyphClass: 2
Flags: W
AnchorPoint: "Anchor-10" 1818.53 1137.1 basechar 0
AnchorPoint: "Anchor-7" 681.902 -756.086 basechar 0
LayerCount: 2
Fore
SplineSet
1552.80664062 -0.0810546875 m 0,0,1
 1438 -0 1438 -0 1369.91992188 56.0498046875 c 1,2,3
 1369 -82 1369 -82 1303.8671875 -216.98828125 c 0,4,5
 1158 -520 1158 -520 707.334960938 -519.724609375 c 0,6,7
 102 -520 102 -520 101.753187573 41.0436292565 c 0,8,9
 102 246 102 246 203.028320312 490.125 c 1,10,-1
 361.548828125 424.787109375 l 1,11,12
 278 213 278 213 278.268554688 42.8603515625 c 0,13,14
 278 -343 278 -343 714.361929985 -343.203457009 c 0,15,16
 1189 -343 1189 -343 1190.55493267 101.93364713 c 0,17,18
 1191 286 1191 286 1100.44628906 471.768554688 c 1,19,-1
 1273.08789062 532.0859375 l 1,20,-1
 1333 347 l 2,21,22
 1385 185 1385 185 1554.50097656 184.9921875 c 0,23,24
 1743 185 1743 185 1742.30175781 368.700195312 c 4,25,26
 1742.00548047 425.941170284 1742.00548047 425.941170284 1739.21777344 469.671875 c 2,27,-1
 1733.81738281 554.387695312 l 1,28,-1
 1898.54296875 573.720703125 l 1,29,-1
 1914.61425781 342.55078125 l 2,30,31
 1925 187 1925 187 2073 187.5 c 128,-1,32
 2221 188 2221 188 2220.42285156 399.317382812 c 0,33,34
 2220 502 2220 502 2176.41894531 654.2265625 c 1,35,-1
 2347.37011719 699.966796875 l 1,36,37
 2397 543 2397 543 2396.43652344 400.418945312 c 0,38,39
 2396 173 2396 173 2274.76171875 67.1455078125 c 0,40,41
 2199 1 2199 1 2075.16210938 0.912109375 c 0,42,43
 1890 1 1890 1 1831.15527344 140.961914062 c 1,44,45
 1730 -0 1730 -0 1552.80664062 -0.0810546875 c 0,0,1
EndSplineSet
Substitution2: "'fina' Terminal Forms in Arabic lookup 9 subtable" uniFEB2
Substitution2: "'medi' Medial Forms in Arabic lookup 11 subtable" uniFEB4
Substitution2: "'init' Initial Forms in Arabic lookup 13 subtable" uniFEB3
EndChar

StartChar: uni0635
Encoding: 1589 1589 29
GlifName: uni0635
Width: 2597
VWidth: 2952
GlyphClass: 2
Flags: W
AnchorPoint: "Anchor-7" 681.902 -756.086 basechar 0
AnchorPoint: "Anchor-10" 2066.53 1236.1 basechar 0
LayerCount: 2
Fore
SplineSet
1433.78710938 213.107421875 m 5,0,1
 1779 797 1779 797 2119.33300781 796.42578125 c 4,2,3
 2274 796 2274 796 2368 718.5390625 c 4,4,5
 2495 614 2495 614 2494.59667969 423.791992188 c 4,6,7
 2493 0 2493 0 1773.15136719 0 c 6,8,-1
 1722.34082031 0 l 6,9,10
 1483 0 1483 0 1369.91992188 56.0498046875 c 1,11,12
 1369 -82 1369 -82 1303.8671875 -216.98828125 c 0,13,14
 1158 -520 1158 -520 707.334960938 -519.724609375 c 0,15,16
 102 -520 102 -520 101.753187573 41.0436292565 c 0,17,18
 102 246 102 246 203.028320312 490.125 c 1,19,-1
 361.548828125 424.787109375 l 1,20,21
 278 213 278 213 278.268554688 42.8603515625 c 0,22,23
 278 -343 278 -343 714.361929985 -343.203457009 c 0,24,25
 1189 -343 1189 -343 1190.55493267 101.93364713 c 0,26,27
 1191 286 1191 286 1100.44628906 471.768554688 c 1,28,-1
 1273.08789062 532.0859375 l 1,29,-1
 1341 321 l 2,30,31
 1373.8101654 219.018709973 1373.8101654 219.018709973 1433.78710938 213.107421875 c 5,0,1
1768.75585938 184.534179688 m 6,32,33
 2312 185 2312 185 2312.66113281 415.374023438 c 4,34,35
 2313 517 2313 517 2235 570.887695312 c 4,36,37
 2187 604 2187 604 2122.11816406 604.573242188 c 4,38,39
 1894 606 1894 606 1624.65625 184.416992188 c 5,40,-1
 1768.75585938 184.534179688 l 6,32,33
EndSplineSet
Substitution2: "'fina' Terminal Forms in Arabic lookup 9 subtable" uniFEBA
Substitution2: "'medi' Medial Forms in Arabic lookup 11 subtable" uniFEBC
Substitution2: "'init' Initial Forms in Arabic lookup 13 subtable" uniFEBB
EndChar

StartChar: uni0637
Encoding: 1591 1591 31
GlifName: uni0637
Width: 1480
VWidth: 2952
GlyphClass: 2
Flags: W
AnchorPoint: "Anchor-10" 471.36 1546.58 basechar 0
AnchorPoint: "Anchor-7" 641.602 -236.453 basechar 0
LayerCount: 2
Fore
SplineSet
1004.41015625 796.42578125 m 0,0,1
 1218 796 1218 796 1316.09472656 648 c 0,2,3
 1380 552 1380 552 1379.67382812 423.791992188 c 0,4,5
 1378 0 1378 0 658.228515625 0 c 2,6,-1
 101.302734375 0 l 1,7,-1
 101.302734375 184.221679688 l 1,8,-1
 321.826171875 184.376953125 l 1,9,-1
 323.553710938 184.377929688 l 1,10,-1
 324.419921875 185.873046875 l 2,11,12
 346.051472197 214.73444846 346.051472197 214.73444846 395.209960938 297.157226562 c 2,13,-1
 395.6328125 297.866210938 l 1,14,-1
 395.6328125 298.692382812 l 1,15,-1
 395.6328125 1408.87402344 l 5,16,-1
 568.946289062 1408.87402344 l 5,17,-1
 568.946289062 544.209960938 l 1,18,19
 771 796 771 796 1004.41015625 796.42578125 c 0,0,1
1007.1953125 604.573242188 m 0,20,21
 776 605 776 605 509.755859375 184.534179688 c 1,22,-1
 653.833007812 184.534179688 l 2,23,24
 1197 185 1197 185 1197.73828125 415.374023438 c 0,25,26
 1198 492 1198 492 1155.09472656 540 c 0,27,28
 1097 604 1097 604 1007.1953125 604.573242188 c 0,20,21
EndSplineSet
Substitution2: "'fina' Terminal Forms in Arabic lookup 9 subtable" uniFEC2
Substitution2: "'medi' Medial Forms in Arabic lookup 11 subtable" uniFEC4
Substitution2: "'init' Initial Forms in Arabic lookup 13 subtable" uniFEC3
EndChar

StartChar: uni0639
Encoding: 1593 1593 33
GlifName: uni0639
Width: 1330
VWidth: 2952
GlyphClass: 2
Flags: W
AnchorPoint: "Anchor-7" 580.833 -810.619 basechar 0
AnchorPoint: "Anchor-10" 723.478 1366.07 basechar 0
LayerCount: 2
Fore
SplineSet
635.020507812 463.221679688 m 1,0,1
 814 494 814 494 941.204101562 494.546875 c 0,2,3
 1035 495 1035 495 1123.74121094 484.849609375 c 1,4,-1
 1101.38867188 309.689453125 l 1,5,6
 1015 313 1015 313 985.026367188 312.172851562 c 0,7,8
 275 292 275 292 275.240234375 -144.854492188 c 0,9,10
 275 -498 275 -498 795.3046875 -498.266601562 c 0,11,12
 1003 -498 1003 -498 1203.31152344 -402.767578125 c 1,13,-1
 1239.37109375 -581.59375 l 1,14,15
 1041 -679 1041 -679 783.052734375 -678.733398438 c 0,16,17
 105 -679 105 -679 104.975585938 -152.311523438 c 0,18,19
 105 240 105 240 462.815429688 398.236328125 c 1,20,21
 342 538 342 538 341.84375 695.0703125 c 0,22,23
 342 764 342 764 369.353515625 833.65625 c 0,24,25
 396 900 396 900 449.698242188 956.767578125 c 0,26,27
 551 1064 551 1064 734 1064 c 0,28,29
 887 1064 887 1064 1065.66113281 941.680664062 c 1,30,-1
 998.3125 792.307617188 l 1,31,32
 849 881 849 881 743.943359375 880.802734375 c 0,33,34
 615 881 615 881 555.880859375 782.607421875 c 0,35,36
 526 734 526 734 526.20703125 682.166015625 c 0,37,38
 526 637 526 637 549.54296875 589.2421875 c 0,39,40
 572 544 572 544 635.020507812 463.221679688 c 1,0,1
EndSplineSet
Substitution2: "'fina' Terminal Forms in Arabic lookup 9 subtable" uniFECA
Substitution2: "'medi' Medial Forms in Arabic lookup 11 subtable" uniFECC
Substitution2: "'init' Initial Forms in Arabic lookup 13 subtable" uniFECB
EndChar

StartChar: afii57440
Encoding: 1600 1600 35
GlifName: afii57440
Width: 286
VWidth: 2952
GlyphClass: 2
Flags: W
AnchorPoint: "Anchor-10" 143.774 1376.11 basechar 0
AnchorPoint: "Anchor-7" 147.7 -234.739 basechar 0
LayerCount: 2
Fore
SplineSet
-6.9384765625 0 m 2,0,1
 -64.7783203125 0 -64.7783203125 0 -64.7783203125 88.3134765625 c 6,2,-1
 -64.7783203125 107.192382812 l 6,3,4
 -64.9999971815 183.999023438 -64.9999971815 183.999023438 -6.9384765625 183.999023438 c 2,5,-1
 294.64453125 183.999023438 l 2,6,7
 314.771484375 183.999989037 314.771484375 183.999989037 314.771484375 107.174804688 c 2,8,-1
 314.771484375 88.3251953125 l 2,9,10
 315 0 315 0 294.69140625 0 c 2,11,-1
 -6.9384765625 0 l 2,0,1
EndSplineSet
EndChar

StartChar: uni0643
Encoding: 1603 1603 38
GlifName: uni0643
Width: 1971
VWidth: 2952
GlyphClass: 2
Flags: W
AnchorPoint: "Anchor-7" 740.268 -236.468 basechar 0
AnchorPoint: "Anchor-10" 978.11 1452.05 basechar 0
LayerCount: 2
Fore
SplineSet
940.404296875 184.215820312 m 0,0,1
 1033 184 1033 184 1149.71875 194.809570312 c 0,2,3
 1638 240 1638 240 1631.82910156 541.963867188 c 5,4,-1
 1631.82910156 1404.56640625 l 5,5,-1
 1809.70996094 1404.56640625 l 5,6,-1
 1809.70996094 544.338867188 l 6,7,8
 1810 307 1810 307 1642.49707031 168.098632812 c 0,9,10
 1441 0 1441 0 942.133789062 0 c 0,11,12
 451 0 451 0 265.690429688 135.786132812 c 0,13,14
 100 256 100 256 99.1611328125 504.530273438 c 0,15,16
 99 638 99 638 145.662109375 742.786132812 c 1,17,-1
 303.43359375 674.241210938 l 1,18,19
 277 606 277 606 278.453125 516.880859375 c 0,20,21
 280 353 280 353 400.619140625 277.517578125 c 0,22,23
 549 185 549 185 940.404296875 184.215820312 c 0,0,1
716.16015625 702.014648438 m 5,24,25
 810 692 810 692 878.541992188 691.266601562 c 4,26,27
 985 691 985 691 1038.5078125 712.905273438 c 132,-1,28
 1092 735 1092 735 1092.74707031 781.642578125 c 4,29,30
 1093 825 1093 825 1062.24511719 850.521484375 c 4,31,32
 1032 877 1032 877 971.092773438 885.450195312 c 4,33,34
 757 918 757 918 760.930664062 1098.4921875 c 4,35,36
 766 1305 766 1305 1153.61035156 1333.55273438 c 5,37,-1
 1153.61035156 1204.98925781 l 5,38,39
 894 1181 894 1181 894.139648438 1090.4453125 c 4,40,41
 894 1016 894 1016 1032.91601562 994.756835938 c 4,42,43
 1226 965 1226 965 1225.36425781 786.126953125 c 4,44,45
 1225 665 1225 665 1106.39941406 600.239257812 c 4,46,47
 1031 559 1031 559 896 559.088867188 c 4,48,49
 816 559 816 559 716.16015625 574.366210938 c 5,50,-1
 716.16015625 702.014648438 l 5,24,25
EndSplineSet
Substitution2: "'fina' Terminal Forms in Arabic lookup 9 subtable" uniFEDA
Substitution2: "'medi' Medial Forms in Arabic lookup 11 subtable" uniFEDC
Substitution2: "'init' Initial Forms in Arabic lookup 13 subtable" uniFEDB
EndChar

StartChar: uni0644
Encoding: 1604 1604 39
GlifName: uni0644
Width: 1441
VWidth: 2952
GlyphClass: 2
Flags: W
AnchorPoint: "Anchor-7" 681.902 -756.086 basechar 0
AnchorPoint: "Anchor-10" 593.908 1171.66 basechar 0
LayerCount: 2
Fore
SplineSet
1112.60449219 99.8037109375 m 2,0,-1
 1115.91699219 1407.99316406 l 5,1,-1
 1287.88574219 1407.99316406 l 5,2,-1
 1287.18554688 299.321289062 l 2,3,4
 1287 157 1287 157 1277.859375 28.4931640625 c 0,5,6
 1236 -520 1236 -520 681.4296875 -519.734375 c 0,7,8
 101 -520 101 -520 102.740167025 40.731124819 c 0,9,10
 103 142 103 142 123.46484375 241.438476562 c 0,11,12
 145 345 145 345 186.329101562 446.47265625 c 1,13,-1
 344.853515625 381.1328125 l 1,14,15
 278 211 278 211 278.24609375 38.1865234375 c 0,16,17
 278 -343 278 -343 681.785166907 -343.226773524 c 0,18,19
 1111 -343 1111 -343 1112.60449219 99.8037109375 c 2,0,-1
EndSplineSet
Substitution2: "'fina' Terminal Forms in Arabic lookup 9 subtable" uniFEDE
Substitution2: "'medi' Medial Forms in Arabic lookup 11 subtable" uniFEE0
Substitution2: "'init' Initial Forms in Arabic lookup 13 subtable" uniFEDF
EndChar

StartChar: uni0645
Encoding: 1605 1605 40
GlifName: uni0645
Width: 1242
VWidth: 2622
GlyphClass: 2
Flags: W
AnchorPoint: "Anchor-7" 724.983 -336.909 basechar 0
AnchorPoint: "Anchor-10" 769.239 1134.48 basechar 0
LayerCount: 2
Fore
SplineSet
842 158 m 0,0,1
 972 157 972 157 972.357421875 296.700195312 c 0,2,3
 970.95703125 354.96875 970.95703125 354.96875 950.490234375 406.854492188 c 0,4,5
 907 514 907 514 791.799804688 516.004882812 c 0,6,7
 656 518 656 518 581.365234375 308.6015625 c 1,8,9
 754 158 754 158 842 158 c 0,0,1
1143.39257812 309.016601562 m 0,10,11
 1143 167 1143 167 1074.46289062 74 c 0,12,13
 1004 -23 1004 -23 852 -23.1371827886 c 0,14,15
 750 -23 750 -23 606.83984375 64.6318359375 c 0,16,17
 559 94 559 94 504.188476562 121.991210938 c 0,18,19
 471 139 471 139 428.370117188 137.747070312 c 0,20,21
 275 136 275 136 275.751953125 -338 c 4,22,23
 276 -534 276 -534 289.813476562 -694.813476562 c 5,24,-1
 110.231445312 -694.813476562 l 5,25,26
 98 -505 98 -505 99.0615234375 -334 c 4,27,28
 102 9 102 9 178 159 c 0,29,30
 256 312 256 312 392.665039062 332.708007812 c 1,31,32
 540 704 540 704 788.915039062 705.381835938 c 0,33,34
 951 706 951 706 1047 589 c 128,-1,35
 1143 472 1143 472 1143.39257812 309.016601562 c 0,10,11
EndSplineSet
Substitution2: "'init' Initial Forms in Arabic lookup 13 subtable" uniFEE3
Substitution2: "'medi' Medial Forms in Arabic lookup 11 subtable" uniFEE4
Substitution2: "'fina' Terminal Forms in Arabic lookup 9 subtable" uniFEE2
EndChar

StartChar: uni0647
Encoding: 1607 1607 42
GlifName: uni0647
Width: 942
VWidth: 2952
GlyphClass: 2
Flags: W
AnchorPoint: "Anchor-10" 424.775 1211.01 basechar 0
AnchorPoint: "Anchor-7" 450.63 -240.576 basechar 0
LayerCount: 2
Fore
SplineSet
461.8671875 644.166992188 m 1,0,1
 272 478 272 478 271.884553421 350.989329604 c 0,2,3
 272 184 272 184 475.345703125 183.9921875 c 0,4,5
 681.02874995 184.000039272 681.02874995 184.000039272 680.423918412 352.147601374 c 0,6,7
 680 470 680 470 461.8671875 644.166992188 c 1,0,1
383.662109375 947.42578125 m 1,8,9
 851 605 851 605 850.791827689 346.377299235 c 0,10,11
 851 157 851 157 686.272460938 54.5078125 c 0,12,13
 607 5 607 5 476.05078125 4.1943359375 c 0,14,15
 355 4 355 4 269.450195312 46.7998046875 c 0,16,17
 101 131 101 131 101.368342912 345.788734753 c 0,18,19
 101 553 101 553 328.907226562 774.524414062 c 1,20,-1
 284 814 l 1,21,-1
 383.662109375 947.42578125 l 1,8,9
EndSplineSet
Substitution2: "'fina' Terminal Forms in Arabic lookup 9 subtable" uniFEEA
Substitution2: "'medi' Medial Forms in Arabic lookup 11 subtable" uniFEEC
Substitution2: "'init' Initial Forms in Arabic lookup 13 subtable" uniFEEB
EndChar

StartChar: uni0648
Encoding: 1608 1608 43
GlifName: uni0648
Width: 890
VWidth: 2144
GlyphClass: 2
Flags: W
AnchorPoint: "Anchor-7" 382.969 -667.998 basechar 0
AnchorPoint: "Anchor-10" 443.256 1112.2 basechar 0
LayerCount: 2
Fore
SplineSet
620.629882812 201.602539062 m 5,0,1
 599 535 599 535 427.405273438 535.124023438 c 4,2,3
 331 535 331 535 290.426757812 414.928710938 c 4,4,5
 272 361 272 361 272.159179688 312.5625 c 4,6,7
 272 175 272 175 468.954101562 176.36328125 c 4,8,9
 542 177 542 177 620.629882812 201.602539062 c 5,0,1
468.180664062 -2.1884765625 m 4,10,11
 103 -2 103 -2 103.004882812 298.353515625 c 4,12,13
 103 419 103 419 154.661132812 527.4609375 c 4,14,15
 249 724 249 724 439.10546875 724.077148438 c 4,16,17
 643 724 643 724 730.981445312 494.9609375 c 4,18,19
 792 337 792 337 790.833007812 140.1640625 c 4,20,21
 787 -440 787 -440 103.310546875 -510.163085938 c 5,22,-1
 60.7353515625 -339.862304688 l 5,23,24
 531 -292 531 -292 620.298828125 13.1044921875 c 5,25,26
 501 -2 501 -2 468.180664062 -2.1884765625 c 4,10,11
EndSplineSet
Substitution2: "'fina' Terminal Forms in Arabic lookup 9 subtable" uniFEEE
EndChar

StartChar: uni0649
Encoding: 1609 1609 44
GlifName: uni0649
Width: 1504
VWidth: 2952
GlyphClass: 2
Flags: MW
AnchorPoint: "Anchor-7" 671.902 -716.086 basechar 0
AnchorPoint: "Anchor-10" 727.6 956.22 basechar 0
LayerCount: 2
Fore
SplineSet
278.268554688 41.2333984375 m 0,0,1
 278 -322 278 -322 740.9140625 -323.607421875 c 0,2,3
 919 -324 919 -324 1059 -258.86328125 c 0,4,5
 1132 -225 1132 -225 1186.84375 -168.647460938 c 0,6,7
 1242 -112 1242 -112 1241.80761719 -40.3662109375 c 0,8,9
 1241.99847184 16.5443226747 1241.99847184 16.5443226747 1163.56640625 17.0146484375 c 2,10,-1
 1050.38378906 17.693359375 l 2,11,12
 801 19 801 19 800.791992188 216.795898438 c 0,13,14
 801 406 801 406 921 537 c 0,15,16
 1075.58709897 705.549804688 1075.58709897 705.549804688 1357 705.549804688 c 2,17,-1
 1378.37597656 705.549804688 l 1,18,-1
 1378.0703125 512.740234375 l 1,19,-1
 1356 512.740234375 l 2,20,21
 1196 513 1196 513 1091.31445312 439.87109375 c 0,22,23
 984 365 984 365 982.43359375 256 c 0,24,25
 982 226 982 226 997.873046875 213.107421875 c 0,26,27
 1014.81278722 199.15420663 1014.81278722 199.15420663 1052 199.215820312 c 2,28,-1
 1171.06054688 199.413085938 l 2,29,30
 1408 200 1408 200 1408.3515625 0.13671875 c 0,31,32
 1408 -290 1408 -290 1120 -421.709960938 c 0,33,34
 951 -499 951 -499 735.986328125 -499.208984375 c 0,35,36
 103 -499 103 -499 102.76171875 38.009765625 c 0,37,38
 103 276 103 276 232.4765625 567.33984375 c 1,39,-1
 391 502 l 1,40,41
 278 246 278 246 278.268554688 41.2333984375 c 0,0,1
EndSplineSet
Substitution2: "'fina' Terminal Forms in Arabic lookup 9 subtable" uniFEF0
Substitution2: "'medi' Medial Forms in Arabic lookup 11 subtable" uniFBE9
Substitution2: "'init' Initial Forms in Arabic lookup 13 subtable" uniFBE8
EndChar

StartChar: uni064B
Encoding: 1611 1611 46
GlifName: uni064B_
Width: -26
VWidth: 2316
GlyphClass: 4
Flags: W
AnchorPoint: "Anchor-10" 593.551 1113.65 mark 0
AnchorPoint: "Anchor-9" 593.551 1113.65 mark 0
AnchorPoint: "Anchor-1" 553.285 1596.25 basemark 0
AnchorPoint: "Anchor-1" 593.551 1113.65 mark 0
LayerCount: 2
Fore
SplineSet
326.700195312 1076.40039062 m 1,0,-1
 326.700195312 1179.97753906 l 1,1,-1
 782.099609375 1366.27832031 l 1,2,-1
 782.099609375 1262.70019531 l 1,3,-1
 326.700195312 1076.40039062 l 1,0,-1
326.700195312 1288.40039062 m 5,4,-1
 326.700195312 1391.97753906 l 5,5,-1
 782.099609375 1578.27832031 l 5,6,-1
 782.099609375 1474.70019531 l 5,7,-1
 326.700195312 1288.40039062 l 5,4,-1
EndSplineSet
EndChar

StartChar: uni064C
Encoding: 1612 1612 47
GlifName: uni064C_
Width: -26
VWidth: 2316
GlyphClass: 4
Flags: W
AnchorPoint: "Anchor-10" 680.906 1218.67 mark 0
AnchorPoint: "Anchor-9" 680.906 1218.67 mark 0
AnchorPoint: "Anchor-1" 571.739 1915.46 basemark 0
AnchorPoint: "Anchor-1" 680.906 1218.67 mark 0
LayerCount: 2
Fore
SplineSet
587.700195312 1717.20019531 m 0,0,1
 568 1694 568 1694 567.713867188 1664.09277344 c 0,2,3
 567.992998269 1607.42154258 567.992998269 1607.42154258 633.58203125 1579.84570312 c 0,4,5
 657 1570 657 1570 707.779296875 1554.83300781 c 1,6,7
 735 1601 735 1601 735.001953125 1648.8203125 c 0,8,9
 735 1747 735 1747 654.299804688 1746.29394531 c 4,10,11
 612 1746 612 1746 587.700195312 1717.20019531 c 0,0,1
318.795898438 1514.47949219 m 1,12,13
 323 1288 323 1288 452.537109375 1289.27539062 c 0,14,15
 524 1290 524 1290 600.506835938 1364.1015625 c 0,16,17
 645 1408 645 1408 684.62890625 1486.18359375 c 1,18,-1
 655.040039062 1492.46289062 l 2,19,20
 555 1514 555 1514 518.3046875 1562.05078125 c 0,21,22
 486 1605 486 1605 486 1655.09960938 c 0,23,24
 486 1706 486 1706 503.069335938 1739.70019531 c 0,25,26
 547 1825 547 1825 650.174804688 1825.4140625 c 4,27,28
 722 1826 722 1826 765.19140625 1784.28027344 c 0,29,30
 813 1738 813 1738 813.390625 1650.37890625 c 0,31,32
 814 1610 814 1610 791.735351562 1541.11914062 c 1,33,-1
 821.8671875 1539.53710938 l 2,34,35
 851 1538 851 1538 880.497070312 1537.51953125 c 1,36,-1
 880.497070312 1459.00878906 l 1,37,38
 840.4852365 1459.9881233 840.4852365 1459.9881233 829.890625 1461.00683594 c 2,39,-1
 753.71875 1468.33105469 l 1,40,41
 708 1357 708 1357 620.0390625 1281.13378906 c 0,42,43
 540 1211 540 1211 453.6796875 1210.96386719 c 0,44,45
 268 1210 268 1210 263.147460938 1514.47949219 c 1,46,-1
 318.795898438 1514.47949219 l 1,12,13
EndSplineSet
EndChar

StartChar: uni064D
Encoding: 1613 1613 48
GlifName: uni064D_
Width: -26
VWidth: 2316
GlyphClass: 4
Flags: W
AnchorPoint: "Anchor-7" 546.278 61.7109 mark 0
AnchorPoint: "Anchor-6" 546.278 61.7109 mark 0
AnchorPoint: "Anchor-0" 592.022 -407.025 basemark 0
AnchorPoint: "Anchor-0" 546.278 61.7109 mark 0
LayerCount: 2
Fore
SplineSet
332.099609375 -446 m 5,0,-1
 332.099609375 -342.422851562 l 5,1,-1
 787.5 -156.122070312 l 5,2,-1
 787.5 -259.700195312 l 5,3,-1
 332.099609375 -446 l 5,0,-1
332.099609375 -234 m 1,4,-1
 332.099609375 -130.422851562 l 1,5,-1
 787.5 55.8779296875 l 1,6,-1
 787.5 -47.7001953125 l 1,7,-1
 332.099609375 -234 l 1,4,-1
EndSplineSet
EndChar

StartChar: uni064E
Encoding: 1614 1614 49
GlifName: uni064E_
Width: -26
VWidth: 2316
GlyphClass: 4
Flags: W
AnchorPoint: "Anchor-10" 581.66 1364.63 mark 0
AnchorPoint: "Anchor-9" 581.66 1364.63 mark 0
AnchorPoint: "Anchor-1" 541.396 1651.77 basemark 0
AnchorPoint: "Anchor-1" 581.66 1364.63 mark 0
LayerCount: 2
Fore
SplineSet
296.099609375 1349.09960938 m 1,0,-1
 296.099609375 1452.67773438 l 1,1,-1
 751.5 1638.97851562 l 1,2,-1
 751.5 1535.40039062 l 1,3,-1
 296.099609375 1349.09960938 l 1,0,-1
EndSplineSet
EndChar

StartChar: uni064F
Encoding: 1615 1615 50
GlifName: uni064F_
Width: -26
VWidth: 2316
GlyphClass: 4
Flags: W
AnchorPoint: "Anchor-10" 591.295 1299.37 mark 0
AnchorPoint: "Anchor-9" 591.295 1299.37 mark 0
AnchorPoint: "Anchor-1" 570.134 1910.4 basemark 0
AnchorPoint: "Anchor-1" 591.295 1299.37 mark 0
LayerCount: 2
Fore
SplineSet
812.65234375 1464.00195312 m 5,0,1
 752.442709859 1464.00001426 752.442709859 1464.00001426 714 1469 c 6,2,3
 682.682617188 1473.07324219 l 5,4,5
 557 1295 557 1295 318.57421875 1282.671875 c 1,6,-1
 318.57421875 1360.92578125 l 1,7,8
 505 1369 505 1369 595.90625 1497.50097656 c 5,9,10
 553 1506 553 1506 506.532226562 1531.44140625 c 4,11,12
 420 1580 420 1580 420.25 1665.55273438 c 4,13,14
 421 1730 421 1730 456.200195312 1772.81054688 c 4,15,16
 502 1828 502 1828 582.970703125 1827.95996094 c 4,17,18
 644 1828 644 1828 688.7109375 1792 c 4,19,20
 721 1766 721 1766 735.739257812 1727.19824219 c 4,21,22
 746 1699 746 1699 745.545898438 1665.40039062 c 4,23,24
 745 1607 745 1607 719.807617188 1546.24804688 c 5,25,-1
 739.616210938 1544.48535156 l 6,26,27
 779 1541 779 1541 812.65234375 1542.28222656 c 5,28,-1
 812.65234375 1464.00195312 l 5,0,1
639.93359375 1559.78027344 m 5,29,-1
 646.099609375 1574 l 6,30,31
 667 1622 667 1622 667.158203125 1663.71679688 c 4,32,33
 667 1705 667 1705 642.086914062 1725.38183594 c 4,34,35
 617 1747 617 1747 586.94140625 1747.47167969 c 4,36,37
 542 1748 542 1748 517.400390625 1715.90039062 c 4,38,39
 500 1693 500 1693 499.868164062 1662.02734375 c 4,40,41
 500 1615 500 1615 565.73828125 1584.79003906 c 4,42,43
 589 1574 589 1574 639.93359375 1559.78027344 c 5,29,-1
EndSplineSet
EndChar

StartChar: uni0650
Encoding: 1616 1616 51
GlifName: uni0650
Width: -26
VWidth: 2316
GlyphClass: 4
Flags: W
AnchorPoint: "Anchor-7" 571.144 -44.8242 mark 0
AnchorPoint: "Anchor-6" 571.144 -44.8242 mark 0
AnchorPoint: "Anchor-0" 619.091 -324.624 basemark 0
AnchorPoint: "Anchor-0" 571.144 -44.8242 mark 0
LayerCount: 2
Fore
SplineSet
342.900390625 -345.599609375 m 1,0,-1
 342.900390625 -242.022460938 l 1,1,-1
 798.299804688 -55.7216796875 l 1,2,-1
 798.299804688 -159.299804688 l 1,3,-1
 342.900390625 -345.599609375 l 1,0,-1
EndSplineSet
EndChar

StartChar: uni0651
Encoding: 1617 1617 52
GlifName: uni0651
Width: -26
VWidth: 2393
GlyphClass: 4
Flags: W
AnchorPoint: "Anchor-10" 598.801 1463.71 mark 0
AnchorPoint: "Anchor-9" 598.801 1463.71 mark 0
AnchorPoint: "Anchor-1" 570.087 1849.1 basemark 0
AnchorPoint: "Anchor-1" 598.801 1463.71 mark 0
LayerCount: 2
Fore
SplineSet
608.421875 1768.46289062 m 1,0,1
 610.200195312 1727.09960938 610.200195312 1727.09960938 610.623046875 1685.90234375 c 0,2,3
 610.200195312 1593.90039062 610.200195312 1593.90039062 676.689453125 1594.25195312 c 0,4,5
 747 1594.79980469 747 1594.79980469 747.626953125 1695.16894531 c 0,6,7
 747.900390625 1733.40039062 747.900390625 1733.40039062 731.092773438 1812.90917969 c 1,8,-1
 819.168945312 1826.859375 l 1,9,10
 837 1764.90039062 837 1764.90039062 836.52734375 1705.04003906 c 0,11,12
 837 1503 837 1503 690.397460938 1501.66601562 c 4,13,14
 626.400390625 1501.20019531 626.400390625 1501.20019531 583.87890625 1555.26660156 c 1,15,16
 553.5 1438.20019531 553.5 1438.20019531 431.985351562 1437.88964844 c 0,17,18
 297 1438.20019531 297 1438.20019531 294.302734375 1606.5 c 0,19,20
 293.400390625 1665.90039062 293.400390625 1665.90039062 307.078125 1715.74121094 c 1,21,-1
 385.392578125 1702.72070312 l 1,22,23
 375.299804688 1656 375.299804688 1656 375.577148438 1619.63378906 c 0,24,25
 376.200195312 1536.29980469 376.200195312 1536.29980469 443.658203125 1535.90234375 c 0,26,27
 525.599609375 1535.40039062 525.599609375 1535.40039062 529.950195312 1649.21582031 c 0,28,29
 531.900390625 1700.09960938 531.900390625 1700.09960938 531.095703125 1768.46289062 c 1,30,-1
 608.421875 1768.46289062 l 1,0,1
EndSplineSet
EndChar

StartChar: uni0652
Encoding: 1618 1618 53
GlifName: uni0652
Width: -26
VWidth: 2316
GlyphClass: 4
Flags: W
AnchorPoint: "Anchor-10" 603.219 1222.43 mark 0
AnchorPoint: "Anchor-9" 603.219 1222.43 mark 0
AnchorPoint: "Anchor-1" 577.537 1799.66 basemark 0
AnchorPoint: "Anchor-1" 603.219 1222.43 mark 0
LayerCount: 2
Fore
SplineSet
398.139648438 1461.671875 m 128,-1,1
 398.139648438 1543.57226562 398.139648438 1543.57226562 454.838867188 1600.27246094 c 128,-1,2
 511.5390625 1656.97167969 511.5390625 1656.97167969 593.439453125 1656.97167969 c 128,-1,3
 675.338867188 1656.97167969 675.338867188 1656.97167969 732.0390625 1600.27246094 c 128,-1,4
 788.739257812 1543.57226562 788.739257812 1543.57226562 788.739257812 1461.671875 c 128,-1,5
 788.739257812 1379.77246094 788.739257812 1379.77246094 732.0390625 1323.07226562 c 128,-1,6
 675.338867188 1266.37207031 675.338867188 1266.37207031 593.439453125 1266.37207031 c 128,-1,7
 511.5390625 1266.37207031 511.5390625 1266.37207031 454.838867188 1323.07226562 c 128,-1,0
 398.139648438 1379.77246094 398.139648438 1379.77246094 398.139648438 1461.671875 c 128,-1,1
484.5390625 1460.77246094 m 0,8,9
 484.200195312 1413.90039062 484.200195312 1413.90039062 516.939453125 1381.57226562 c 0,10,11
 549 1349.09960938 549 1349.09960938 596.139648438 1349.171875 c 0,12,13
 642.599609375 1349.09960938 642.599609375 1349.09960938 675.338867188 1381.57226562 c 0,14,15
 707.400390625 1413.90039062 707.400390625 1413.90039062 707.739257812 1460.77246094 c 0,16,17
 707.400390625 1507.5 707.400390625 1507.5 675.338867188 1539.97167969 c 0,18,19
 642.599609375 1572.29980469 642.599609375 1572.29980469 596.139648438 1572.37207031 c 0,20,21
 549 1572.29980469 549 1572.29980469 516.939453125 1539.97167969 c 0,22,23
 484.200195312 1507.5 484.200195312 1507.5 484.5390625 1460.77246094 c 0,8,9
EndSplineSet
EndChar

StartChar: uni0653
Encoding: 1619 1619 54
GlifName: uni0653
Width: -30
VWidth: 2673
GlyphClass: 4
Flags: W
AnchorPoint: "Anchor-10" 461.017 1539.11 mark 0
AnchorPoint: "Anchor-9" 461.017 1539.11 mark 0
AnchorPoint: "Anchor-1" 461.017 1975.25 basemark 0
AnchorPoint: "Anchor-1" 461.017 1539.11 mark 0
LayerCount: 2
Fore
SplineSet
400.348632812 1636.8046875 m 6,0,1
 289.097070302 1652.11547185 289.097070302 1652.11547185 197.061523438 1542.6328125 c 5,2,-1
 95.6953125 1649.29980469 l 5,3,4
 214.313143403 1819.44918336 214.313143403 1819.44918336 383.756835938 1792.15820312 c 6,5,-1
 532.506835938 1768.20019531 l 2,6,7
 630 1752 630 1752 752.004882812 1813.74121094 c 1,8,-1
 817.659179688 1677.28320312 l 1,9,10
 689.104504566 1597.06521075 689.104504566 1597.06521075 540.869140625 1617.46582031 c 2,11,-1
 400.348632812 1636.8046875 l 6,0,1
EndSplineSet
EndChar

StartChar: uni0657
Encoding: 1623 1623 57
GlifName: uni0657
Width: -26
VWidth: 2316
GlyphClass: 4
Flags: W
AnchorPoint: "Anchor-10" 513.285 1370.55 mark 0
AnchorPoint: "Anchor-9" 513.285 1370.55 mark 0
AnchorPoint: "Anchor-1" 573.285 2089.85 basemark 0
AnchorPoint: "Anchor-1" 513.285 1370.55 mark 0
LayerCount: 2
Fore
SplineSet
264.529296875 1804.66113281 m 1,0,1
 324 1803 324 1803 394.52734375 1795.6015625 c 1,2,-1
 395.744140625 1797.33398438 l 2,3,4
 545 2010 545 2010 784.673828125 2032.71289062 c 1,5,-1
 784.673828125 1954.59179688 l 1,6,7
 600 1925 600 1925 486.279296875 1778.19140625 c 1,8,9
 548 1760 548 1760 591.110351562 1728.47753906 c 0,10,11
 658 1678 658 1678 657.9765625 1598.87109375 c 0,12,13
 658 1529 658 1529 613.258789062 1482.93261719 c 0,14,15
 570 1438 570 1438 501.358398438 1438.01367188 c 0,16,17
 427 1438 427 1438 373.69921875 1490.15820312 c 0,18,19
 332 1532 332 1532 331.635742188 1603.27929688 c 0,20,21
 332 1647 332 1647 355.373046875 1722.42480469 c 1,22,23
 315 1726 315 1726 264.529296875 1726.37695312 c 1,24,-1
 264.529296875 1804.66113281 l 1,0,1
501.342773438 1516.40234375 m 0,25,26
 542 1517 542 1517 561.741210938 1544 c 0,27,28
 577 1566 577 1566 577.313476562 1596.63378906 c 0,29,30
 577 1656 577 1656 499 1689 c 0,31,32
 468 1702 468 1702 437.249023438 1708.89453125 c 1,33,34
 410 1645 410 1645 410.0234375 1604.96484375 c 0,35,36
 410 1584 410 1584 416.790039062 1568.4453125 c 0,37,38
 427 1545 427 1545 452 1530.51660156 c 128,-1,39
 477 1516 477 1516 501.342773438 1516.40234375 c 0,25,26
EndSplineSet
EndChar

StartChar: uni065A
Encoding: 1626 1626 58
GlifName: uni065A_
Width: 1135
VWidth: 2316
GlyphClass: 4
Flags: W
AnchorPoint: "Anchor-10" 573.285 1350.55 mark 0
AnchorPoint: "Anchor-9" 573.285 1350.55 mark 0
AnchorPoint: "Anchor-1" 571.012 1862.38 basemark 0
AnchorPoint: "Anchor-1" 573.285 1350.55 mark 0
LayerCount: 2
Fore
SplineSet
502.3671875 1444.42578125 m 1,0,-1
 308.524414062 1768.49023438 l 1,1,-1
 412.922851562 1768.49023438 l 1,2,-1
 573.28515625 1527.93945312 l 1,3,-1
 733.6484375 1768.49023438 l 1,4,-1
 838.047851562 1768.49023438 l 1,5,-1
 644.202148438 1444.42578125 l 1,6,-1
 502.3671875 1444.42578125 l 1,0,-1
EndSplineSet
EndChar

StartChar: afii57392
Encoding: 1632 1632 59
GlifName: afii57392
Width: 1077
VWidth: 2952
GlyphClass: 2
Flags: W
LayerCount: 2
Fore
SplineSet
399.290039062 553.262695312 m 132,-1,1
 399.290039062 493.686523438 399.290039062 493.686523438 440.400390625 452.579101562 c 4,2,3
 460.923828125 432.0546875 460.923828125 432.0546875 486.515625 421.638671875 c 132,-1,4
 512.106445312 411.22265625 512.106445312 411.22265625 542.592773438 410.966796875 c 4,5,6
 602.68359375 411.48046875 602.68359375 411.48046875 643.782226562 452.579101562 c 4,7,8
 664.297851562 473.094726562 664.297851562 473.094726562 674.594726562 498.3203125 c 132,-1,9
 684.890625 523.545898438 684.890625 523.545898438 684.890625 553.262695312 c 132,-1,10
 684.890625 582.98046875 684.890625 582.98046875 674.594726562 608.20703125 c 132,-1,11
 664.298828125 633.432617188 664.298828125 633.432617188 643.782226562 653.94921875 c 4,12,13
 602.68359375 695.046875 602.68359375 695.046875 541.587890625 695.560546875 c 4,14,15
 511.594726562 695.3046875 511.594726562 695.3046875 486.258789062 684.887695312 c 132,-1,16
 460.922851562 674.470703125 460.922851562 674.470703125 440.400390625 653.94921875 c 4,17,0
 399.290039062 612.83984375 399.290039062 612.83984375 399.290039062 553.262695312 c 132,-1,1
313.629882812 777.463867188 m 4,18,19
 336.936523438 800.76953125 336.936523438 800.76953125 362.502929688 818.217773438 c 132,-1,20
 388.0703125 835.666992188 388.0703125 835.666992188 415.919921875 847.284179688 c 4,21,22
 471.620117188 870.51953125 471.620117188 870.51953125 536.678710938 870.51953125 c 4,23,24
 580.053710938 870.51953125 580.053710938 870.51953125 619.258789062 860.193359375 c 132,-1,25
 658.46484375 849.8671875 658.46484375 849.8671875 693.568359375 829.192382812 c 132,-1,26
 728.672851562 808.518554688 728.672851562 808.518554688 759.727539062 777.463867188 c 4,27,28
 806.303710938 730.887695312 806.303710938 730.887695312 829.543945312 675.178710938 c 132,-1,29
 852.784179688 619.469726562 852.784179688 619.469726562 852.784179688 554.4140625 c 4,30,31
 852.784179688 424.420898438 852.784179688 424.420898438 759.727539062 331.364257812 c 4,32,33
 736.422851562 308.059570312 736.422851562 308.059570312 710.858398438 290.65234375 c 132,-1,34
 685.29296875 273.244140625 685.29296875 273.244140625 657.446289062 261.705078125 c 132,-1,35
 629.586914062 250.16015625 629.586914062 250.16015625 599.411132812 244.466796875 c 132,-1,36
 569.235351562 238.774414062 569.235351562 238.774414062 536.625 238.923828125 c 4,37,38
 471.583007812 238.625 471.583007812 238.625 415.895507812 261.70703125 c 4,39,40
 397.336914062 269.399414062 397.336914062 269.399414062 379.796875 279.6953125 c 132,-1,41
 362.256835938 289.991210938 362.256835938 289.991210938 345.711914062 302.909179688 c 132,-1,42
 329.166992188 315.827148438 329.166992188 315.827148438 313.629882812 331.364257812 c 4,43,44
 267.055664062 377.939453125 267.055664062 377.939453125 243.81640625 433.6484375 c 132,-1,45
 220.577148438 489.357421875 220.577148438 489.357421875 220.577148438 554.415039062 c 132,-1,46
 220.577148438 619.475585938 220.577148438 619.475585938 243.811523438 675.17578125 c 132,-1,47
 267.049804688 730.883789062 267.049804688 730.883789062 313.629882812 777.463867188 c 4,18,19
EndSplineSet
EndChar

StartChar: afii57393
Encoding: 1633 1633 60
GlifName: afii57393
Width: 756
VWidth: 2952
GlyphClass: 2
Flags: W
LayerCount: 2
Fore
SplineSet
309.71875 1396.01269531 m 5,0,1
 514.115234375 947.747277526 514.115234375 947.747277526 514.115234375 308.771484375 c 2,2,-1
 514.115234375 11.5537109375 l 1,3,-1
 334.796875 11.5537109375 l 1,4,-1
 334.791992188 311.91796875 l 2,5,6
 335 953 335 953 144.876953125 1337.90820312 c 5,7,-1
 309.71875 1396.01269531 l 5,0,1
EndSplineSet
EndChar

StartChar: afii57394
Encoding: 1634 1634 61
GlifName: afii57394
Width: 1217
VWidth: 2952
GlyphClass: 2
Flags: W
LayerCount: 2
Fore
SplineSet
411.250976562 1114.26855469 m 5,0,1
 472 942 472 942 685.032226562 941.76953125 c 4,2,3
 813 942 813 942 861.30078125 1036 c 4,4,5
 916 1142 916 1142 915.948242188 1384.54394531 c 5,6,-1
 1095.69335938 1383.99023438 l 5,7,8
 1095 1309 1095 1309 1090.75585938 1243.66308594 c 4,9,10
 1072 988 1072 988 982.732421875 876.075195312 c 4,11,12
 885 754 885 754 689.243164062 754.568359375 c 4,13,14
 554 755 554 755 480.4296875 801.508789062 c 5,15,-1
 481.266601562 795.135742188 l 6,16,17
 514.115234375 544.119424279 514.115234375 544.119424279 514.115234375 308.771484375 c 2,18,-1
 514.115234375 11.5537109375 l 1,19,-1
 334.796875 11.5537109375 l 1,20,-1
 334.791992188 311.91796875 l 2,21,22
 335 953 335 953 144.876953125 1337.90820312 c 5,23,-1
 309.497070312 1395.9375 l 5,24,-1
 411.250976562 1114.26855469 l 5,0,1
EndSplineSet
EndChar

StartChar: afii57395
Encoding: 1635 1635 62
GlifName: afii57395
Width: 1492
VWidth: 2952
GlyphClass: 2
Flags: W
LayerCount: 2
Fore
SplineSet
481.0859375 796.447265625 m 6,0,1
 514.115234375 547.284511529 514.115234375 547.284511529 514.115234375 308.771484375 c 2,2,-1
 514.115234375 11.5537109375 l 1,3,-1
 334.796875 11.5537109375 l 1,4,-1
 334.791992188 311.916992188 l 2,5,6
 335 953 335 953 144.876953125 1337.90820312 c 5,7,-1
 309.466796875 1395.92675781 l 5,8,-1
 419.159179688 1081.63671875 l 6,9,10
 462 959 462 959 610.522460938 957.631835938 c 4,11,12
 770.313712353 956.998757099 770.313712353 956.998757099 764.365234375 1214.56054688 c 6,13,-1
 761.662109375 1331.60253906 l 5,14,-1
 920.317382812 1336.65332031 l 5,15,-1
 924.010742188 1192.3984375 l 6,16,17
 930 952 930 952 1080.54199219 950.891601562 c 4,18,19
 1149 950 1149 950 1177.61523438 1010.83007812 c 4,20,21
 1196 1052 1196 1052 1201.2890625 1107.03515625 c 4,22,23
 1209.37340257 1206.5986778 1209.37340257 1206.5986778 1209.51855469 1268.29785156 c 6,24,-1
 1209.83105469 1401.13085938 l 5,25,-1
 1386.63378906 1401.29394531 l 5,26,-1
 1386.0546875 1270.61523438 l 6,27,28
 1386 1206 1386 1206 1378.70898438 1123.52148438 c 4,29,30
 1350 766 1350 766 1086.67382812 767.768554688 c 4,31,32
 936.561714736 769.003606003 936.561714736 769.003606003 839.801757812 881.188476562 c 6,33,-1
 837.467773438 883.89453125 l 5,34,-1
 835.20703125 881.125976562 l 6,35,36
 742 767 742 767 623.100585938 766.943359375 c 4,37,38
 524.763473528 767.000136564 524.763473528 767.000136564 485.973632812 799.150390625 c 6,39,-1
 480.080078125 804.03515625 l 5,40,-1
 481.0859375 796.447265625 l 6,0,1
EndSplineSet
EndChar

StartChar: afii57396
Encoding: 1636 1636 63
GlifName: afii57396
Width: 1056
VWidth: 2952
GlyphClass: 2
Flags: W
LayerCount: 2
Fore
SplineSet
139.309570312 311.82421875 m 0,0,1
 131 560 131 560 501.677734375 752.083007812 c 1,2,3
 221 853 221 853 221.663085938 1039.95703125 c 4,4,5
 222 1151 222 1151 269.499023438 1219.296875 c 4,6,7
 411 1426 411 1426 820.08203125 1377.38085938 c 5,8,-1
 807.461914062 1195.27636719 l 5,9,10
 757 1201 757 1201 714 1201.45898438 c 4,11,12
 432 1202 432 1202 430.830078125 1042.08496094 c 4,13,14
 430 901 430 901 787.768554688 871.708984375 c 1,15,-1
 790.048828125 688.10546875 l 1,16,17
 326 501 326 501 335.516601562 350.264648438 c 0,18,19
 346.022652892 193.662337911 346.022652892 193.662337911 723.831054688 196.053710938 c 2,20,-1
 917.767578125 197.28125 l 1,21,-1
 919.984375 0.01953125 l 1,22,-1
 717.081054688 0.46875 l 2,23,24
 149 2 149 2 139.309570312 311.82421875 c 0,0,1
EndSplineSet
EndChar

StartChar: afii57397
Encoding: 1637 1637 64
GlifName: afii57397
Width: 1257
VWidth: 2952
GlyphClass: 2
Flags: W
LayerCount: 2
Fore
SplineSet
600.591796875 1050.64550781 m 5,0,1
 310 740 310 740 309.721679688 493.224609375 c 0,2,3
 310 348 310 348 416.696289062 264.071289062 c 0,4,5
 505 195 505 195 654.083496094 195.291015625 c 0,6,7
 804 195 804 195 885.265625 291.330078125 c 0,8,9
 947 364 947 364 946.259765625 500.30859375 c 0,10,11
 946 788 946 788 600.591796875 1050.64550781 c 5,0,1
397.208984375 1210.90136719 m 5,12,-1
 501.911132812 1379.72949219 l 5,13,14
 1136 973 1136 973 1136.70605469 477.263671875 c 0,15,16
 1137 205 1137 205 941.158203125 83.97265625 c 0,17,18
 817 7 817 7 640.247070313 8.38818359375 c 0,19,20
 463 9 463 9 335.077148438 80.3515625 c 0,21,22
 116 201 116 201 118.62890625 475.9453125 c 0,23,24
 122 803 122 803 451.9921875 1168.9296875 c 5,25,-1
 397.208984375 1210.90136719 l 5,12,-1
EndSplineSet
EndChar

StartChar: afii57398
Encoding: 1638 1638 65
GlifName: afii57398
Width: 1305
VWidth: 2952
GlyphClass: 2
Flags: W
LayerCount: 2
Fore
SplineSet
837.682617188 1146.31835938 m 6,0,1
 672.302397223 1101.00157469 672.302397223 1101.00157469 494.029296875 1100.07324219 c 4,2,3
 266 1100 266 1100 81.41796875 1183.32128906 c 5,4,-1
 81.41796875 1393.89746094 l 5,5,6
 279 1302 279 1302 509.7890625 1301.84277344 c 4,7,8
 574 1302 574 1302 636.537109375 1307.67578125 c 4,9,10
 700 1314 700 1314 761.530273438 1325.32519531 c 4,11,12
 824 1337 824 1337 884.536132812 1354.69824219 c 4,13,14
 946 1372 946 1372 1005.52734375 1395.73535156 c 5,15,16
 1017 498 1017 498 1163.07519531 11.5537109375 c 1,17,-1
 974.34765625 11.5537109375 l 1,18,19
 853.097835751 505.601355925 853.097835751 505.601355925 841.473632812 1143.47949219 c 6,20,-1
 841.403320312 1147.33789062 l 5,21,-1
 837.682617188 1146.31835938 l 6,0,1
EndSplineSet
EndChar

StartChar: afii57399
Encoding: 1639 1639 66
GlifName: afii57399
Width: 1301
VWidth: 2952
GlyphClass: 2
Flags: W
LayerCount: 2
Fore
SplineSet
1202.60644531 1310.14648438 m 5,0,1
 870 659 870 659 734.271484375 11.5537109375 c 1,2,-1
 566.603515625 11.5537109375 l 1,3,4
 426 652 426 652 98.2646484375 1310.1328125 c 5,5,-1
 266.727539062 1395.70214844 l 5,6,7
 545 798 545 798 650.446289062 327.130859375 c 1,8,9
 756 800 756 800 1034.1640625 1395.703125 c 5,10,-1
 1202.60644531 1310.14648438 l 5,0,1
EndSplineSet
EndChar

StartChar: afii57400
Encoding: 1640 1640 67
GlifName: afii57400
Width: 1301
VWidth: 2952
GlyphClass: 2
Flags: W
LayerCount: 2
Fore
SplineSet
266.729492188 -8.0693359375 m 1,0,-1
 98.2646484375 77.5009765625 l 1,1,2
 426 736 426 736 566.603515625 1376.08105469 c 5,3,-1
 734.283203125 1376.08105469 l 5,4,5
 873 737 873 737 1202.62109375 77.49609375 c 1,6,-1
 1034.1640625 -8.0693359375 l 1,7,8
 756 590 756 590 650.452148438 1060.47558594 c 5,9,10
 545 587 545 587 266.729492188 -8.0693359375 c 1,0,-1
EndSplineSet
EndChar

StartChar: afii57401
Encoding: 1641 1641 68
GlifName: afii57401
Width: 1179
VWidth: 2952
GlyphClass: 2
Flags: W
LayerCount: 2
Fore
SplineSet
509.53125 595.165039062 m 6,0,1
 111.999974741 595.165039062 111.999974741 595.165039062 111.946289062 945.935546875 c 4,2,3
 112 1091 112 1091 182.5 1204.5 c 4,4,5
 304 1400 304 1400 515.064453125 1400.31542969 c 4,6,7
 922 1400 922 1400 948.947265625 901.424804688 c 4,8,9
 971 476 971 476 981.782226562 11.5537109375 c 1,10,-1
 809.748046875 11.5537109375 l 1,11,-1
 796.065429688 662.900390625 l 5,12,13
 660.330721381 595.165039062 660.330721381 595.165039062 510.260742188 595.165039062 c 6,14,-1
 509.53125 595.165039062 l 6,0,1
512.727539062 784.890625 m 4,15,16
 649 785 649 785 778.341796875 849.395507812 c 5,17,-1
 776.405273438 872.450195312 l 6,18,19
 748 1209 748 1209 523.736328125 1208.7265625 c 4,20,21
 411 1209 411 1209 345.901367188 1120.36914062 c 4,22,23
 287 1040 287 1040 287.008789062 955.302734375 c 4,24,25
 287 785 287 785 512.727539062 784.890625 c 4,15,16
EndSplineSet
EndChar

StartChar: afii57381
Encoding: 1642 1642 69
GlifName: afii57381
Width: 1288
VWidth: 4038
GlyphClass: 2
Flags: W
LayerCount: 2
Fore
SplineSet
749.512695312 345.344726562 m 128,-1,1
 749.512695312 415.227539062 749.512695312 415.227539062 799.518554688 464.306640625 c 0,2,3
 848.588867188 513.376953125 848.588867188 513.376953125 918.5 513.83984375 c 0,4,5
 953.512695312 514.071289062 953.512695312 514.071289062 983.178710938 501.719726562 c 128,-1,6
 1012.84472656 489.368164062 1012.84472656 489.368164062 1037.44238281 464.306640625 c 0,7,8
 1062.01660156 439.731445312 1062.01660156 439.731445312 1074.25976562 410.045898438 c 128,-1,9
 1086.50390625 380.360351562 1086.50390625 380.360351562 1086.50390625 345.344726562 c 0,10,11
 1086.50390625 275.443359375 1086.50390625 275.443359375 1037.44238281 226.380859375 c 128,-1,12
 988.379882812 177.318359375 988.379882812 177.318359375 918.48046875 177.318359375 c 128,-1,13
 848.580078125 177.318359375 848.580078125 177.318359375 799.499023438 226.400390625 c 0,14,0
 749.512695312 275.459960938 749.512695312 275.459960938 749.512695312 345.344726562 c 128,-1,1
200.96875 1199.37011719 m 0,15,16
 201 1269 201 1269 250.965820312 1318.32324219 c 0,17,18
 300 1367 300 1367 369.958007812 1367.86523438 c 0,19,20
 440 1368 440 1368 488.895507812 1318.33496094 c 0,21,22
 538 1269 538 1269 537.959960938 1199.37011719 c 0,23,24
 538 1129 538 1129 488.888671875 1080.3984375 c 0,25,26
 464 1056 464 1056 434.78125 1043.51464844 c 0,27,28
 405 1031 405 1031 369.9296875 1031.34472656 c 0,29,30
 300 1031 300 1031 250.963867188 1080.41894531 c 0,31,32
 201 1129 201 1129 200.96875 1199.37011719 c 0,15,16
872.728515625 1406.96582031 m 5,33,-1
 1026 1328 l 5,34,-1
 354.951171875 33.673828125 l 5,35,-1
 202.111328125 117.6640625 l 5,36,-1
 872.728515625 1406.96582031 l 5,33,-1
EndSplineSet
EndChar

StartChar: uni066B
Encoding: 1643 1643 70
GlifName: uni066B_
Width: 822
VWidth: 2952
GlyphClass: 2
Flags: W
LayerCount: 2
Fore
SplineSet
532.755859375 818.005859375 m 1,0,-1
 664.05859375 762.266601562 l 1,1,-1
 199.7890625 -309.061523438 l 1,2,-1
 66.3642578125 -250.9921875 l 1,3,-1
 532.755859375 818.005859375 l 1,0,-1
EndSplineSet
EndChar

StartChar: uni066C
Encoding: 1644 1644 71
GlifName: uni066C_
Width: 588
VWidth: 2842
GlyphClass: 2
Flags: W
LayerCount: 2
Fore
SplineSet
127.02734375 150.623046875 m 0,0,1
 127.514648438 199.213867188 127.514648438 199.213867188 145.67578125 231.4453125 c 128,-1,2
 163.8359375 263.676757812 163.8359375 263.676757812 199.989257812 279.850585938 c 128,-1,3
 236.142578125 296.024414062 236.142578125 296.024414062 290.584960938 296.182617188 c 0,4,5
 436.666015625 296.829101562 436.666015625 296.829101562 463.669921875 167.809570312 c 0,6,7
 478.244140625 96.7724609375 478.244140625 96.7724609375 451.774414062 -9.224609375 c 0,8,9
 393.353515625 -232.500976562 393.353515625 -232.500976562 188.64453125 -401.0546875 c 1,10,-1
 137.49609375 -368.359375 l 1,11,12
 310.2109375 -193.501953125 310.2109375 -193.501953125 323.518554688 -10.2431640625 c 2,13,-1
 324.041015625 -3.078125 l 1,14,-1
 324.28125 0.2177734375 l 1,15,-1
 320.977539062 0.138671875 l 1,16,-1
 313.798828125 -0.0322265625 l 2,17,18
 266.21484375 -1.1533203125 266.21484375 -1.1533203125 246.815429688 3.404296875 c 0,19,20
 126.26953125 27.7294921875 126.26953125 27.7294921875 127.02734375 150.623046875 c 0,0,1
EndSplineSet
EndChar

StartChar: afii63167
Encoding: 1645 1645 72
GlifName: afii63167
Width: 1584
VWidth: 2952
GlyphClass: 2
Flags: W
LayerCount: 2
Fore
SplineSet
232.590820312 1038.65136719 m 1,0,-1
 662.741210938 1038.65136719 l 1,1,-1
 664.913085938 1038.65136719 l 1,2,-1
 665.591796875 1040.71484375 l 1,3,-1
 799.995117188 1449.92871094 l 1,4,-1
 934.400390625 1040.71484375 l 1,5,-1
 935.079101562 1038.65136719 l 1,6,-1
 937.250976562 1038.65136719 l 1,7,-1
 1367.40136719 1038.65136719 l 1,8,-1
 1019.86132812 784.586914062 l 1,9,-1
 1018.10644531 783.303710938 l 1,10,-1
 1018.77929688 781.236328125 l 1,11,-1
 1151.70117188 372.89453125 l 1,12,-1
 801.751953125 625.767578125 l 1,13,-1
 799.995117188 627.037109375 l 1,14,-1
 798.23828125 625.767578125 l 1,15,-1
 448.291992188 372.89453125 l 1,16,-1
 581.211914062 781.236328125 l 1,17,-1
 581.884765625 783.303710938 l 1,18,-1
 580.129882812 784.586914062 l 1,19,-1
 232.590820312 1038.65136719 l 1,0,-1
EndSplineSet
EndChar

StartChar: uni066E
Encoding: 1646 1646 73
GlifName: uni066E_
Width: 1837
VWidth: 2952
GlyphClass: 2
Flags: W
AnchorPoint: "Anchor-10" 1007.36 1415.35 basechar 0
AnchorPoint: "Anchor-7" 957.36 -257.261 basechar 0
LayerCount: 2
Fore
SplineSet
890.911132812 0 m 2,0,1
 100 0 100 0 100.16015625 485.872070312 c 0,2,3
 100 621 100 621 154.662109375 742.786132812 c 1,4,-1
 312.43359375 674.241210938 l 1,5,6
 279 591 279 591 279.424804688 514.521484375 c 0,7,8
 279 184 279 184 871.8671875 184.13671875 c 0,9,10
 1373 184 1373 184 1503.51171875 280.05859375 c 4,11,12
 1568 327 1568 327 1568.37988281 445.411132812 c 4,13,14
 1568 535 1568 535 1531.80859375 690.631835938 c 5,15,-1
 1694.89355469 731.666992188 l 1,16,17
 1745 581 1745 581 1744.90625 459.708984375 c 0,18,19
 1745 223 1745 223 1606.80957031 126.338867188 c 0,20,21
 1426 0 1426 0 894.356445312 0 c 2,22,-1
 890.911132812 0 l 2,0,1
EndSplineSet
Substitution2: "'init' Initial Forms in Arabic lookup 13 subtable" uni066E.init
Substitution2: "'medi' Medial Forms in Arabic lookup 11 subtable" uni066E.medi
Substitution2: "'fina' Terminal Forms in Arabic lookup 9 subtable" uni066E.fina
EndChar

StartChar: uni066F
Encoding: 1647 1647 74
GlifName: uni066F_
Width: 1511
VWidth: 2952
GlyphClass: 2
Flags: W
AnchorPoint: "Anchor-10" 121.809 1362.22 basechar 0
AnchorPoint: "Anchor-7" 335.219 -761.353 basechar 0
LayerCount: 2
Fore
SplineSet
1396.51464844 20.3056640625 m 0,0,1
 1321 -460 1321 -460 736.876953125 -460.060546875 c 0,2,3
 528 -460 528 -460 388.594726562 -398.135742188 c 0,4,5
 245 -334 245 -334 173.5 -205.5 c 128,-1,6
 102 -77 102 -77 100.958007812 112.7734375 c 0,7,8
 100 343 100 343 201.00390625 559.198242188 c 1,9,-1
 359.73046875 493.775390625 l 1,10,11
 317 387 317 387 296.705078125 294.583007812 c 0,12,13
 276 202 276 202 276.459960938 120.75 c 0,14,15
 279 -284 279 -284 736.3125 -283.326171875 c 0,16,17
 1210.22460938 -281.999023438 1210.22460938 -281.999023438 1242.33105469 103.192382812 c 2,18,-1
 1242.69921875 107.609375 l 1,19,20
 1151 80 1151 80 1043.7421875 79.318359375 c 0,21,22
 719 77 719 77 715.424804688 350.680664062 c 0,23,24
 715 394 715 394 723.0546875 433.5 c 0,25,26
 756 595 756 595 836.436523438 677.548828125 c 0,27,28
 919 763 919 763 1043.87988281 763.43359375 c 0,29,30
 1128 764 1128 764 1190.91992188 722.67578125 c 0,31,32
 1362 613 1362 613 1398.76367188 294.728515625 c 0,33,34
 1416 147 1416 147 1396.51464844 20.3056640625 c 0,0,1
879.453125 377.807617188 m 0,35,36
 880.005859375 251.626953125 880.005859375 251.626953125 1056.68359375 253.233398438 c 0,37,38
 1141 254 1141 254 1227.125 279.477539062 c 1,39,40
 1213 396 1213 396 1176.06738281 475.334960938 c 0,41,42
 1127 584 1127 584 1037.39257812 583.857421875 c 0,43,44
 933 584 933 584 891.516601562 449.213867188 c 0,45,46
 880 412 880 412 879.453125 377.807617188 c 0,35,36
EndSplineSet
Substitution2: "'init' Initial Forms in Arabic lookup 13 subtable" uni066F.init
Substitution2: "'medi' Medial Forms in Arabic lookup 11 subtable" uni066F.medi
Substitution2: "'fina' Terminal Forms in Arabic lookup 9 subtable" uni066F.fina
EndChar

StartChar: uni0670
Encoding: 1648 1648 75
GlifName: uni0670
Width: -29
VWidth: 2574
GlyphClass: 4
Flags: W
AnchorPoint: "Anchor-10" 636.984 1500.61 mark 0
AnchorPoint: "Anchor-9" 636.984 1500.61 mark 0
AnchorPoint: "Anchor-1" 636.984 1997.18 basemark 0
AnchorPoint: "Anchor-1" 636.984 1500.61 mark 0
LayerCount: 2
Fore
SplineSet
593.435546875 1568.26757812 m 1,0,-1
 593.435546875 1969.51660156 l 5,1,-1
 680.533203125 1969.51660156 l 5,2,-1
 680.533203125 1568.26757812 l 1,3,-1
 593.435546875 1568.26757812 l 1,0,-1
EndSplineSet
EndChar

StartChar: uni0674
Encoding: 1652 1652 76
GlifName: uni0674
Width: 551
VWidth: 2537
GlyphClass: 2
Flags: W
LayerCount: 2
Fore
SplineSet
174.625976562 1970.5 m 1,0,1
 101 2027 101 2027 100.783203125 2130.51855469 c 0,2,3
 101 2219 101 2219 159.6953125 2281 c 0,4,5
 229 2354 229 2354 337.013671875 2354.015625 c 0,6,7
 412 2354 412 2354 477.86328125 2311.47949219 c 1,8,-1
 478.565429688 2179.95410156 l 1,9,10
 416 2221 416 2221 351 2221.26171875 c 0,11,12
 288 2221 288 2221 254 2186.9296875 c 0,13,14
 226 2158 226 2158 226.4921875 2118 c 0,15,16
 228 2058 228 2058 320.916015625 2023.80957031 c 0,17,18
 334 2019 334 2019 345 2021.29394531 c 0,19,20
 415 2035 415 2035 484.747070312 2048.54394531 c 1,21,-1
 484.747070312 1923.015625 l 5,22,-1
 78.2861328125 1825.02734375 l 5,23,-1
 78.2861328125 1948.27050781 l 1,24,-1
 174.625976562 1970.5 l 1,0,1
EndSplineSet
EndChar

StartChar: uni06A1
Encoding: 1697 1697 80
GlifName: uni06A_1
Width: 1851
VWidth: 2952
GlyphClass: 2
Flags: W
AnchorPoint: "Anchor-10" 670.853 1630.62 basechar 0
AnchorPoint: "Anchor-7" 653.182 -352.248 basechar 0
LayerCount: 2
Fore
SplineSet
1747.55957031 473.327148438 m 0,0,1
 1746 190 1746 190 1612.16210938 89.5859375 c 0,2,3
 1492 0 1492 0 1190.20996094 0 c 2,4,-1
 859.911132812 0 l 2,5,6
 99 0 99 0 99.16015625 485.872070312 c 0,7,8
 99 621 99 621 153.662109375 742.786132812 c 1,9,-1
 311.43359375 674.241210938 l 1,10,11
 278 589 278 589 278.43359375 511.274414062 c 0,12,13
 278.000540991 184.408337139 278.000540991 184.408337139 846.149414062 184.159179688 c 2,14,-1
 1211.35058594 183.999023438 l 6,15,16
 1589 184 1589 184 1590.921875 381.131835938 c 0,17,18
 1591 390 1591 390 1590.10449219 399.060546875 c 1,19,20
 1498 371 1498 371 1391.14746094 370.76953125 c 4,21,22
 1068 371 1068 371 1062.83007812 642.131835938 c 4,23,24
 1062 685 1062 685 1070.45996094 724.951171875 c 4,25,26
 1100 883 1100 883 1183.84179688 969 c 4,27,28
 1267 1055 1267 1055 1391.28515625 1054.88476562 c 0,29,30
 1475 1055 1475 1055 1538.32519531 1014.12695312 c 0,31,32
 1707 905 1707 905 1740.16894531 596.1796875 c 0,33,34
 1747 531 1747 531 1747.55957031 473.327148438 c 0,0,1
1226.85839844 669.258789062 m 4,35,36
 1227 544 1227 544 1404.08886719 544.684570312 c 0,37,38
 1488 545 1488 545 1574.53027344 570.928710938 c 1,39,40
 1560 687 1560 687 1523.47265625 766.786132812 c 0,41,42
 1474 875 1474 875 1384.79785156 875.30859375 c 0,43,44
 1281.44341021 875.004250348 1281.44341021 875.004250348 1238.921875 740.665039062 c 4,45,46
 1227 703 1227 703 1226.85839844 669.258789062 c 4,35,36
EndSplineSet
Substitution2: "'init' Initial Forms in Arabic lookup 13 subtable" uni06A1.init
Substitution2: "'medi' Medial Forms in Arabic lookup 11 subtable" uni06A1.medi
Substitution2: "'fina' Terminal Forms in Arabic lookup 9 subtable" uni06A1.fina
EndChar

StartChar: uni06A9
Encoding: 1705 1705 81
GlifName: uni06A_9
Width: 1878
VWidth: 2952
GlyphClass: 2
Flags: W
AnchorPoint: "Anchor-7" 750.268 -236.468 basechar 0
AnchorPoint: "Anchor-10" 1125.88 1435.07 basechar 0
LayerCount: 2
Fore
SplineSet
1529.2578125 659.663085938 m 0,0,1
 1659 519 1659 519 1656.70996094 350.357421875 c 0,2,3
 1650 0 1650 0 1044.10449219 0 c 2,4,-1
 862.553710938 0 l 2,5,6
 99 0 99 0 99.16015625 485.872070312 c 0,7,8
 99 621 99 621 153.662109375 742.786132812 c 1,9,-1
 311.43359375 674.241210938 l 1,10,11
 278 589 278 589 278.43359375 511.274414062 c 0,12,13
 280.000032718 183.993164062 280.000032718 183.993164062 862.553710938 183.993164062 c 2,14,-1
 1043.27441406 183.993164062 l 2,15,16
 1478 184 1478 184 1477.21679688 375.118164062 c 0,17,18
 1477 473 1477 473 1373.66210938 570.141601562 c 0,19,20
 1220 713 1220 713 1100.4921875 807 c 0,21,22
 986 896 986 896 986.411132812 994.458007812 c 0,23,24
 985.998555065 1123.45176346 985.998555065 1123.45176346 1126.60644531 1176.84570312 c 2,25,-1
 1819.86328125 1440.10058594 l 1,26,-1
 1819.86328125 1259.46289062 l 1,27,-1
 1147.06640625 1008.55957031 l 1,28,29
 1412 786 1412 786 1529.2578125 659.663085938 c 0,0,1
EndSplineSet
Substitution2: "'init' Initial Forms in Arabic lookup 13 subtable" uniFB90
Substitution2: "'medi' Medial Forms in Arabic lookup 11 subtable" uniFB91
Substitution2: "'fina' Terminal Forms in Arabic lookup 9 subtable" uniFB8F
EndChar

StartChar: afii57514
Encoding: 1722 1722 83
GlifName: afii57514
Width: 1475
VWidth: 2952
GlyphClass: 2
Flags: W
AnchorPoint: "Anchor-10" 727.479 1197.75 basechar 0
AnchorPoint: "Anchor-7" 758.023 -723.042 basechar 0
LayerCount: 2
Fore
SplineSet
716.436523438 -279.6953125 m 4,0,1
 1192 -278 1192 -278 1191.03710938 163.4296875 c 4,2,3
 1191 355 1191 355 1101.02929688 540.09765625 c 5,4,-1
 1274.15429688 600.584960938 l 5,5,6
 1372 357 1372 357 1371.67871094 162.166015625 c 4,7,8
 1371 -24 1371 -24 1304.36816406 -159.012695312 c 4,9,10
 1155 -457 1155 -457 707.021484375 -456.431640625 c 4,11,12
 104 -456 104 -456 103.25 96.59375 c 4,13,14
 103 310 103 310 203.421875 553.458007812 c 5,15,-1
 362.034179688 488.081054688 l 5,16,17
 278 276 278 276 278.752929688 95.0576171875 c 4,18,19
 281 -281 281 -281 716.436523438 -279.6953125 c 4,0,1
EndSplineSet
Substitution2: "'init' Initial Forms in Arabic lookup 13 subtable" uni06BA.init
Substitution2: "'medi' Medial Forms in Arabic lookup 11 subtable" uni06BA.medi
Substitution2: "'fina' Terminal Forms in Arabic lookup 9 subtable" uniFB9F
EndChar

StartChar: uni06F4
Encoding: 1780 1780 90
GlifName: uni06F_4
Width: 1244
VWidth: 2952
GlyphClass: 2
Flags: W
LayerCount: 2
Fore
SplineSet
1083.33496094 1360.42285156 m 5,0,-1
 1040.33984375 1188.03417969 l 5,1,2
 963 1219 963 1219 880.235351562 1218.92675781 c 4,3,4
 777 1219 777 1219 707.057617188 1167.72753906 c 4,5,6
 591 1081 591 1081 576.663085938 947.193359375 c 4,7,8
 572 902 572 902 657.494140625 857.66796875 c 4,9,10
 728 821 728 821 852.942382812 820.590820312 c 4,11,12
 993 821 993 821 1115.12207031 870.52734375 c 5,13,-1
 1138.44921875 695.890625 l 5,14,15
 1014 641 1014 641 874.0078125 641.180664062 c 4,16,-1
 873.217773438 641.181640625 l 6,17,18
 597 642 597 642 477.182617188 786.000976562 c 5,19,-1
 478.708984375 775.439453125 l 6,20,21
 514.115234375 529.19857614 514.115234375 529.19857614 514.115234375 308.771484375 c 2,22,-1
 514.115234375 11.5537109375 l 1,23,-1
 334.796875 11.5537109375 l 1,24,-1
 334.791992188 311.91796875 l 2,25,26
 335 953 335 953 144.876953125 1337.90820312 c 5,27,-1
 309.573242188 1395.96386719 l 5,28,29
 365 1236 365 1236 431.536132812 1036.83789062 c 5,30,-1
 446.734375 1087 l 6,31,32
 491 1233 491 1233 596 1320 c 4,33,34
 704 1410 704 1410 855.047851562 1409.43164062 c 4,35,36
 976 1409 976 1409 1083.33496094 1360.42285156 c 5,0,-1
EndSplineSet
EndChar

StartChar: uni06F5
Encoding: 1781 1781 91
GlifName: uni06F_5
Width: 1328
VWidth: 2952
GlyphClass: 2
Flags: W
LayerCount: 2
Fore
SplineSet
283.965820312 339.41015625 m 0,0,1
 284 198 284 198 398.05078125 197.844726562 c 0,2,3
 543 198 543 198 609.71484375 512.583007812 c 1,4,-1
 734.022460938 512.477539062 l 1,5,6
 788 194 788 194 939.256835938 194.079101562 c 0,7,8
 1044 194 1044 194 1043.97877215 339.676082649 c 0,9,10
 1044 654 1044 654 629 1070.5703125 c 5,11,12
 284 616 284 616 283.965820312 339.41015625 c 0,0,1
383.447265625 11.9833984375 m 0,13,14
 109 12 109 12 109.2421875 339.344726562 c 0,15,16
 109.000140674 682.800388632 109.000140674 682.800388632 493.814453125 1199.56445312 c 6,17,-1
 495.415039062 1201.71386719 l 5,18,-1
 493.458007812 1203.54589844 l 5,19,-1
 439.18359375 1254.34960938 l 5,20,-1
 563.442382812 1406.19042969 l 5,21,-1
 688.700195312 1287.3671875 l 5,22,23
 1219 766 1219 766 1219.44199292 349.259552463 c 0,24,25
 1219 12 1219 12 954.309570312 11.943359375 c 0,26,27
 756 12 756 12 672.232421875 243.266601562 c 1,28,29
 595 12 595 12 383.447265625 11.9833984375 c 0,13,14
EndSplineSet
EndChar

StartChar: uni06F6
Encoding: 1782 1782 92
GlifName: uni06F_6
Width: 1104
VWidth: 2952
GlyphClass: 2
Flags: W
LayerCount: 2
Fore
SplineSet
752.499023438 1204.92382812 m 5,0,1
 700 1210 700 1210 637.673828125 1210.46582031 c 4,2,3
 446 1210 446 1210 369 1123.24804688 c 4,4,5
 312 1059 312 1059 311.594726562 983.765625 c 4,6,7
 312 769 312 769 688.764648438 768.364257812 c 5,8,-1
 690.079101562 768.666992188 l 5,9,10
 891 878 891 878 973.879882812 911.765625 c 5,11,-1
 981.556640625 725.63671875 l 5,12,13
 548 530 548 530 318.25390625 -28.4091796875 c 1,14,-1
 149.010742188 28.2734375 l 1,15,16
 293 387 293 387 524.650390625 615.670898438 c 5,17,18
 126 654 126 654 127.64453125 988.891601562 c 4,19,20
 128 1083 128 1083 166.403320312 1162.42578125 c 4,21,22
 283 1398 283 1398 606.01171875 1396.40820312 c 4,23,24
 686 1396 686 1396 778.365234375 1382.23242188 c 5,25,-1
 752.499023438 1204.92382812 l 5,0,1
EndSplineSet
EndChar

StartChar: uniFB8F
Encoding: 64399 64399 107
GlifName: uniF_B_8F_
Width: 1954
VWidth: 2952
GlyphClass: 2
Flags: W
AnchorPoint: "Anchor-10" 1170.88 1438.07 basechar 0
AnchorPoint: "Anchor-7" 750.268 -236.468 basechar 0
LayerCount: 2
Fore
SplineSet
860.911132812 0 m 2,0,1
 99 0 99 0 99.16015625 485.872070312 c 0,2,3
 99 621 99 621 153.662109375 742.786132812 c 1,4,-1
 311.43359375 674.241210938 l 1,5,6
 278 589 278 589 278.43359375 511.274414062 c 0,7,8
 280.000032718 183.993164062 280.000032718 183.993164062 860.911132812 183.993164062 c 2,9,-1
 1042.63183594 183.993164062 l 2,10,11
 1476 184 1476 184 1476.57421875 375.118164062 c 0,12,13
 1477 473 1477 473 1373.01953125 570.141601562 c 0,14,15
 1214 718 1214 718 1099.84960938 807 c 0,16,17
 986 896 986 896 985.768554688 994.458007812 c 0,18,19
 985.999457068 1123.69611631 985.999457068 1123.69611631 1125.96386719 1176.84570312 c 2,20,-1
 1819.22070312 1440.10058594 l 1,21,-1
 1819.22070312 1259.46289062 l 1,22,-1
 1146.42382812 1008.55957031 l 1,23,24
 1408 790 1408 790 1528.61523438 659.663085938 c 0,25,26
 1609 573 1609 573 1657.92285156 434.880859375 c 24,27,28
 1747.00242715 183.993164062 1747.00242715 183.993164062 1945.76367188 183.993164062 c 2,29,-1
 1962.09667969 183.993164062 l 2,30,31
 1982.17382812 184.000059703 1982.17382812 184.000059703 1982.17382812 107.174804688 c 2,32,-1
 1982.17382812 88.3046875 l 2,33,34
 1982 0 1982 0 1962.09570312 0 c 2,35,-1
 1945.65722656 0 l 2,36,37
 1729 0 1729 0 1596.84960938 176.771484375 c 1,38,39
 1483 0 1483 0 1043.46191406 0 c 2,40,-1
 860.911132812 0 l 2,0,1
EndSplineSet
EndChar

StartChar: uniFB9F
Encoding: 64415 64415 115
GlifName: uniF_B_9F_
Width: 1549
VWidth: 2952
GlyphClass: 2
Flags: W
AnchorPoint: "Anchor-10" 703.458 1366.61 basechar 0
AnchorPoint: "Anchor-7" 595.902 -800.086 basechar 0
LayerCount: 2
Fore
SplineSet
1369.91992188 56.0498046875 m 5,0,1
 1369 -82 1369 -82 1303.8671875 -216.98828125 c 0,2,3
 1155 -520 1155 -520 707.330078125 -519.724609375 c 0,4,5
 102 -520 102 -520 101.753313978 41.0441404246 c 0,6,7
 102 246 102 246 203.028320312 490.125 c 1,8,-1
 361.548828125 424.787109375 l 1,9,10
 278 213 278 213 278.268554688 42.8603515625 c 0,11,12
 278 -343 278 -343 714.400611148 -343.203457009 c 0,13,14
 1189 -343 1189 -343 1190.55493267 101.93364713 c 0,15,16
 1191 286 1191 286 1100.44628906 471.768554688 c 1,17,-1
 1273.08789062 532.0859375 l 1,18,-1
 1346.26855469 304.080078125 l 2,19,20
 1385.00031499 183.999023438 1385.00031499 183.999023438 1539.02050781 183.999023438 c 2,21,-1
 1558.13476562 183.999023438 l 2,22,23
 1578.21875 184.000010754 1578.21875 184.000010754 1578.21875 111.889648438 c 2,24,-1
 1578.21875 88.3115234375 l 2,25,26
 1578 0 1578 0 1558.13671875 0 c 2,27,-1
 1543.41894531 0 l 2,28,29
 1429 0 1429 0 1369.91992188 56.0498046875 c 5,0,1
EndSplineSet
EndChar

StartChar: uniFBE8
Encoding: 64488 64488 118
GlifName: uniF_B_E_8
Width: 646
VWidth: 2952
GlyphClass: 2
Flags: W
AnchorPoint: "Anchor-10" 311.384 1353 basechar 0
AnchorPoint: "Anchor-7" 303.422 -223.625 basechar 0
LayerCount: 2
Fore
SplineSet
68.673828125 0 m 2,0,-1
 -6.9384765625 0 l 2,1,2
 -64.7783203125 0 -64.7783203125 0 -64.7783203125 88.3134765625 c 6,3,-1
 -64.7783203125 107.176757812 l 6,4,5
 -64.9999802743 183.993164062 -64.9999802743 183.993164062 -6.9384765625 183.993164062 c 2,6,-1
 68.6845703125 183.993164062 l 2,7,8
 229 184 229 184 285.544921875 216.15234375 c 0,9,10
 371 266 371 266 371.221679688 425.034179688 c 0,11,12
 371 544 371 544 334.33984375 689.633789062 c 1,13,-1
 497.424804688 730.66796875 l 1,14,15
 546 575 546 575 546.223632812 428.328125 c 0,16,17
 546 183 546 183 405.516601562 77.2138671875 c 0,18,19
 304 0 304 0 68.673828125 0 c 2,0,-1
EndSplineSet
EndChar

StartChar: uniFBE9
Encoding: 64489 64489 119
GlifName: uniF_B_E_9
Width: 717
VWidth: 2952
GlyphClass: 2
Flags: W
AnchorPoint: "Anchor-10" 315.665 1297.09 basechar 0
AnchorPoint: "Anchor-7" 350.537 -177.742 basechar 0
LayerCount: 2
Fore
SplineSet
744.731445312 88.3408203125 m 2,0,1
 744.731445312 0 744.731445312 0 724.650390625 0 c 2,2,-1
 715.006835938 0 l 2,3,4
 517 0 517 0 442.424804688 141.114257812 c 1,5,6
 343 0 343 0 95.759765625 0 c 2,7,-1
 -8.1171875 0 l 2,8,9
 -64.7783203125 0 -64.7783203125 0 -64.7783203125 88.3134765625 c 6,10,-1
 -64.7783203125 107.186523438 l 6,11,12
 -64.9999802718 183.993164062 -64.9999802718 183.993164062 -8.1171875 183.993164062 c 2,13,-1
 91.0126953125 183.993164062 l 2,14,15
 322 184 322 184 346.552734375 316.192382812 c 0,16,17
 353 351 353 351 353.292643343 399.264172479 c 0,18,19
 352.999484409 449.087626611 352.999484409 449.087626611 350.004882812 493.680664062 c 2,20,-1
 344.514648438 575.436523438 l 1,21,-1
 509.321289062 594.784179688 l 1,22,-1
 525.393554688 363.607421875 l 2,23,24
 538.000479807 183.993164062 538.000479807 183.993164062 716.57421875 183.993164062 c 2,25,-1
 724.651367188 183.993164062 l 2,26,27
 744.731445312 183.999909781 744.731445312 183.999909781 744.731445312 98.322265625 c 2,28,-1
 744.731445312 88.3408203125 l 2,0,1
EndSplineSet
EndChar

StartChar: uniFE73
Encoding: 65139 65139 127
GlifName: uniF_E_73
Width: 672
VWidth: 2952
GlyphClass: 2
Flags: W
AnchorPoint: "Anchor-10" 342.943 1012.47 basechar 0
AnchorPoint: "Anchor-7" 416.943 -206.304 basechar 0
LayerCount: 2
Fore
SplineSet
300.336914062 426.018554688 m 2,0,1
 300.336914062 184.342773438 300.336914062 184.342773438 618.00390625 184.342773438 c 2,2,-1
 688.674804688 184.342773438 l 1,3,-1
 688.674804688 1.5537109375 l 1,4,-1
 608.006835938 1.5537109375 l 2,5,6
 109.544921875 2 109.544921875 2 109.544921875 428.563476562 c 2,7,-1
 109.544921875 452.69140625 l 1,8,-1
 300.336914062 452.69140625 l 1,9,-1
 300.336914062 426.018554688 l 2,0,1
EndSplineSet
EndChar

StartChar: uniFE8E
Encoding: 65166 65166 153
GlifName: uniF_E_8E_
Width: 531
VWidth: 2952
GlyphClass: 2
Flags: W
AnchorPoint: "Anchor-10" 234.697 1549.11 basechar 0
AnchorPoint: "Anchor-7" 296.078 -239.903 basechar 0
LayerCount: 2
Fore
SplineSet
558.618164062 88.310546875 m 5,0,1
 560 0 560 0 538.537109375 0 c 6,2,-1
 517.658203125 0 l 6,3,4
 150.283203125 0 150.283203125 0 150.283203125 434.395507812 c 6,5,-1
 150.283203125 1408.171875 l 5,6,-1
 323.598632812 1408.171875 l 5,7,-1
 323.598632812 436.450195312 l 6,8,9
 324 183.993164062 324 183.993164062 520.712890625 183.993164062 c 6,10,-1
 538.538085938 183.993164062 l 6,11,12
 558.618164062 184 558.618164062 184 558.618164062 107.174804688 c 6,13,-1
 558.618164062 88.310546875 l 5,0,1
EndSplineSet
EndChar

StartChar: uniFEA2
Encoding: 65186 65186 173
GlifName: uniF_E_A_2
Width: 1386
VWidth: 2952
GlyphClass: 2
Flags: W
AnchorPoint: "Anchor-7" 580.833 -810.619 basechar 0
AnchorPoint: "Anchor-10" 649.478 1262.07 basechar 0
LayerCount: 2
Fore
SplineSet
1257.90820312 660.69140625 m 1,0,-1
 1244.9140625 486.860351562 l 1,1,2
 1142 479 1142 479 1049.76464844 466.35546875 c 1,3,-1
 1049.76464844 458.13671875 l 2,4,5
 1049.99991816 183.095674721 1049.99991816 183.095674721 1330.62011719 184.061523438 c 2,6,-1
 1393.89257812 184.279296875 l 2,7,8
 1413.97851562 184.000298423 1413.97851562 184.000298423 1413.97851562 111.889648438 c 2,9,-1
 1413.97851562 88.3115234375 l 2,10,11
 1414 0 1414 0 1393.8984375 0 c 2,12,-1
 1331.49511719 0 l 2,13,14
 897.276965726 2.63753463514e-11 897.276965726 2.63753463514e-11 896.192382812 424.001953125 c 2,15,-1
 896.162109375 435.836914062 l 1,16,17
 295 285 295 285 295.249023438 -129.302734375 c 0,18,19
 295 -498 295 -498 826.38671875 -497.783203125 c 0,20,21
 1043 -498 1043 -498 1243.31152344 -402.283203125 c 1,22,-1
 1279.37109375 -581.110351562 l 1,23,24
 1080 -678 1080 -678 811.528320312 -678.249023438 c 0,25,26
 426 -678 426 -678 254 -492.306640625 c 0,27,28
 125 -353 125 -353 124.98046875 -144.544921875 c 0,29,30
 124.999999457 438.983788978 124.999999457 438.983788978 841 597.776367188 c 2,31,-1
 851 599.994140625 l 1,32,33
 825 610 825 610 736.876953125 645.083007812 c 0,34,35
 542 724 542 724 469.551071232 723.687573365 c 0,36,37
 356.510781247 724.001358005 356.510781247 724.001358005 283.638671875 630.13671875 c 2,38,-1
 255.610351562 594.034179688 l 1,39,-1
 101.75 669.994140625 l 1,40,-1
 118.447265625 697.567382812 l 2,41,42
 245 906 245 906 471.790039062 905.841796875 c 0,43,44
 598 906 598 906 774.991210938 820.029296875 c 0,45,46
 1087 668 1087 668 1257.90820312 660.69140625 c 1,0,-1
EndSplineSet
EndChar

StartChar: uniFEA3
Encoding: 65187 65187 174
GlifName: uniF_E_A_3
Width: 1337
VWidth: 2952
GlyphClass: 2
Flags: W
AnchorPoint: "Anchor-10" 565.825 1180.07 basechar 0
AnchorPoint: "Anchor-7" 513.524 -234.745 basechar 0
LayerCount: 2
Fore
SplineSet
-6.9384765625 0 m 2,0,1
 -64.7783203125 0 -64.7783203125 0 -64.7783203125 88.3134765625 c 6,2,-1
 -64.7783203125 107.186523438 l 6,3,4
 -64.9999971817 183.999023438 -64.9999971817 183.999023438 -6.9384765625 183.999023438 c 2,5,-1
 52.54296875 183.999023438 l 2,6,7
 383.204692703 184.000000605 383.204692703 184.000000605 869 434.836914062 c 2,8,-1
 942.827148438 472.95703125 l 1,9,10
 917 480 917 480 726.885742188 557.053710938 c 0,11,12
 531 636 531 636 460.319335938 635.657226562 c 0,13,14
 346.542335493 636.001384364 346.542335493 636.001384364 273.647460938 542.107421875 c 2,15,-1
 245.619140625 506.004882812 l 1,16,-1
 91.7587890625 581.96484375 l 1,17,-1
 108.456054688 609.538085938 l 2,18,19
 234 817 234 817 461.333007812 817.8125 c 0,20,21
 588 818 588 818 765 732 c 0,22,23
 1077 580 1077 580 1247.91699219 572.662109375 c 1,24,-1
 1246.09179688 398.993164062 l 1,25,26
 1131 389 1131 389 821.682617188 226.151367188 c 0,27,28
 393 0 393 0 40.767578125 0 c 2,29,-1
 -6.9384765625 0 l 2,0,1
EndSplineSet
EndChar

StartChar: uniFEA4
Encoding: 65188 65188 175
GlifName: uniF_E_A_4
Width: 1351
VWidth: 2952
GlyphClass: 2
Flags: W
AnchorPoint: "Anchor-10" 565.825 1180.07 basechar 0
AnchorPoint: "Anchor-7" 513.524 -234.745 basechar 0
LayerCount: 2
Fore
SplineSet
942.827148438 472.95703125 m 1,0,1
 919 479 919 479 726.885742188 557.053710938 c 0,2,3
 531 636 531 636 460.319335938 635.657226562 c 0,4,5
 346.542335493 636.001384364 346.542335493 636.001384364 273.647460938 542.107421875 c 2,6,-1
 245.619140625 506.004882812 l 1,7,-1
 91.7587890625 581.96484375 l 1,8,-1
 108.456054688 609.538085938 l 2,9,10
 234 817 234 817 461.333007812 817.8125 c 0,11,12
 588 818 588 818 765 732 c 0,13,14
 1077 580 1077 580 1247.91699219 572.662109375 c 1,15,-1
 1246.09179688 398.993164062 l 1,16,17
 1164 393 1164 393 1039 330 c 1,18,19
 1042.99234803 184.279296875 1042.99234803 184.279296875 1316.61132812 184.279296875 c 2,20,-1
 1360.39746094 184.279296875 l 2,21,22
 1380.50585938 184.006698783 1380.50585938 184.006698783 1380.50585938 111.889648438 c 2,23,-1
 1380.50585938 88.3271484375 l 2,24,25
 1381 0 1381 0 1360.42773438 0 c 2,26,-1
 1301.09667969 0 l 2,27,28
 936 0 936 0 904 268.413085938 c 1,29,30
 865 249 865 249 821.682617188 226.151367188 c 0,31,32
 393 0 393 0 40.767578125 0 c 2,33,-1
 -6.9384765625 0 l 2,34,35
 -64.7783203125 0 -64.7783203125 0 -64.7783203125 88.3134765625 c 6,36,-1
 -64.7783203125 107.186523438 l 6,37,38
 -64.9999971817 183.999023438 -64.9999971817 183.999023438 -6.9384765625 183.999023438 c 2,39,-1
 52.54296875 183.999023438 l 2,40,41
 383.204692703 184.000000605 383.204692703 184.000000605 869 434.836914062 c 2,42,-1
 942.827148438 472.95703125 l 1,0,1
EndSplineSet
EndChar

StartChar: uniFEAA
Encoding: 65194 65194 181
GlifName: uniF_E_A_A_
Width: 1101
VWidth: 2952
GlyphClass: 2
Flags: W
AnchorPoint: "Anchor-7" 437.24 -239.316 basechar 0
AnchorPoint: "Anchor-10" 562.848 1245.53 basechar 0
LayerCount: 2
Fore
SplineSet
387.559570312 0.8193359375 m 0,0,1
 254 1 254 1 102.096679688 29.5419921875 c 1,2,-1
 102.096679688 214.252929688 l 1,3,4
 242 185 242 185 392.981445312 185.068359375 c 0,5,6
 708 185 708 185 708.088867188 329.063476562 c 0,7,8
 707.999472933 392.373273339 707.999472933 392.373273339 616.83984375 608.408203125 c 2,9,-1
 490 909 l 1,10,-1
 654.631835938 984.641601562 l 1,11,-1
 852.5625 481.860351562 l 2,12,13
 970.002695208 183.993164062 970.002695208 183.993164062 1088.87988281 183.993164062 c 2,14,-1
 1108.51855469 183.993164062 l 2,15,16
 1128.59765625 183.999865713 1128.59765625 183.999865713 1128.59765625 107.174804688 c 2,17,-1
 1128.59765625 88.318359375 l 2,18,19
 1129 55 1129 55 1125.83691406 37.974609375 c 0,20,21
 1123 18 1123 18 1118.71386719 8.8349609375 c 0,22,23
 1114 0 1114 0 1108.51757812 0 c 2,24,-1
 1088.53222656 0 l 2,25,26
 922 0 922 0 827.241210938 160.631835938 c 1,27,28
 695 1 695 1 387.559570312 0.8193359375 c 0,0,1
EndSplineSet
EndChar

StartChar: uniFEAE
Encoding: 65198 65198 185
GlifName: uniF_E_A_E_
Width: 910
VWidth: 2144
GlyphClass: 2
Flags: W
AnchorPoint: "Anchor-7" 322.969 -667.998 basechar 0
AnchorPoint: "Anchor-10" 507.256 926.2 basechar 0
LayerCount: 2
Fore
SplineSet
644.139648438 531.579101562 m 1,0,-1
 700.932617188 338.573242188 l 2,1,2
 746.000284726 183.999023438 746.000284726 183.999023438 891.31640625 183.999023438 c 2,3,-1
 918.57421875 183.999023438 l 2,4,5
 938.638671875 183.999982725 938.638671875 183.999982725 938.638671875 112.322265625 c 2,6,-1
 938.638671875 88.208984375 l 2,7,8
 939 0 939 0 918.57421875 0 c 2,9,-1
 901.80078125 0 l 2,10,11
 760 0 760 0 720.30859375 53.2333984375 c 1,12,13
 661 -442 661 -442 29.4375 -510.154296875 c 5,14,-1
 -13.130859375 -339.87890625 l 5,15,16
 554 -283 554 -283 553.25 153.342773438 c 0,17,18
 553 303 553 303 474 472 c 1,19,-1
 644.139648438 531.579101562 l 1,0,-1
EndSplineSet
PairPos2: "'kern' Horizontal Kerning lookup 15-2" uniFBFE dx=60 dy=0 dh=60 dv=0 dx=0 dy=0 dh=0 dv=0
PairPos2: "'kern' Horizontal Kerning lookup 15-1" uniFEE7 dx=-178 dy=0 dh=-178 dv=0 dx=0 dy=0 dh=0 dv=0
PairPos2: "'kern' Horizontal Kerning lookup 15-2" uniFB90 dx=-226 dy=0 dh=-226 dv=0 dx=0 dy=0 dh=0 dv=0
PairPos2: "'kern' Horizontal Kerning lookup 15-2" uniFB8E dx=-226 dy=0 dh=-226 dv=0 dx=0 dy=0 dh=0 dv=0
PairPos2: "'kern' Horizontal Kerning lookup 15-2" uni06A9 dx=-226 dy=0 dh=-226 dv=0 dx=0 dy=0 dh=0 dv=0
PairPos2: "'kern' Horizontal Kerning lookup 15-2" uni064A dx=-60 dy=0 dh=-60 dv=0 dx=0 dy=0 dh=0 dv=0
PairPos2: "'kern' Horizontal Kerning lookup 15-2" afii57414 dx=-60 dy=0 dh=-60 dv=0 dx=0 dy=0 dh=0 dv=0
PairPos2: "'kern' Horizontal Kerning lookup 15-2" uni0649 dx=-60 dy=0 dh=-60 dv=0 dx=0 dy=0 dh=0 dv=0
PairPos2: "'kern' Horizontal Kerning lookup 15-2" uniFEEB dx=-178 dy=0 dh=-178 dv=0 dx=0 dy=0 dh=0 dv=0
PairPos2: "'kern' Horizontal Kerning lookup 15-2" uni0647 dx=-178 dy=0 dh=-178 dv=0 dx=0 dy=0 dh=0 dv=0
PairPos2: "'kern' Horizontal Kerning lookup 15-2" uni0646 dx=-60 dy=0 dh=-60 dv=0 dx=0 dy=0 dh=0 dv=0
PairPos2: "'kern' Horizontal Kerning lookup 15-2" uniFEE3 dx=-178 dy=0 dh=-178 dv=0 dx=0 dy=0 dh=0 dv=0
PairPos2: "'kern' Horizontal Kerning lookup 15-2" uni0645 dx=-178 dy=0 dh=-178 dv=0 dx=0 dy=0 dh=0 dv=0
PairPos2: "'kern' Horizontal Kerning lookup 15-2" uniFEFB dx=-143 dy=0 dh=-143 dv=0 dx=0 dy=0 dh=0 dv=0
PairPos2: "'kern' Horizontal Kerning lookup 15-2" uniFEDF dx=-143 dy=0 dh=-143 dv=0 dx=0 dy=0 dh=0 dv=0
PairPos2: "'kern' Horizontal Kerning lookup 15-2" uni0644 dx=-60 dy=0 dh=-60 dv=0 dx=0 dy=0 dh=0 dv=0
PairPos2: "'kern' Horizontal Kerning lookup 15-2" uniFEDB dx=-226 dy=0 dh=-226 dv=0 dx=0 dy=0 dh=0 dv=0
PairPos2: "'kern' Horizontal Kerning lookup 15-2" uni0643 dx=-143 dy=0 dh=-143 dv=0 dx=0 dy=0 dh=0 dv=0
PairPos2: "'kern' Horizontal Kerning lookup 15-2" uniFED7 dx=-178 dy=0 dh=-178 dv=0 dx=0 dy=0 dh=0 dv=0
PairPos2: "'kern' Horizontal Kerning lookup 15-2" uni0642 dx=-60 dy=0 dh=-60 dv=0 dx=0 dy=0 dh=0 dv=0
PairPos2: "'kern' Horizontal Kerning lookup 15-2" uniFED3 dx=-178 dy=0 dh=-178 dv=0 dx=0 dy=0 dh=0 dv=0
PairPos2: "'kern' Horizontal Kerning lookup 15-2" uni0641 dx=-178 dy=0 dh=-178 dv=0 dx=0 dy=0 dh=0 dv=0
PairPos2: "'kern' Horizontal Kerning lookup 15-2" uniFECF dx=-178 dy=0 dh=-178 dv=0 dx=0 dy=0 dh=0 dv=0
PairPos2: "'kern' Horizontal Kerning lookup 15-2" uniFECB dx=-178 dy=0 dh=-178 dv=0 dx=0 dy=0 dh=0 dv=0
PairPos2: "'kern' Horizontal Kerning lookup 15-2" uniFEC7 dx=-178 dy=0 dh=-178 dv=0 dx=0 dy=0 dh=0 dv=0
PairPos2: "'kern' Horizontal Kerning lookup 15-2" uni0638 dx=-178 dy=0 dh=-178 dv=0 dx=0 dy=0 dh=0 dv=0
PairPos2: "'kern' Horizontal Kerning lookup 15-2" uniFEC3 dx=-178 dy=0 dh=-178 dv=0 dx=0 dy=0 dh=0 dv=0
PairPos2: "'kern' Horizontal Kerning lookup 15-2" uni0637 dx=-178 dy=0 dh=-178 dv=0 dx=0 dy=0 dh=0 dv=0
PairPos2: "'kern' Horizontal Kerning lookup 15-2" uniFEBF dx=-178 dy=0 dh=-178 dv=0 dx=0 dy=0 dh=0 dv=0
PairPos2: "'kern' Horizontal Kerning lookup 15-2" uni0636 dx=-178 dy=0 dh=-178 dv=0 dx=0 dy=0 dh=0 dv=0
PairPos2: "'kern' Horizontal Kerning lookup 15-2" uniFEBB dx=-178 dy=0 dh=-178 dv=0 dx=0 dy=0 dh=0 dv=0
PairPos2: "'kern' Horizontal Kerning lookup 15-2" uni0635 dx=-178 dy=0 dh=-178 dv=0 dx=0 dy=0 dh=0 dv=0
PairPos2: "'kern' Horizontal Kerning lookup 15-2" uniFEB7 dx=-178 dy=0 dh=-178 dv=0 dx=0 dy=0 dh=0 dv=0
PairPos2: "'kern' Horizontal Kerning lookup 15-2" uni0634 dx=-178 dy=0 dh=-178 dv=0 dx=0 dy=0 dh=0 dv=0
PairPos2: "'kern' Horizontal Kerning lookup 15-2" uniFEB3 dx=-178 dy=0 dh=-178 dv=0 dx=0 dy=0 dh=0 dv=0
PairPos2: "'kern' Horizontal Kerning lookup 15-2" uni0633 dx=-178 dy=0 dh=-178 dv=0 dx=0 dy=0 dh=0 dv=0
PairPos2: "'kern' Horizontal Kerning lookup 15-2" uni0630 dx=-178 dy=0 dh=-178 dv=0 dx=0 dy=0 dh=0 dv=0
PairPos2: "'kern' Horizontal Kerning lookup 15-2" uni062F dx=-178 dy=0 dh=-178 dv=0 dx=0 dy=0 dh=0 dv=0
PairPos2: "'kern' Horizontal Kerning lookup 15-2" uniFEA7 dx=-178 dy=0 dh=-178 dv=0 dx=0 dy=0 dh=0 dv=0
PairPos2: "'kern' Horizontal Kerning lookup 15-2" uniFEA3 dx=-178 dy=0 dh=-178 dv=0 dx=0 dy=0 dh=0 dv=0
PairPos2: "'kern' Horizontal Kerning lookup 15-2" uniFE9F dx=-178 dy=0 dh=-178 dv=0 dx=0 dy=0 dh=0 dv=0
PairPos2: "'kern' Horizontal Kerning lookup 15-2" uniFE9B dx=-178 dy=0 dh=-178 dv=0 dx=0 dy=0 dh=0 dv=0
PairPos2: "'kern' Horizontal Kerning lookup 15-2" uni062B dx=-178 dy=0 dh=-178 dv=0 dx=0 dy=0 dh=0 dv=0
PairPos2: "'kern' Horizontal Kerning lookup 15-2" uniFE97 dx=-178 dy=0 dh=-178 dv=0 dx=0 dy=0 dh=0 dv=0
PairPos2: "'kern' Horizontal Kerning lookup 15-2" uni062A dx=-178 dy=0 dh=-178 dv=0 dx=0 dy=0 dh=0 dv=0
PairPos2: "'kern' Horizontal Kerning lookup 15-2" uni0629 dx=-178 dy=0 dh=-178 dv=0 dx=0 dy=0 dh=0 dv=0
PairPos2: "'kern' Horizontal Kerning lookup 15-2" uni0628 dx=-178 dy=0 dh=-178 dv=0 dx=0 dy=0 dh=0 dv=0
PairPos2: "'kern' Horizontal Kerning lookup 15-2" uni0627 dx=-143 dy=0 dh=-143 dv=0 dx=0 dy=0 dh=0 dv=0
PairPos2: "'kern' Horizontal Kerning lookup 15-2" uni0623 dx=-143 dy=0 dh=-143 dv=0 dx=0 dy=0 dh=0 dv=0
PairPos2: "'kern' Horizontal Kerning lookup 15-2" uni0622 dx=-143 dy=0 dh=-143 dv=0 dx=0 dy=0 dh=0 dv=0
PairPos2: "'kern' Horizontal Kerning lookup 15-2" uni0621 dx=-178 dy=0 dh=-178 dv=0 dx=0 dy=0 dh=0 dv=0
PairPos2: "'kern' Horizontal Kerning lookup 15-2" uniFB94 dx=-226 dy=0 dh=-226 dv=0 dx=0 dy=0 dh=0 dv=0
PairPos2: "'kern' Horizontal Kerning lookup 15-2" uniFB92 dx=-226 dy=0 dh=-226 dv=0 dx=0 dy=0 dh=0 dv=0
PairPos2: "'kern' Horizontal Kerning lookup 15-2" uni06AF dx=-226 dy=0 dh=-226 dv=0 dx=0 dy=0 dh=0 dv=0
PairPos2: "'kern' Horizontal Kerning lookup 15-2" afii57506 dx=-178 dy=0 dh=-178 dv=0 dx=0 dy=0 dh=0 dv=0
PairPos2: "'kern' Horizontal Kerning lookup 15-2" afii57440 dx=-178 dy=0 dh=-178 dv=0 dx=0 dy=0 dh=0 dv=0
PairPos2: "'kern' Horizontal Kerning lookup 15-2" uniFE8B dx=-178 dy=0 dh=-178 dv=0 dx=0 dy=0 dh=0 dv=0
EndChar

StartChar: uniFEB2
Encoding: 65202 65202 189
GlifName: uniF_E_B_2
Width: 2589
VWidth: 2952
GlyphClass: 2
Flags: W
AnchorPoint: "Anchor-7" 681.902 -756.086 basechar 0
AnchorPoint: "Anchor-10" 1810.53 1090.1 basechar 0
LayerCount: 2
Fore
SplineSet
1333 347 m 6,0,1
 1385.76294974 183.999896708 1385.76294974 183.999896708 1554.08789062 184.073242188 c 4,2,3
 1742 184 1742 184 1741.96777344 366.366210938 c 4,4,5
 1741.99980996 444.536303445 1741.99980996 444.536303445 1740.11132812 472.654296875 c 6,6,-1
 1734.62011719 554.4140625 l 5,7,-1
 1899.42675781 573.76171875 l 5,8,-1
 1915.49902344 342.58984375 l 6,9,10
 1926 185 1926 185 2073.21191406 184.520507812 c 4,11,12
 2222 185 2222 185 2223.51171875 386.803710938 c 0,13,14
 2223.99878493 451.837761574 2223.99878493 451.837761574 2218.44921875 514.193359375 c 2,15,-1
 2213.03125 575.0703125 l 1,16,-1
 2377.859375 594.54296875 l 1,17,-1
 2393.84960938 405.4296875 l 2,18,19
 2412.99689114 184.035946739 2412.99689114 184.035946739 2579.35839844 184 c 2,20,-1
 2597.43652344 183.99609375 l 2,21,22
 2617.52636719 183.999910028 2617.52636719 183.999910028 2617.52636719 107.1171875 c 2,23,-1
 2617.52636719 88.3046875 l 1,24,25
 2615.99902095 -0.056640625 2615.99902095 -0.056640625 2597.4453125 -0.056640625 c 2,26,-1
 2581.12011719 -0.056640625 l 2,27,28
 2382 -0 2382 -0 2331.77148438 142.5078125 c 1,29,30
 2260 0 2260 0 2082.5 0 c 4,31,32
 1891 0 1891 0 1831.95800781 140.98828125 c 5,33,34
 1734 1 1734 1 1552.80664062 0.9189453125 c 4,35,36
 1437 1 1437 1 1369.91992188 56.0498046875 c 5,37,38
 1369 -79 1369 -79 1303.8671875 -216.98828125 c 4,39,40
 1158 -520 1158 -520 707.334960938 -519.724609375 c 4,41,42
 102 -520 102 -520 101.752929688 41.0439453125 c 4,43,44
 102 246 102 246 203.028320312 490.125 c 5,45,-1
 361.548828125 424.787109375 l 5,46,47
 278 213 278 213 278.268554688 42.8603515625 c 4,48,49
 278 -343 278 -343 714.362304688 -343.203125 c 4,50,51
 1189 -343 1189 -343 1190.55686668 103.735127944 c 4,52,53
 1191 287 1191 287 1100.44628906 471.768554688 c 5,54,-1
 1273.08789062 532.0859375 l 5,55,-1
 1333 347 l 6,0,1
EndSplineSet
EndChar

StartChar: uniFEB3
Encoding: 65203 65203 190
GlifName: uniF_E_B_3
Width: 1599
VWidth: 2952
GlyphClass: 2
Flags: W
AnchorPoint: "Anchor-10" 859.961 1083.67 basechar 0
AnchorPoint: "Anchor-7" 759.534 -236.974 basechar 0
LayerCount: 2
Fore
SplineSet
837.155273438 330.985351562 m 4,0,1
 843 360 843 360 842.953125 401.455078125 c 4,2,3
 843.000335013 446.318359619 843.000335013 446.318359619 838.78125 493.752929688 c 6,4,-1
 833.380859375 554.46875 l 5,5,-1
 998.106445312 573.801757812 l 5,6,-1
 1014.17773438 342.631835938 l 6,7,8
 1025 185 1025 185 1171.49707031 184.538085938 c 4,9,10
 1320 185 1320 185 1319.98632812 399.3984375 c 4,11,12
 1320 502 1320 502 1275.98242188 654.307617188 c 5,13,-1
 1446.93359375 700.047851562 l 5,14,15
 1497 542 1497 542 1496.01953125 406.047851562 c 4,16,17
 1496 403 1496 403 1496 400.5 c 4,18,19
 1495 173 1495 173 1374.32519531 67.2265625 c 4,20,21
 1299 1 1299 1 1174.72558594 0.9931640625 c 4,22,23
 990 1 990 1 930.71875 141.04296875 c 5,24,25
 830 0 830 0 646.370117188 0 c 4,26,27
 432 1 432 1 372.125 141.07421875 c 1,28,29
 292 0 292 0 48.849609375 0 c 2,30,-1
 -6.9384765625 0 l 2,31,32
 -64.7783203125 0 -64.7783203125 0 -64.7783203125 88.3134765625 c 2,33,-1
 -64.7783203125 107.186523438 l 2,34,35
 -64.9999971817 183.999023438 -64.9999971817 183.999023438 -6.9384765625 183.999023438 c 2,36,-1
 51.00390625 183.999023438 l 2,37,38
 256 184 256 184 286.918945312 331 c 0,39,40
 293 360 293 360 292.716796875 401.469726562 c 0,41,42
 292.998016161 443.702075227 292.998016161 443.702075227 288.544921875 493.767578125 c 2,43,-1
 283.14453125 554.483398438 l 1,44,-1
 447.870117188 573.81640625 l 1,45,-1
 463.94140625 342.646484375 l 2,46,47
 475 184 475 184 648.064453125 184.073242188 c 4,48,49
 808 184 808 184 837.155273438 330.985351562 c 4,0,1
EndSplineSet
EndChar

StartChar: uniFEB4
Encoding: 65204 65204 191
GlifName: uniF_E_B_4
Width: 1688
VWidth: 2945
GlyphClass: 2
Flags: W
AnchorPoint: "Anchor-7" 759.534 -236.974 basechar 0
AnchorPoint: "Anchor-10" 873.961 1083.67 basechar 0
LayerCount: 2
Fore
SplineSet
1014.17773438 342.631835938 m 2,0,1
 1025.13656937 184.999612573 1025.13656937 184.999612573 1173.36816406 184.579101562 c 0,2,3
 1323 185 1323 185 1322.38769531 384.219726562 c 0,4,5
 1322.00173476 462.647495009 1322.00173476 462.647495009 1317.40917969 514.25 c 2,6,-1
 1311.99121094 575.126953125 l 1,7,-1
 1476.81933594 594.599609375 l 1,8,-1
 1492.80957031 405.486328125 l 2,9,10
 1512.00172609 183.980078354 1512.00172609 183.980078354 1678.31835938 183.998046875 c 2,11,-1
 1696.39648438 184 l 2,12,13
 1716.48632812 184 1716.48632812 184 1716.48632812 107.173828125 c 2,14,-1
 1716.48632812 88.361328125 l 2,15,16
 1716 0 1716 0 1696.40527344 0 c 2,17,-1
 1680.08007812 0 l 2,18,19
 1480 0 1480 0 1430.73144531 142.564453125 c 1,20,21
 1359 0 1359 0 1179 0 c 128,-1,22
 999 0 999 0 930.71875 141.04296875 c 1,23,24
 830 0 830 0 646.370117188 0 c 0,25,26
 432 1 432 1 372.125 141.07421875 c 1,27,28
 292 0 292 0 48.849609375 0 c 2,29,-1
 -6.9384765625 0 l 2,30,31
 -64.7783203125 0 -64.7783203125 0 -64.7783203125 88.3134765625 c 6,32,-1
 -64.7783203125 107.186523438 l 6,33,34
 -64.9999971817 183.999023438 -64.9999971817 183.999023438 -6.9384765625 183.999023438 c 2,35,-1
 51.00390625 183.999023438 l 2,36,37
 257 184 257 184 287.918945312 331 c 0,38,39
 293 355 293 355 292.716796875 401.469726562 c 0,40,41
 292.998016161 443.702075227 292.998016161 443.702075227 288.544921875 493.767578125 c 2,42,-1
 283.14453125 554.483398438 l 1,43,-1
 447.870117188 573.81640625 l 1,44,-1
 463.94140625 342.646484375 l 2,45,46
 475 184 475 184 648.064453125 184.073242188 c 0,47,48
 809 184 809 184 838.155273438 330.985351562 c 0,49,50
 843 355 843 355 842.953125 401.455078125 c 0,51,52
 843.000335013 446.318359619 843.000335013 446.318359619 838.78125 493.752929688 c 2,53,-1
 833.380859375 554.46875 l 1,54,-1
 998.106445312 573.801757812 l 1,55,-1
 1014.17773438 342.631835938 l 2,0,1
EndSplineSet
EndChar

StartChar: uniFEBA
Encoding: 65210 65210 197
GlifName: uniF_E_B_A_
Width: 2626
VWidth: 2952
GlyphClass: 2
Flags: W
AnchorPoint: "Anchor-7" 681.902 -756.086 basechar 0
AnchorPoint: "Anchor-10" 2058.53 1213.1 basechar 0
LayerCount: 2
Fore
SplineSet
1433.78710938 213.107421875 m 1,0,1
 1780 797 1780 797 2119.33300781 796.42578125 c 0,2,3
 2274 796 2274 796 2368 718.5390625 c 0,4,5
 2495 614 2495 614 2494.59667969 423.791992188 c 0,6,7
 2495 303 2495 303 2424.90722656 207.994140625 c 1,8,9
 2450 184 2450 184 2615.73828125 184 c 2,10,-1
 2634.37109375 184 l 2,11,12
 2654 184 2654 184 2654.49316406 107.174804688 c 2,13,-1
 2654.49316406 88.3056640625 l 2,14,15
 2654.49316406 0 2654.49316406 0 2634.41210938 0 c 2,16,-1
 2610.2265625 0 l 2,17,18
 2372 0 2372 0 2264.97851562 87.7001953125 c 1,19,20
 2109 0 2109 0 1773.15136719 0 c 2,21,-1
 1722.34082031 0 l 2,22,23
 1483 0 1483 0 1369.91992188 56.0498046875 c 1,24,25
 1369 -82 1369 -82 1303.8671875 -216.98828125 c 0,26,27
 1158 -520 1158 -520 706.534179688 -519.724609375 c 0,28,29
 104 -519 104 -519 101.758789062 38 c 0,30,31
 101 244 101 244 203.028320312 490.125 c 1,32,-1
 361.548828125 424.787109375 l 1,33,34
 278 212 278 212 278.26953125 41.7646484375 c 0,35,36
 279 -347 279 -347 722.912109375 -343.166015625 c 0,37,38
 1189 -339 1189 -339 1190.55273438 100.116210938 c 0,39,40
 1191 285 1191 285 1100.44628906 471.768554688 c 1,41,-1
 1273.08789062 532.0859375 l 1,42,-1
 1341 317 l 2,43,44
 1371.94114669 219.005612784 1371.94114669 219.005612784 1433.78710938 213.107421875 c 1,0,1
1768.75585938 184.534179688 m 2,45,46
 2312 185 2312 185 2312.66113281 415.374023438 c 0,47,48
 2313 517 2313 517 2235 570.887695312 c 0,49,50
 2187 604 2187 604 2122.11816406 604.573242188 c 0,51,52
 1894 607 1894 607 1624.65625 184.416992188 c 1,53,-1
 1768.75585938 184.534179688 l 2,45,46
EndSplineSet
EndChar

StartChar: uniFEBB
Encoding: 65211 65211 198
GlifName: uniF_E_B_B_
Width: 1680
VWidth: 2952
GlyphClass: 2
Flags: W
AnchorPoint: "Anchor-10" 1118.91 1202.52 basechar 0
AnchorPoint: "Anchor-7" 699.209 -240.348 basechar 0
LayerCount: 2
Fore
SplineSet
1202.31542969 796.42578125 m 4,0,1
 1357 796 1357 796 1450.98242188 718.5390625 c 4,2,3
 1578 614 1578 614 1577.57910156 423.791992188 c 4,4,5
 1576 0 1576 0 856.133789062 0 c 6,6,-1
 805.323242188 0 l 6,7,8
 435 0 435 0 348.349609375 145.178710938 c 1,9,10
 242 0 242 0 9.984375 0 c 2,11,-1
 -6.9384765625 0 l 2,12,13
 -65 0 -65 0 -64.7783203125 88.3134765625 c 2,14,-1
 -64.7783203125 107.186523438 l 2,15,16
 -64.7783203125 184 -64.7783203125 184 -5.9384765625 184 c 2,17,-1
 10.1103515625 184 l 2,18,19
 232 184 232 184 256.552734375 316.192382812 c 16,20,21
 268 376 268 376 260.004882812 493.680664062 c 2,22,-1
 254.514648438 575.436523438 l 1,23,-1
 419.321289062 594.784179688 l 1,24,-1
 437.166992188 362.65625 l 2,25,26
 447.294362593 230.924509946 447.294362593 230.924509946 516.76953125 213.107421875 c 1,27,28
 862 797 862 797 1202.31542969 796.42578125 c 4,0,1
851.73828125 184.534179688 m 6,29,30
 1395 185 1395 185 1395.64355469 415.374023438 c 4,31,32
 1396 517 1396 517 1317.98242188 570.887695312 c 4,33,34
 1270 604 1270 604 1205.10058594 604.573242188 c 4,35,36
 977.296955831 606.027790786 977.296955831 606.027790786 707.638671875 184.416992188 c 5,37,-1
 851.73828125 184.534179688 l 6,29,30
EndSplineSet
EndChar

StartChar: uniFEBC
Encoding: 65212 65212 199
GlifName: uniF_E_B_C_
Width: 1719
VWidth: 2952
GlyphClass: 2
Flags: W
AnchorPoint: "Anchor-7" 699.209 -240.348 basechar 0
AnchorPoint: "Anchor-10" 1148.91 1202.52 basechar 0
LayerCount: 2
Fore
SplineSet
1577.57910156 423.791992188 m 4,0,1
 1578 303 1578 303 1507.88964844 207.994140625 c 1,2,3
 1533 184 1533 184 1698.72070312 184 c 2,4,-1
 1717.35351562 184 l 2,5,6
 1737 184 1737 184 1737.47558594 107.174804688 c 2,7,-1
 1737.47558594 88.3056640625 l 2,8,9
 1737.47558594 0 1737.47558594 0 1717.39453125 0 c 2,10,-1
 1693.20898438 0 l 2,11,12
 1455 0 1455 0 1347.9609375 87.7001953125 c 1,13,14
 1192 0 1192 0 856.133789062 0 c 2,15,-1
 805.323242188 0 l 2,16,17
 439 0 439 0 348.349609375 145.178710938 c 1,18,19
 242 0 242 0 9.984375 0 c 2,20,-1
 -6.9384765625 0 l 2,21,22
 -65 0 -65 0 -64.7783203125 88.3134765625 c 2,23,-1
 -64.7783203125 107.186523438 l 2,24,25
 -64.7783203125 184 -64.7783203125 184 -6.9384765625 184 c 2,26,-1
 9.1103515625 184 l 2,27,28
 232 184 232 184 256.552734375 316.192382812 c 16,29,30
 268 376 268 376 260.004882812 493.680664062 c 2,31,-1
 254.514648438 575.436523438 l 1,32,-1
 419.321289062 594.784179688 l 1,33,-1
 437.166992188 362.65625 l 2,34,35
 447.294362593 230.924509946 447.294362593 230.924509946 516.76953125 213.107421875 c 1,36,37
 863 797 863 797 1202.31542969 796.42578125 c 4,38,39
 1357 796 1357 796 1450.98242188 718.5390625 c 4,40,41
 1578 614 1578 614 1577.57910156 423.791992188 c 4,0,1
851.73828125 184.534179688 m 2,42,43
 1395 185 1395 185 1395.64355469 415.374023438 c 4,44,45
 1396 517 1396 517 1317.98242188 570.887695312 c 4,46,47
 1270 604 1270 604 1205.10058594 604.573242188 c 4,48,49
 977 607 977 607 707.638671875 184.416992188 c 1,50,-1
 851.73828125 184.534179688 l 2,42,43
EndSplineSet
EndChar

StartChar: uniFEC2
Encoding: 65218 65218 205
GlifName: uniF_E_C_2
Width: 1515
VWidth: 2952
GlyphClass: 2
Flags: W
AnchorPoint: "Anchor-7" 641.602 -236.453 basechar 0
AnchorPoint: "Anchor-10" 475.36 1544.78 basechar 0
LayerCount: 2
Fore
SplineSet
1003.4140625 796.424804688 m 0,0,1
 1156 797 1156 797 1252.08105469 718.538085938 c 0,2,3
 1376 616 1376 616 1378.67773438 423.791015625 c 24,4,5
 1380 309 1380 309 1308.91601562 206.926757812 c 1,6,7
 1321 184 1321 184 1504.70800781 184 c 2,8,-1
 1523.34082031 184 l 2,9,10
 1543.46289062 184 1543.46289062 184 1543.46289062 107.173828125 c 2,11,-1
 1543.46289062 88.3134765625 l 2,12,13
 1542.99999488 -0.0009765625 1542.99999488 -0.0009765625 1523.38183594 -0.0009765625 c 2,14,-1
 1499.19628906 -0.0009765625 l 2,15,16
 1237 -0 1237 -0 1135.94726562 81.6923828125 c 1,17,18
 981.99708985 -0.00154427587687 981.99708985 -0.00154427587687 658.232421875 -0.0009765625 c 2,19,-1
 101.302734375 0 l 1,20,-1
 101.302734375 184.221679688 l 1,21,-1
 321.826171875 184.376953125 l 1,22,-1
 323.553710938 184.377929688 l 1,23,-1
 324.419921875 185.873046875 l 2,24,25
 338 209 338 209 394.215820312 297.155273438 c 2,26,-1
 394.638671875 297.865234375 l 1,27,-1
 394.638671875 298.69140625 l 1,28,-1
 394.638671875 1408.87304688 l 5,29,-1
 568.950195312 1408.87304688 l 5,30,-1
 568.950195312 544.208984375 l 1,31,32
 770 795 770 795 1003.4140625 796.424804688 c 0,0,1
1196.7421875 415.373046875 m 0,33,34
 1196 518 1196 518 1119.08105469 570.88671875 c 0,35,36
 1069 606 1069 606 1006.19921875 604.572265625 c 24,37,38
 769.870627636 599.19949085 769.870627636 599.19949085 509.770507812 184.533203125 c 1,39,-1
 653.836914062 184.533203125 l 2,40,41
 1199.00457493 184.533203125 1199.00457493 184.533203125 1196.7421875 415.373046875 c 0,33,34
EndSplineSet
EndChar

StartChar: uniFEC3
Encoding: 65219 65219 206
GlifName: uniF_E_C_3
Width: 1320
VWidth: 2952
GlyphClass: 2
Flags: W
AnchorPoint: "Anchor-7" 501.602 -236.453 basechar 0
AnchorPoint: "Anchor-10" 312.36 1553.78 basechar 0
LayerCount: 2
Fore
SplineSet
495.5703125 -0.01171875 m 2,0,1
 -6.9384765625 0 l 2,2,3
 -64.7783203125 0 -64.7783203125 0 -64.7783203125 88.3134765625 c 2,4,-1
 -64.7783203125 107.186523438 l 2,5,6
 -65 184 -65 184 -6.943359375 184 c 2,7,-1
 159.16796875 184 l 1,8,-1
 232.9765625 297.879882812 l 1,9,-1
 232.9765625 1408.87402344 l 5,10,-1
 406.288085938 1408.87402344 l 5,11,-1
 406.288085938 544.198242188 l 1,12,13
 608 796 608 796 841.751953125 796.4140625 c 0,14,15
 1055 796 1055 796 1153.43652344 647.98828125 c 0,16,17
 1217 552 1217 552 1217.015625 423.780273438 c 0,18,19
 1217 -0 1217 -0 495.5703125 -0.01171875 c 2,0,1
844.537109375 604.561523438 m 0,20,21
 613.341796875 604.98828125 613.341796875 604.98828125 347.09765625 184.522460938 c 1,22,-1
 491.174804688 184.522460938 l 2,23,24
 1034.34179688 184.98828125 1034.34179688 184.98828125 1035.08007812 415.362304688 c 0,25,26
 1035.34179688 491.98828125 1035.34179688 491.98828125 992.436523438 539.98828125 c 0,27,28
 934.341796875 603.98828125 934.341796875 603.98828125 844.537109375 604.561523438 c 0,20,21
EndSplineSet
EndChar

StartChar: uniFEC4
Encoding: 65220 65220 207
GlifName: uniF_E_C_4
Width: 1352
VWidth: 2952
GlyphClass: 2
Flags: W
AnchorPoint: "Anchor-10" 309.36 1541.78 basechar 0
AnchorPoint: "Anchor-7" 501.602 -236.453 basechar 0
LayerCount: 2
Fore
SplineSet
406.29 544.209960938 m 1,0,1
 607 795 607 795 840.745117188 796.42578125 c 0,2,3
 993 797 993 797 1089.41210938 718.5390625 c 0,4,5
 1214.3588379 614.872592096 1214.3588379 614.872592096 1216.00878906 423.791992188 c 24,6,7
 1217 309 1217 309 1146.24707031 206.927734375 c 1,8,9
 1157.99949941 184.000976562 1157.99949941 184.000976562 1342.0390625 184.000976562 c 2,10,-1
 1360.671875 184.000976562 l 2,11,12
 1380.79394531 184.000009899 1380.79394531 184.000009899 1380.79394531 107.174804688 c 2,13,-1
 1380.79394531 88.314453125 l 2,14,15
 1381 0 1381 0 1360.71289062 0 c 2,16,-1
 1336.52734375 0 l 2,17,18
 1074 0 1074 0 973.278320312 81.693359375 c 1,19,20
 819 0 819 0 495.563476562 0 c 2,21,-1
 -6.9384765625 0 l 2,22,23
 -64.7783203125 0 -64.7783203125 0 -64.7783203125 88.3134765625 c 2,24,-1
 -64.7783203125 107.186523438 l 2,25,26
 -65 184 -65 184 -6.943359375 184 c 2,27,-1
 160.875976562 184 l 1,28,29
 228 290 228 290 232.567382812 297.178710938 c 2,30,-1
 232.9765625 297.879882812 l 1,31,-1
 232.9765625 298.692382812 l 1,32,-1
 232.9765625 1408.87402344 l 5,33,-1
 406.290039062 1408.87402344 l 5,34,-1
 406.29 544.209960938 l 1,0,1
1034.07324219 415.374023438 m 0,35,36
 1033 518 1033 518 956.412109375 570.887695312 c 0,37,38
 906 606 906 606 843.530273438 604.573242188 c 24,39,40
 607 599 607 599 347.1015625 184.534179688 c 1,41,-1
 491.16796875 184.534179688 l 2,42,43
 1036.00389594 184.534179688 1036.00389594 184.534179688 1034.07324219 415.374023438 c 0,35,36
EndSplineSet
EndChar

StartChar: uniFECA
Encoding: 65226 65226 213
GlifName: uniF_E_C_A_
Width: 1187
VWidth: 2952
GlyphClass: 2
Flags: W
AnchorPoint: "Anchor-7" 616.833 -890.619 basechar 0
AnchorPoint: "Anchor-10" 580.833 1226.24 basechar 0
LayerCount: 2
Fore
SplineSet
586.895507812 205.720703125 m 1,0,1
 275 34 275 34 274.666015625 -196.051757812 c 0,2,3
 274 -487 274 -487 698.583984375 -487.788085938 c 0,4,5
 866 -488 866 -488 1042.91503906 -415.033203125 c 1,6,-1
 1079 -594 l 1,7,8
 912 -669 912 -669 687.8046875 -668.228515625 c 0,9,10
 433 -667 433 -667 291 -571 c 0,11,12
 105 -445 105 -445 104.403320312 -196.177734375 c 0,13,14
 104 119 104 119 420.47265625 318.533203125 c 1,15,16
 132 487 132 487 132.228515625 641.4296875 c 0,17,18
 132 746 132 746 293.4921875 816.3984375 c 0,19,20
 403 864 403 864 594.46484375 863.720703125 c 0,21,22
 792 864 792 864 898.779296875 818.29296875 c 0,23,24
 1048 755 1048 755 1048.28808594 644.639648438 c 0,25,26
 1048 505 1048 505 730.93359375 307.010742188 c 1,27,28
 887.413945278 184.458984375 887.413945278 184.458984375 1167.421875 184.458984375 c 2,29,-1
 1195.30078125 184.458984375 l 2,30,31
 1215.42285156 183.990147718 1215.42285156 183.990147718 1215.42285156 107.174804688 c 2,32,-1
 1215.42285156 88.3095703125 l 2,33,34
 1215 0 1215 0 1195.34179688 0 c 2,35,-1
 1167.11914062 0 l 2,36,37
 862 0 862 0 586.895507812 205.720703125 c 1,0,1
587.685546875 425.487304688 m 1,38,39
 866 575 866 575 865.125976562 631.140625 c 0,40,41
 865 682 865 682 593 682 c 128,-1,42
 321 682 321 682 321.328125 619.143554688 c 0,43,44
 321 571 321 571 587.685546875 425.487304688 c 1,38,39
EndSplineSet
EndChar

StartChar: uniFECB
Encoding: 65227 65227 214
GlifName: uniF_E_C_B_
Width: 1059
VWidth: 2952
GlyphClass: 2
Flags: W
AnchorPoint: "Anchor-10" 550.493 1189.05 basechar 0
AnchorPoint: "Anchor-7" 484.511 -235.021 basechar 0
LayerCount: 2
Fore
SplineSet
862.840820312 584.266601562 m 1,0,1
 739 686 739 686 616.54296875 687.30078125 c 0,2,3
 553 688 553 688 501.90625 669.456054688 c 128,-1,4
 451 651 451 651 414.06640625 615.015625 c 0,5,6
 379 580 379 580 360.668945312 537.108398438 c 0,7,8
 343 494 343 494 342.602539062 442.439453125 c 0,9,10
 343 307 343 307 498.905273438 230.798828125 c 0,11,12
 520.760948779 220.116836615 520.760948779 220.116836615 525.38671875 221.29296875 c 2,13,-1
 961.0703125 332.068359375 l 1,14,-1
 961.0703125 148.317382812 l 1,15,16
 484.633034833 -0.114326207272 484.633034833 -0.114326207272 85.4384765625 -0.021484375 c 2,17,-1
 -6.9384765625 0 l 2,18,19
 -64.7783203125 0 -64.7783203125 0 -64.7783203125 88.3134765625 c 2,20,-1
 -64.7783203125 107.186523438 l 2,21,22
 -65.0013222099 184.458154464 -65.0013222099 184.458154464 -6.9453125 184.458984375 c 2,23,-1
 266.314453125 184.462890625 l 1,24,-1
 273.065429688 184.462890625 l 1,25,-1
 268.541015625 189.473632812 l 2,26,27
 244.423685953 216.173419623 244.423685953 216.173419623 223.862304688 247.3359375 c 0,28,29
 168 332 168 332 168.720703125 451.967773438 c 0,30,31
 170 616 170 616 258.1328125 726.904296875 c 0,32,33
 305 786 305 786 375.700195312 824.130859375 c 0,34,35
 468 874 468 874 591.578125 873.232421875 c 0,36,37
 797 872 797 872 929.883789062 734.323242188 c 1,38,-1
 862.840820312 584.266601562 l 1,0,1
EndSplineSet
EndChar

StartChar: uniFECC
Encoding: 65228 65228 215
GlifName: uniF_E_C_C_
Width: 1151
VWidth: 2952
GlyphClass: 2
Flags: W
AnchorPoint: "Anchor-7" 584.511 -235.021 basechar 0
AnchorPoint: "Anchor-10" 611.107 1160.89 basechar 0
LayerCount: 2
Fore
SplineSet
761.573242188 249.072265625 m 2,0,1
 870.949670793 183.993164062 870.949670793 183.993164062 1134.80175781 183.993164062 c 2,2,-1
 1158.37792969 183.993164062 l 2,3,4
 1178.45703125 184.000159221 1178.45703125 184.000159221 1178.45703125 107.174804688 c 2,5,-1
 1178.45703125 88.3037109375 l 2,6,7
 1178 59 1178 59 1175.90625 37.96484375 c 0,8,9
 1173 18 1173 18 1168.78710938 8.841796875 c 0,10,11
 1164 0 1164 0 1158.37695312 0 c 2,12,-1
 1135.1875 0 l 2,13,14
 802.36588499 1.13686837722e-13 802.36588499 1.13686837722e-13 618.990234375 141.657226562 c 2,15,-1
 617.05859375 143.149414062 l 1,16,-1
 615.205078125 141.5625 l 2,17,18
 450 0 450 0 17.048828125 0 c 2,19,-1
 -6.9384765625 0 l 2,20,21
 -64.7783203125 0 -64.7783203125 0 -64.7783203125 88.3134765625 c 6,22,-1
 -64.7783203125 107.186523438 l 6,23,24
 -64.9999802718 183.993164062 -64.9999802718 183.993164062 -6.9384765625 183.993164062 c 2,25,-1
 20.412109375 183.993164062 l 2,26,27
 362.550524024 183.999991031 362.550524024 183.999991031 461.223632812 249.458984375 c 2,28,-1
 465.299804688 252.163085938 l 1,29,-1
 461.041992188 254.5703125 l 2,30,31
 158 426 158 426 158.196289062 590.969726562 c 0,32,33
 158 695 158 695 316.348632812 765.732421875 c 0,34,35
 425 815 425 815 619.06640625 815.635742188 c 0,36,37
 807 817 807 817 924.775390625 767.598632812 c 0,38,39
 1074 705 1074 705 1074.2109375 595.969726562 c 0,40,41
 1074.00027944 450.193372344 1074.00027944 450.193372344 761.513671875 254.192382812 c 2,42,-1
 757.353515625 251.583007812 l 1,43,-1
 761.573242188 249.072265625 l 2,0,1
880.026367188 569.905273438 m 0,44,45
 880 632 880 632 613.612304688 631.665039062 c 0,46,47
 348 632 348 632 347.294921875 568.131835938 c 0,48,49
 347 545 347 545 378.069335938 513.204101562 c 0,50,51
 449.739697801 437.275766886 449.739697801 437.275766886 612.30078125 354.573242188 c 2,52,-1
 613.696289062 353.86328125 l 1,53,-1
 615.076171875 354.6015625 l 2,54,55
 764 434 764 434 848.2578125 520.859375 c 0,56,57
 880 553 880 553 880.026367188 569.905273438 c 0,44,45
EndSplineSet
EndChar

StartChar: uniFEDA
Encoding: 65242 65242 229
GlifName: uniF_E_D_A_
Width: 2071
VWidth: 2952
GlyphClass: 2
Flags: W
AnchorPoint: "Anchor-10" 978.11 1452.05 basechar 0
AnchorPoint: "Anchor-7" 750.268 -236.468 basechar 0
LayerCount: 2
Fore
SplineSet
716.16015625 702.014648438 m 1,0,1
 810 692 810 692 878.541992188 691.266601562 c 0,2,3
 985 691 985 691 1038.5078125 712.905273438 c 128,-1,4
 1092 735 1092 735 1092.74707031 781.642578125 c 0,5,6
 1093 825 1093 825 1062.24511719 850.521484375 c 0,7,8
 1032 877 1032 877 971.092773438 885.450195312 c 0,9,10
 757 918 757 918 760.930664062 1098.4921875 c 0,11,12
 766 1305 766 1305 1153.61035156 1333.55273438 c 1,13,-1
 1153.61035156 1204.98925781 l 1,14,15
 894 1181 894 1181 894.139648438 1090.4453125 c 0,16,17
 894 1016 894 1016 1032.91601562 994.756835938 c 0,18,19
 1226 965 1226 965 1225.36425781 786.126953125 c 0,20,21
 1225 667 1225 667 1106.39941406 600.239257812 c 0,22,23
 1031.21972656 558.532226562 1031.21972656 558.532226562 896 559.088867188 c 0,24,25
 816.465820312 559.416992188 816.465820312 559.416992188 716.16015625 574.366210938 c 1,26,-1
 716.16015625 702.014648438 l 1,0,1
952 184.198242188 m 0,27,28
 1045 184 1045 184 1149.71875 194.809570312 c 0,29,30
 1638 245 1638 245 1631.82910156 521.963867188 c 1,31,-1
 1631.82910156 1405.27539062 l 1,32,-1
 1809.70996094 1405.27539062 l 1,33,-1
 1809.70996094 522.920898438 l 2,34,35
 1809.99976099 184.279296875 1809.99976099 184.279296875 2055.68261719 184.279296875 c 2,36,-1
 2078.84570312 184.279296875 l 2,37,38
 2098.95703125 184.000595458 2098.95703125 184.000595458 2098.95703125 111.889648438 c 2,39,-1
 2098.95703125 88.3203125 l 2,40,41
 2099 0 2099 0 2078.875 0 c 2,42,-1
 2047.96875 0 l 2,43,44
 1770.55073089 0 1770.55073089 0 1695.5234375 233.286132812 c 1,45,46
 1615.63847259 119.213015541 1615.63847259 119.213015541 1432.52148438 58.119140625 c 4,47,48
 1257 0 1257 0 942.133789062 0 c 0,49,50
 451 0 451 0 265.690429688 135.786132812 c 0,51,52
 100 256 100 256 99.1611328125 504.530273438 c 0,53,54
 99 638 99 638 145.662109375 742.786132812 c 1,55,-1
 303.43359375 674.241210938 l 1,56,57
 277 606 277 606 278.453125 516.880859375 c 0,58,59
 280 353 280 353 400.619140625 277.517578125 c 0,60,61
 548 185 548 185 952 184.198242188 c 0,27,28
EndSplineSet
EndChar

StartChar: uniFEDB
Encoding: 65243 65243 230
GlifName: uniF_E_D_B_
Width: 950
VWidth: 2952
GlyphClass: 2
Flags: W
AnchorPoint: "Anchor-7" 310.991 -231.935 basechar 0
AnchorPoint: "Anchor-10" 301.533 1455.33 basechar 0
LayerCount: 2
Fore
SplineSet
218.57421875 1008.55957031 m 1,0,1
 480 790 480 790 600.765625 659.663085938 c 0,2,3
 731 519 731 519 728.217773438 350.357421875 c 0,4,5
 722 0 722 0 135.612304688 0 c 2,6,-1
 -6.9384765625 0 l 2,7,8
 -64.7783203125 0 -64.7783203125 0 -64.7783203125 88.3134765625 c 6,9,-1
 -64.7783203125 107.186523438 l 6,10,11
 -64.9999802718 183.993164062 -64.9999802718 183.993164062 -6.9384765625 183.993164062 c 2,12,-1
 134.782226562 183.993164062 l 2,13,14
 548 184 548 184 548.724609375 375.118164062 c 0,15,16
 549 473 549 473 445.169921875 570.141601562 c 0,17,18
 292 713 292 713 172 807 c 0,19,20
 58 896 58 896 57.9189453125 994.458007812 c 0,21,22
 57.9997742016 1123.63912793 57.9997742016 1123.63912793 198.114257812 1176.84570312 c 2,23,-1
 891.37109375 1440.10058594 l 1,24,-1
 891.37109375 1259.46289062 l 1,25,-1
 218.57421875 1008.55957031 l 1,26,-1
 218.57421875 1008.55957031 l 1,0,1
EndSplineSet
EndChar

StartChar: uniFEDC
Encoding: 65244 65244 231
GlifName: uniF_E_D_C_
Width: 1027
VWidth: 2952
GlyphClass: 2
Flags: W
AnchorPoint: "Anchor-10" 254.533 1442.33 basechar 0
AnchorPoint: "Anchor-7" 310.991 -231.935 basechar 0
LayerCount: 2
Fore
SplineSet
218.57421875 1008.55957031 m 1,0,1
 480 790 480 790 600.765625 659.663085938 c 0,2,3
 682 572 682 572 730.073242188 434.880859375 c 24,4,5
 818 184 818 184 1017.9140625 184 c 2,6,-1
 1034.24707031 184 l 2,7,8
 1054.32421875 184 1054.32421875 184 1054.32421875 107.174804688 c 2,9,-1
 1054.32421875 88.3046875 l 2,10,11
 1054 0 1054 0 1034.24609375 0 c 2,12,-1
 1017.80761719 0 l 2,13,14
 801 0 801 0 669 176.771484375 c 1,15,16
 555 0 555 0 135.612304688 0 c 2,17,-1
 -6.9384765625 0 l 2,18,19
 -64.7783203125 0 -64.7783203125 0 -64.7783203125 88.3134765625 c 6,20,-1
 -64.7783203125 107.186523438 l 6,21,22
 -64.9999802718 183.993164062 -64.9999802718 183.993164062 -6.9384765625 183.993164062 c 2,23,-1
 134.782226562 183.993164062 l 2,24,25
 548 184 548 184 548.724609375 375.118164062 c 0,26,27
 549 473 549 473 445.169921875 570.141601562 c 0,28,29
 292 713 292 713 172 807 c 0,30,31
 58 896 58 896 57.9189453125 994.458007812 c 0,32,33
 57.9997742016 1123.63912793 57.9997742016 1123.63912793 198.114257812 1176.84570312 c 2,34,-1
 891.37109375 1440.10058594 l 1,35,-1
 891.37109375 1259.46289062 l 1,36,-1
 218.57421875 1008.55957031 l 1,0,1
EndSplineSet
EndChar

StartChar: uniFEDE
Encoding: 65246 65246 233
GlifName: uniF_E_D_E_
Width: 1526
VWidth: 2952
GlyphClass: 2
Flags: W
AnchorPoint: "Anchor-7" 681.902 -756.086 basechar 0
AnchorPoint: "Anchor-10" 593.908 1171.66 basechar 0
LayerCount: 2
Fore
SplineSet
1113.60449219 99.8037109375 m 2,0,-1
 1115.91699219 1406.92285156 l 5,1,-1
 1287.88574219 1406.92285156 l 5,2,-1
 1287.30175781 395.185546875 l 2,3,4
 1287.00039908 184.279296875 1287.00039908 184.279296875 1514.70410156 184.279296875 c 2,5,-1
 1534.79785156 184.279296875 l 2,6,7
 1554.90722656 184.001282603 1554.90722656 184.001282603 1554.90722656 111.889648438 c 2,8,-1
 1554.90722656 88.3037109375 l 2,9,10
 1555 0 1555 0 1534.82714844 0 c 2,11,-1
 1510.3515625 0 l 2,12,13
 1355 0 1355 0 1279.98144531 75.3076171875 c 1,14,15
 1255 -520 1255 -520 680.885742188 -519.734375 c 0,16,17
 101 -520 101 -520 102.734965479 37.3421810873 c 0,18,19
 103 141 103 141 123.46484375 241.438476562 c 0,20,21
 145 345 145 345 186.329101562 446.47265625 c 1,22,-1
 344.853515625 381.1328125 l 1,23,24
 278 211 278 211 278.24609375 38.1865234375 c 0,25,26
 278 -343 278 -343 681.785166907 -343.226773524 c 0,27,28
 1113 -343 1113 -343 1113.60449219 99.8037109375 c 2,0,-1
EndSplineSet
EndChar

StartChar: uniFEDF
Encoding: 65247 65247 234
GlifName: uniF_E_D_F_
Width: 635
VWidth: 2952
GlyphClass: 2
Flags: W
AnchorPoint: "Anchor-10" 385.751 1548.65 basechar 0
AnchorPoint: "Anchor-7" 279.812 -236.234 basechar 0
LayerCount: 2
Fore
SplineSet
-6.9384765625 0 m 2,0,1
 -64.7783203125 0 -64.7783203125 0 -64.7783203125 88.3134765625 c 2,2,-1
 -64.7783203125 107.186523438 l 2,3,4
 -64.9999802718 183.993164062 -64.9999802718 183.993164062 -6.9384765625 183.993164062 c 2,5,-1
 41.482421875 183.993164062 l 2,6,7
 308.313476562 184.091928772 308.313476562 184.091928772 308.313476562 434.663085938 c 2,8,-1
 308.313476562 1408.171875 l 5,9,-1
 481.627929688 1408.171875 l 5,10,-1
 481.627929688 428.965820312 l 2,11,12
 482 0 482 0 36.2861328125 0 c 2,13,-1
 -6.9384765625 0 l 2,0,1
EndSplineSet
EndChar

StartChar: uniFEE0
Encoding: 65248 65248 235
GlifName: uniF_E_E_0
Width: 718
VWidth: 2952
GlyphClass: 2
Flags: W
AnchorPoint: "Anchor-7" 279.812 -236.234 basechar 0
AnchorPoint: "Anchor-10" 392.751 1548.65 basechar 0
LayerCount: 2
Fore
SplineSet
42.5927734375 0 m 2,0,-1
 -6.9384765625 0 l 2,1,2
 -64.7783203125 0 -64.7783203125 0 -64.7783203125 88.3134765625 c 2,3,-1
 -64.7783203125 107.186523438 l 2,4,5
 -64.9999802718 183.993164062 -64.9999802718 183.993164062 -6.9384765625 183.993164062 c 2,6,-1
 45.109375 183.993164062 l 2,7,8
 311.062362694 184.000001603 311.062362694 184.000001603 312.081054688 391.180664062 c 2,9,-1
 317.081054688 1408.07617188 l 5,10,-1
 489.739257812 1408.07617188 l 5,11,-1
 489.739257812 391.1953125 l 2,12,13
 490.000008603 183.993164062 490.000008603 183.993164062 705.545898438 183.993164062 c 2,14,-1
 722.994140625 183.993164062 l 2,15,16
 746.80078125 183.99994327 746.80078125 183.99994327 746.80078125 107.174804688 c 2,17,-1
 746.80078125 88.298828125 l 2,18,19
 747 0 747 0 722.993164062 0 c 2,20,-1
 708.065429688 0 l 2,21,22
 493 0 493 0 392.25390625 141.560546875 c 1,23,24
 295 0 295 0 42.5927734375 0 c 2,0,-1
EndSplineSet
EndChar

StartChar: uniFEE2
Encoding: 65250 65250 237
GlifName: uniF_E_E_2
Width: 1306
VWidth: 2622
GlyphClass: 2
Flags: W
AnchorPoint: "Anchor-10" 769.239 1142.48 basechar 0
AnchorPoint: "Anchor-7" 724.983 -336.909 basechar 0
LayerCount: 2
Fore
SplineSet
847 159 m 0,0,1
 975 158 975 158 972.357421875 297.700195312 c 0,2,3
 971 356 971 356 948.490234375 407.854492188 c 0,4,5
 901 515 901 515 791.799804688 516.004882812 c 0,6,7
 656 518 656 518 581.365234375 308.6015625 c 1,8,9
 753 159 753 159 847 159 c 0,0,1
1313.78417969 183.999023438 m 2,10,11
 1333.86816406 183.999023438 1333.86816406 183.999023438 1333.86816406 107.174804688 c 2,12,-1
 1333.86816406 88.31640625 l 2,13,14
 1334 0 1334 0 1313.78808594 0 c 2,15,-1
 1298.09472656 0 l 2,16,17
 1176 0 1176 0 1104.21582031 111.662109375 c 5,18,19
 1027 -23 1027 -23 858 -23.310546875 c 28,20,21
 783 -23 783 -23 674 27.71875 c 0,22,23
 635 46 635 46 538 104.75 c 0,24,25
 480 140 480 140 428.370117188 137.747070312 c 0,26,27
 275 134 275 134 275.751953125 -338 c 0,28,29
 276 -534 276 -534 289.813476562 -694.813476562 c 1,30,-1
 110.231445312 -694.813476562 l 1,31,32
 99 -525 99 -525 99.0615234375 -334 c 0,33,34
 99 3 99 3 178 159 c 0,35,36
 256 312 256 312 392.665039062 332.708007812 c 1,37,38
 539 704 539 704 790.586914062 704.528320312 c 0,39,40
 951 705 951 705 1046.6015625 585.845703125 c 0,41,42
 1108 510 1108 510 1136.98632812 371.934570312 c 0,43,44
 1177.00020792 183.999023438 1177.00020792 183.999023438 1298.39648438 183.999023438 c 2,45,-1
 1313.78417969 183.999023438 l 2,10,11
EndSplineSet
EndChar

StartChar: uniFEE3
Encoding: 65251 65251 238
GlifName: uniF_E_E_3
Width: 1040
VWidth: 2952
GlyphClass: 2
Flags: W
AnchorPoint: "Anchor-10" 573.952 1092.2 basechar 0
AnchorPoint: "Anchor-7" 504.594 -235.063 basechar 0
LayerCount: 2
Fore
SplineSet
630.723632812 156.75 m 0,0,1
 771.256835938 156.75 771.256835938 156.75 771.256835938 293.918945312 c 0,2,3
 771.256835938 358.529296875 771.256835938 358.529296875 750.561523438 406 c 0,4,5
 703.364257812 515.158203125 703.364257812 515.158203125 590.614257812 515.158203125 c 0,6,7
 453.413085938 515.158203125 453.413085938 515.158203125 379.541015625 308.028320312 c 1,8,9
 511.346679688 156.75 511.346679688 156.75 630.723632812 156.75 c 0,0,1
293.192382812 142.71484375 m 1,10,11
 170 0 170 0 12.720703125 0 c 2,12,-1
 -8.1171875 0 l 2,13,14
 -64.7783203125 0 -64.7783203125 0 -64.7783203125 88.3134765625 c 2,15,-1
 -64.7783203125 107.192382812 l 2,16,17
 -64.9999802703 183.993164062 -64.9999802703 183.993164062 -8.1171875 183.993164062 c 2,18,-1
 8.3251953125 183.993164062 l 2,19,20
 89 184 89 184 167.541992188 278.454101562 c 0,21,22
 202 320 202 320 243.51171875 413.689453125 c 0,23,24
 375 704 375 704 587.327148438 704.532226562 c 0,25,26
 752 705 752 705 847.42578125 586.094726562 c 0,27,28
 942 468 942 468 942.474609375 308.60546875 c 0,29,30
 942 154 942 154 875.41796875 75.3955078125 c 0,31,32
 792 -22 792 -22 645.20374701 -22.2431711123 c 0,33,34
 451 -22 451 -22 293.192382812 142.71484375 c 1,10,11
EndSplineSet
EndChar

StartChar: uniFEE4
Encoding: 65252 65252 239
GlifName: uniF_E_E_4
Width: 1102
VWidth: 2952
GlyphClass: 2
Flags: W
AnchorPoint: "Anchor-7" 524.594 -235.063 basechar 0
AnchorPoint: "Anchor-10" 569.952 1149.2 basechar 0
LayerCount: 2
Fore
SplineSet
631.907226562 156.75390625 m 0,0,1
 776.749023438 155.985351562 776.749023438 155.985351562 774.428710938 295.845703125 c 0,2,3
 773 354 773 354 750.561523438 406 c 0,4,5
 703 514 703 514 588.87109375 515.151367188 c 0,6,7
 454 517 454 517 379.541015625 308.028320312 c 1,8,9
 509 158 509 158 631.907226562 156.75390625 c 0,0,1
642.9296875 -22.2373046875 m 0,10,11
 459 -22 459 -22 293.192382812 142.71484375 c 1,12,13
 170 0 170 0 12.720703125 0 c 2,14,-1
 -8.1171875 0 l 2,15,16
 -64.7783203125 0 -64.7783203125 0 -64.7783203125 88.3134765625 c 6,17,-1
 -64.7783203125 107.192382812 l 6,18,19
 -64.9999802703 183.993164062 -64.9999802703 183.993164062 -8.1171875 183.993164062 c 2,20,-1
 8.3251953125 183.993164062 l 2,21,22
 100 184 100 184 168.624023438 278.499023438 c 0,23,24
 205 328 205 328 243.51171875 414.689453125 c 0,25,26
 374 704 374 704 586.985351562 704.528320312 c 0,27,28
 749 705 749 705 843 585.845703125 c 0,29,30
 910 500 910 500 937.384765625 371.934570312 c 0,31,32
 977.000205852 183.999023438 977.000205852 183.999023438 1094.79492188 183.999023438 c 2,33,-1
 1110.18261719 183.999023438 l 2,34,35
 1130.26757812 184.000013186 1130.26757812 184.000013186 1130.26757812 107.174804688 c 2,36,-1
 1130.26757812 88.328125 l 2,37,38
 1130 0 1130 0 1110.18652344 0 c 2,39,-1
 1094.49414062 0 l 2,40,41
 978 0 978 0 905.616210938 111.5703125 c 1,42,43
 820 -22 820 -22 642.9296875 -22.2373046875 c 0,10,11
EndSplineSet
EndChar

StartChar: uniFEEA
Encoding: 65258 65258 245
GlifName: uniF_E_E_A_
Width: 1053
VWidth: 2952
GlyphClass: 2
Flags: W
AnchorPoint: "Anchor-10" 677.464 1224.36 basechar 0
AnchorPoint: "Anchor-7" 474.642 -234.09 basechar 0
LayerCount: 2
Fore
SplineSet
100.943359375 405.712890625 m 4,0,1
 101 700 101 700 619.993164062 859.270507812 c 5,2,-1
 611.408203125 904.983398438 l 5,3,-1
 773.586914062 938.4296875 l 5,4,-1
 856.107421875 347.241210938 l 6,5,6
 878.99609375 184.029296875 878.99609375 184.029296875 1041.53613281 184.029296875 c 6,7,-1
 1061.72070312 184.029296875 l 6,8,9
 1081.80859375 184 1081.80859375 184 1081.80859375 111.889648438 c 6,10,-1
 1081.80859375 88.2998046875 l 6,11,12
 1082 0 1082 0 1061.72753906 0 c 6,13,-1
 1038.38085938 0 l 6,14,15
 764 0 764 0 714.623046875 226.744140625 c 5,16,17
 595 122 595 122 446.408203125 122 c 4,18,19
 223 122 223 122 135.467773438 267.764648438 c 4,20,21
 101 325 101 325 100.943359375 405.712890625 c 4,0,1
641.043945312 692.434570312 m 6,22,23
 278.999023438 561.684570312 278.999023438 561.684570312 278.603515625 417.997070312 c 4,24,25
 279 296 279 296 439.5 295.897460938 c 4,26,27
 517 296 517 296 593.701171875 342.989257812 c 4,28,29
 689.971679688 401.982421875 689.971679688 401.982421875 669.544921875 533.01171875 c 6,30,-1
 648.8125 666 l 4,31,-1
 644.497070312 693.681640625 l 5,32,-1
 641.043945312 692.434570312 l 6,22,23
EndSplineSet
EndChar

StartChar: uniFEEB
Encoding: 65259 65259 246
GlifName: uniF_E_E_B_
Width: 1395
VWidth: 2952
GlyphClass: 2
Flags: W
AnchorPoint: "Anchor-10" 625.134 1312.79 basechar 0
AnchorPoint: "Anchor-7" 530.852 -237.953 basechar 0
LayerCount: 2
Fore
SplineSet
95.4453125 0 m 2,0,-1
 -6.9384765625 0 l 2,1,2
 -64.7783203125 0 -64.7783203125 0 -64.7783203125 88.3134765625 c 2,3,-1
 -64.7783203125 107.186523438 l 2,4,5
 -64.9999802718 183.993164062 -64.9999802718 183.993164062 -6.9384765625 183.993164062 c 2,6,-1
 258 183.993164062 l 0,7,-1
 307.547851562 183.993164062 l 1,8,9
 266 213 266 213 240.334960938 243.45703125 c 0,10,11
 163 332 163 332 163.629882812 440.639648438 c 0,12,13
 164 563 164 563 249.045898438 661.1328125 c 0,14,15
 353 782 353 782 515.150390625 782.310546875 c 0,16,17
 664 782 664 782 763.11328125 688.374023438 c 0,18,19
 848 609 848 609 848.993164062 484.8203125 c 0,20,21
 849 304 849 304 691.041992188 206.763671875 c 1,22,23
 852 184 852 184 899.43359375 183.66015625 c 0,24,25
 967 184 967 184 1003.67382812 198.219726562 c 0,26,27
 1113 241 1113 241 1113.69726562 355.637695312 c 0,28,29
 1116 597 1116 597 543.12109375 872.805664062 c 1,30,-1
 630.221679688 1026.29296875 l 1,31,32
 1299 701 1299 701 1293.43554688 355 c 0,33,34
 1291 207 1291 207 1202.50683594 109.940429688 c 0,35,36
 1105 1 1105 1 898.586914062 0.529296875 c 4,37,38
 743 -0 743 -0 515.903320312 72.001953125 c 1,39,40
 273 0 273 0 95.4453125 0 c 2,0,-1
620.763671875 332.3828125 m 0,41,42
 689 398 689 398 691.611328125 477.108398438 c 0,43,44
 692.003674699 528.898146141 692.003674699 528.898146141 662.737304688 561.02734375 c 0,45,46
 609 620 609 620 523.657226562 620.331054688 c 0,47,48
 422 620 422 620 369.583984375 533.057617188 c 0,49,50
 346 493 346 493 345.1875 436.844726562 c 0,51,52
 345 374 345 374 406.4140625 318.735351562 c 0,53,54
 434 294 434 294 467 278.624859429 c 0,55,56
 491 267 491 267 517.475585938 260.5078125 c 1,57,58
 532 267 532 267 547 276.273705767 c 0,59,60
 589.201111481 302.470099053 589.201111481 302.470099053 620.763671875 332.3828125 c 0,41,42
EndSplineSet
EndChar

StartChar: uniFEEC
Encoding: 65260 65260 247
GlifName: uniF_E_E_C_
Width: 992
VWidth: 2952
GlyphClass: 2
Flags: W
AnchorPoint: "Anchor-7" 587.16 -737.603 basechar 0
AnchorPoint: "Anchor-10" 512.648 1207.04 basechar 0
LayerCount: 2
Fore
SplineSet
573.336914062 -345.236328125 m 1,0,1
 573.999998776 183.999023438 573.999998776 183.999023438 977.904296875 183.999023438 c 2,2,-1
 999.852539062 183.999023438 l 2,3,4
 1019.93457031 183.999996829 1019.93457031 183.999996829 1019.93457031 107.174804688 c 2,5,-1
 1019.93457031 88.3349609375 l 2,6,7
 1020 0 1020 0 999.85546875 0 c 2,8,-1
 975.525390625 0 l 2,9,10
 688 0 688 0 728.909179688 -451.33984375 c 1,11,-1
 606.208984375 -569.741210938 l 1,12,13
 272 -412 272 -412 204.737304688 0 c 1,14,-1
 -6.9384765625 0 l 2,15,16
 -64.7783203125 0 -64.7783203125 0 -64.7783203125 88.3134765625 c 2,17,-1
 -64.7783203125 107.186523438 l 2,18,19
 -64.9999971817 183.999023438 -64.9999971817 183.999023438 -6.919921875 183.999023438 c 2,20,-1
 191.975585938 183.999023438 l 1,21,22
 212 613 212 613 354.795898438 766.7421875 c 0,23,24
 437 855 437 855 558.5 855 c 128,-1,25
 680 855 680 855 751.5 768.5 c 128,-1,26
 823 682 823 682 821.58984375 527.955078125 c 0,27,28
 819 329 819 329 679.830078125 166.149414062 c 0,29,30
 545 7 545 7 367.930664062 -1.2685546875 c 1,31,32
 408 -238 408 -238 573.336914062 -345.236328125 c 1,0,1
358.877929688 182.854492188 m 1,33,34
 476 186 476 186 567.70703125 284.220703125 c 0,35,36
 659 382 659 382 659.1796875 533.799804688 c 0,37,38
 659 664 659 664 559.557617188 667.194335938 c 0,39,40
 380 673 380 673 358.877929688 182.854492188 c 1,33,34
EndSplineSet
EndChar

StartChar: uniFEEE
Encoding: 65262 65262 249
GlifName: uniF_E_E_E_
Width: 883
VWidth: 2144
GlyphClass: 2
Flags: W
AnchorPoint: "Anchor-10" 443.256 1112.2 basechar 0
AnchorPoint: "Anchor-7" 382.969 -667.998 basechar 0
LayerCount: 2
Fore
SplineSet
620.629882812 184 m 5,0,1
 598 534 598 534 427.405273438 535.124023438 c 4,2,3
 333 536 333 536 290.426757812 414.928710938 c 4,4,5
 272 362 272 362 272.159179688 312.5625 c 4,6,7
 272 184 272 184 458.954101562 184 c 6,8,9
 620.629882812 184 l 5,0,1
788 183 m 5,10,11
 890.961914062 182.999023438 l 6,12,13
 911.025390625 183 911.025390625 183 911.025390625 97.64453125 c 6,14,-1
 911.025390625 88.208984375 l 6,15,16
 911 -0.19140625 911 -0.19140625 890.98828125 0 c 6,17,-1
 778.84765625 1.0712890625 l 5,18,19
 700 -450 700 -450 104.361328125 -510.159179688 c 5,20,-1
 61.7744140625 -338.795898438 l 5,21,22
 530 -287 530 -287 615.099609375 0 c 5,23,24
 469.180664062 0 l 6,25,26
 103 0 103 0 103.004882812 298.353515625 c 4,27,28
 103 419 103 419 154.661132812 527.4609375 c 4,29,30
 249 724 249 724 439.10546875 724.077148438 c 4,31,32
 742 724 742 724 788 183 c 5,10,11
EndSplineSet
EndChar

StartChar: uniFEF0
Encoding: 65264 65264 251
GlifName: uniF_E_F_0
Width: 1513
VWidth: 2952
GlyphClass: 2
Flags: W
AnchorPoint: "Anchor-7" 671.902 -756.086 basechar 0
AnchorPoint: "Anchor-10" 769.6 771.22 basechar 0
LayerCount: 2
Fore
SplineSet
1519.43554688 183.999023438 m 6,0,1
 1539.51953125 183.999023438 1539.51953125 183.999023438 1539.51953125 107.174804688 c 6,2,-1
 1539.51953125 88.330078125 l 6,3,4
 1540 0 1540 0 1519.45605469 0 c 6,5,-1
 1377 0 l 4,6,-1
 1352.45410156 0 l 5,7,8
 1409 -44 1409 -44 1409.44921875 -113.080078125 c 4,9,10
 1409 -266 1409 -266 1228.48046875 -382.889648438 c 4,11,12
 1020 -518 1020 -518 736.380859375 -518.30859375 c 4,13,14
 101.541691779 -517.999289488 101.541691779 -517.999289488 102.544495235 -0.200460064994 c 0,15,16
 103 235 103 235 194.2734375 433.208984375 c 1,17,-1
 353.001953125 367.786132812 l 1,18,19
 278 178 278 178 278.268554688 11.8798828125 c 0,20,21
 278.001309756 -340.274108156 278.001309756 -340.274108156 735.47265625 -341.521484375 c 4,22,23
 908 -342 908 -342 1051.453125 -277.518554688 c 4,24,25
 1166 -226 1166 -226 1214.91992188 -152.026367188 c 4,26,27
 1238 -117 1238 -117 1237.83691406 -84.654296875 c 4,28,29
 1237.99913758 0.547046710571 1237.99913758 0.547046710571 1106.36816406 0.7275390625 c 6,30,-1
 953.24609375 0.9375 l 5,31,32
 895 7 895 7 873.953125 94.537109375 c 4,33,34
 864 137 864 137 863.69140625 156.90625 c 4,35,36
 864 180 864 180 874.831054688 183.999023438 c 5,37,-1
 1519.43554688 183.999023438 l 6,0,1
EndSplineSet
EndChar

StartChar: uniFEFB
Encoding: 65275 65275 262
GlifName: uniF_E_F_B_
Width: 1219
VWidth: 2952
GlyphClass: 3
Flags: W
AnchorPoint: "Anchor-9" 219.642 1494.64 baselig 1
AnchorPoint: "Anchor-6" 288.021 -242.333 baselig 1
AnchorPoint: "Anchor-6" 925.078 -238.55 baselig 0
AnchorPoint: "Anchor-9" 975.01 1545.81 baselig 0
LayerCount: 2
Fore
SplineSet
260.213867188 1347.9921875 m 5,0,1
 549 652 549 652 662.92578125 223.0625 c 1,2,3
 893.058176773 296.018443042 893.058176773 296.018443042 893.17578125 639.9765625 c 2,4,-1
 893.438476562 1408.28222656 l 5,5,-1
 1066.47070312 1408.28222656 l 5,6,-1
 1066.47070312 638.663085938 l 2,7,8
 1066 3 1066 3 396.33984375 3.1279296875 c 0,9,10
 258 3 258 3 173.040039062 18.6806640625 c 1,11,-1
 173.041992188 199.889648438 l 1,12,13
 344 178 344 178 500.444335938 188.280273438 c 1,14,15
 385 588 385 588 95.4189453125 1253.69726562 c 5,16,-1
 260.213867188 1347.9921875 l 5,0,1
EndSplineSet
LCarets2: 1 0
Ligature2: "'rlig' Required Ligatures in Arabic lookup 16 subtable" uniFEDF uniFE8E
EndChar

StartChar: uniFEFC
Encoding: 65276 65276 263
GlifName: uniF_E_F_C_
Width: 1293
VWidth: 2952
GlyphClass: 3
Flags: W
AnchorPoint: "Anchor-9" 984.01 1545.81 baselig 0
AnchorPoint: "Anchor-9" 221.642 1488.64 baselig 1
AnchorPoint: "Anchor-6" 925.078 -238.55 baselig 0
AnchorPoint: "Anchor-6" 288.021 -242.333 baselig 1
LayerCount: 2
Fore
SplineSet
662.92578125 223.0625 m 1,0,1
 893.058176773 296.018443042 893.058176773 296.018443042 893.17578125 639.9765625 c 2,2,-1
 893.438476562 1408.28222656 l 5,3,-1
 1066.47070312 1408.28222656 l 5,4,-1
 1066.47070312 548.663085938 l 2,5,6
 1065.99999874 183.999023438 1065.99999874 183.999023438 1276.61425781 183.999023438 c 2,7,-1
 1302.09667969 183.999023438 l 2,8,9
 1322.1796875 184.000008816 1322.1796875 184.000008816 1322.1796875 107.174804688 c 2,10,-1
 1322.1796875 88.3232421875 l 2,11,12
 1322 0 1322 0 1302.09960938 0 c 2,13,-1
 1263.0859375 0 l 2,14,15
 1020 0 1020 0 955 226.224609375 c 1,16,17
 793 3 793 3 396.33984375 3.1279296875 c 0,18,19
 258 3 258 3 173.040039062 18.6806640625 c 1,20,-1
 173.041992188 199.889648438 l 1,21,22
 341 178 341 178 500.444335938 188.280273438 c 1,23,24
 384 586 384 586 95.4189453125 1253.69726562 c 5,25,-1
 260.213867188 1347.9921875 l 5,26,27
 549 652 549 652 662.92578125 223.0625 c 1,0,1
EndSplineSet
LCarets2: 1 0
Ligature2: "'rlig' Required Ligatures in Arabic lookup 16 subtable" uniFEE0 uniFE8E
EndChar

StartChar: arabic_dot
Encoding: 65536 -1 264
GlifName: arabic_dot
Width: 193
VWidth: 2646
GlyphClass: 2
Flags: W
LayerCount: 2
Fore
SplineSet
-39.638671875 102.962890625 m 1,0,-1
 96.3154296875 238.918945312 l 1,1,-1
 233.028320312 102.206054688 l 1,2,-1
 97.0732421875 -33.75 l 1,3,-1
 -39.638671875 102.962890625 l 1,0,-1
EndSplineSet
EndChar

StartChar: arabic_2dots
Encoding: 65537 -1 265
GlifName: arabic_2dots
Width: 514
VWidth: 2646
GlyphClass: 2
Flags: W
LayerCount: 2
Fore
SplineSet
274.178710938 102.962890625 m 1,0,-1
 410.133789062 238.918945312 l 1,1,-1
 546.846679688 102.206054688 l 1,2,-1
 410.890625 -33.75 l 1,3,-1
 274.178710938 102.962890625 l 1,0,-1
-29.638671875 102.962890625 m 5,4,-1
 106.315429688 238.918945312 l 5,5,-1
 243.028320312 102.206054688 l 5,6,-1
 107.073242188 -33.75 l 5,7,-1
 -29.638671875 102.962890625 l 5,4,-1
EndSplineSet
EndChar

StartChar: arabic_3dots
Encoding: 65538 -1 266
GlifName: arabic_3dots
Width: 514
VWidth: 2646
GlyphClass: 2
Flags: W
LayerCount: 2
Fore
SplineSet
123.201171875 334.940429688 m 1,0,-1
 255.9765625 467.716796875 l 1,1,-1
 389.508789062 334.182617188 l 1,2,-1
 256.733398438 201.409179688 l 1,3,-1
 123.201171875 334.940429688 l 1,0,-1
277.359375 83.8486328125 m 1,4,-1
 410.133789062 216.623046875 l 1,5,-1
 543.666992188 83.091796875 l 1,6,-1
 410.890625 -49.6826171875 l 1,7,-1
 277.359375 83.8486328125 l 1,4,-1
-26.458984375 83.8486328125 m 1,8,-1
 106.315429688 216.623046875 l 1,9,-1
 239.848632812 83.091796875 l 1,10,-1
 107.073242188 -49.6826171875 l 1,11,-1
 -26.458984375 83.8486328125 l 1,8,-1
EndSplineSet
EndChar

StartChar: arabic_3dots_a
Encoding: 65539 -1 267
GlifName: arabic_3dots_a
Width: 514
VWidth: 2646
GlyphClass: 2
Flags: W
LayerCount: 2
Fore
SplineSet
123.201171875 -134.268554688 m 5,0,-1
 256.733398438 -0.7373046875 l 5,1,-1
 389.508789062 -133.51171875 l 5,2,-1
 255.9765625 -267.044921875 l 5,3,-1
 123.201171875 -134.268554688 l 5,0,-1
277.359375 116.822265625 m 1,4,-1
 410.890625 250.354492188 l 1,5,-1
 543.666992188 117.580078125 l 1,6,-1
 410.133789062 -15.953125 l 1,7,-1
 277.359375 116.822265625 l 1,4,-1
-26.458984375 116.822265625 m 1,8,-1
 107.073242188 250.354492188 l 1,9,-1
 239.848632812 117.580078125 l 1,10,-1
 106.315429688 -15.953125 l 1,11,-1
 -26.458984375 116.822265625 l 1,8,-1
EndSplineSet
EndChar

StartChar: uni066E.fina
Encoding: 65540 -1 268
GlifName: uni066E_.fina
Width: 1931
VWidth: 2952
GlyphClass: 2
Flags: W
AnchorPoint: "Anchor-10" 925.51 1427.59 basechar 0
AnchorPoint: "Anchor-7" 828.357 -257.261 basechar 0
LayerCount: 2
Fore
SplineSet
889.911132812 0 m 2,0,1
 99 0 99 0 99.16015625 485.872070312 c 0,2,3
 99 621 99 621 153.662109375 742.786132812 c 1,4,-1
 311.43359375 674.241210938 l 1,5,6
 278 590 278 590 278.4296875 512.912109375 c 0,7,8
 278 184 278 184 884.673828125 184.193359375 c 0,9,10
 1405 184 1405 184 1528 314 c 0,11,12
 1562 350 1562 350 1561.95410156 436.244140625 c 0,13,14
 1562.00012408 470.091252345 1562.00012408 470.091252345 1560.48046875 492.715820312 c 2,15,-1
 1554.98925781 574.46875 l 1,16,-1
 1719.79589844 593.81640625 l 1,17,-1
 1735.86816406 378.646484375 l 2,18,19
 1742 294 1742 294 1785.5 238.5 c 0,20,21
 1829.00077946 183.999023438 1829.00077946 183.999023438 1925.91796875 183.999023438 c 2,22,-1
 1939.05664062 183.999023438 l 2,23,24
 1959.140625 184.000006886 1959.140625 184.000006886 1959.140625 107.174804688 c 2,25,-1
 1959.140625 88.3271484375 l 2,26,27
 1959 0 1959 0 1939.05957031 0 c 2,28,-1
 1926.02246094 0 l 2,29,30
 1715 0 1715 0 1626 177 c 5,31,32
 1459 0 1459 0 894.356445312 0 c 2,33,-1
 889.911132812 0 l 2,0,1
EndSplineSet
EndChar

StartChar: uni06A1.fina
Encoding: 65543 -1 269
GlifName: uni06A_1.fina
Width: 2025
VWidth: 2952
GlyphClass: 2
Flags: W
AnchorPoint: "Anchor-10" 746.816 1573.03 basechar 0
AnchorPoint: "Anchor-7" 623.121 -309.592 basechar 0
LayerCount: 2
Fore
SplineSet
1423.671875 641.165039062 m 0,0,1
 1363.98144531 582 1363.98144531 582 1364.12597656 523.666992188 c 0,2,3
 1363.98144531 463 1363.98144531 463 1427.81054688 389.125 c 0,4,5
 1500.98144531 304 1500.98144531 304 1539.54589844 304.318359375 c 0,6,7
 1577.98144531 304 1577.98144531 304 1651.81640625 389.1328125 c 0,8,9
 1715.98144531 463 1715.98144531 463 1715.49804688 523.309570312 c 0,10,11
 1715.98144531 596 1715.98144531 596 1625.21777344 669.239257812 c 0,12,13
 1573.98144531 711 1573.98144531 711 1533.84277344 710.752929688 c 0,14,15
 1493.98144531 711 1493.98144531 711 1423.671875 641.165039062 c 0,0,1
1535.67871094 129.387695312 m 1,16,17
 1349 0 1349 0 894.356445312 0 c 2,18,-1
 859.911132812 0 l 2,19,20
 99 0 99 0 99.16015625 485.872070312 c 0,21,22
 99 621 99 621 153.662109375 742.786132812 c 1,23,-1
 311.43359375 674.241210938 l 5,24,25
 278 590 278 590 278.4296875 512.912109375 c 4,26,27
 278 184 278 184 871.258789062 184.193359375 c 0,28,29
 1238 184 1238 184 1348.23828125 217.169921875 c 1,30,31
 1189 350 1189 350 1188.6328125 534.500976562 c 0,32,33
 1189 710 1189 710 1386.625 847.0703125 c 0,34,35
 1457 896 1457 896 1540.03417969 895.918945312 c 0,36,37
 1621 896 1621 896 1681.09960938 859.739257812 c 0,38,39
 1892 732 1892 732 1891.62402344 523.001953125 c 0,40,41
 1892 349 1892 349 1731.23828125 217.19921875 c 1,42,43
 1824.01910025 183.993164062 1824.01910025 183.993164062 2000.82714844 183.993164062 c 2,44,-1
 2033.37109375 183.993164062 l 2,45,46
 2053.44824219 184.000156104 2053.44824219 184.000156104 2053.44824219 107.174804688 c 2,47,-1
 2053.44824219 88.3076171875 l 2,48,49
 2053 0 2053 0 2033.37011719 0 c 2,50,-1
 2003.02246094 0 l 2,51,52
 1708 0 1708 0 1535.67871094 129.387695312 c 1,16,17
EndSplineSet
EndChar

StartChar: uni06A1.init
Encoding: 65544 -1 270
GlifName: uni06A_1.init
Width: 914
VWidth: 2952
GlyphClass: 2
Flags: W
AnchorPoint: "Anchor-10" 427.443 1606.02 basechar 0
AnchorPoint: "Anchor-7" 347.886 -245.023 basechar 0
LayerCount: 2
Fore
SplineSet
445.805664062 371.76953125 m 0,0,1
 121 372 121 372 117.48828125 643.131835938 c 0,2,3
 117 686 117 686 125.118164062 725.951171875 c 0,4,5
 155 884 155 884 238.5 970 c 128,-1,6
 322 1056 322 1056 445.943359375 1055.88476562 c 0,7,8
 530 1056 530 1056 592.983398438 1015.12695312 c 0,9,10
 760 907 760 907 794.827148438 597.1796875 c 0,11,12
 802 532 802 532 802.217773438 474.327148438 c 0,13,14
 802 191 802 191 666.8203125 89.5859375 c 0,15,16
 547 0 547 0 244.868164062 0 c 2,17,-1
 -6.9384765625 0 l 2,18,19
 -64.7783203125 0 -64.7783203125 0 -64.7783203125 88.3134765625 c 6,20,-1
 -64.7783203125 107.186523438 l 6,21,22
 -64.9999971817 183.999023438 -64.9999971817 183.999023438 -6.9384765625 183.999023438 c 2,23,-1
 256.008789062 183.999023438 l 2,24,25
 637 184 637 184 645.580078125 382.131835938 c 0,26,27
 646 391 646 391 644.762695312 400.060546875 c 1,28,29
 553 372 553 372 445.805664062 371.76953125 c 0,0,1
281.516601562 670.258789062 m 0,30,31
 282 545 282 545 458.747070312 545.684570312 c 0,32,33
 543 546 543 546 629.188476562 571.928710938 c 1,34,35
 615 688 615 688 578.130859375 767.786132812 c 0,36,37
 529 876 529 876 439.456054688 876.30859375 c 0,38,39
 335 876 335 876 293.580078125 741.665039062 c 0,40,41
 282 704 282 704 281.516601562 670.258789062 c 0,30,31
EndSplineSet
EndChar

StartChar: uni06A1.medi
Encoding: 65545 -1 271
GlifName: uni06A_1.medi
Width: 1052
VWidth: 2952
GlyphClass: 2
Flags: W
AnchorPoint: "Anchor-10" 562.544 1388.06 basechar 0
AnchorPoint: "Anchor-7" 527.517 -245.023 basechar 0
LayerCount: 2
Fore
SplineSet
450.690429688 641.165039062 m 0,0,1
 391 582 391 582 391.14453125 523.666992188 c 0,2,3
 391 463 391 463 454.829101562 389.125 c 0,4,5
 528 304 528 304 566.563964844 304.318359375 c 0,6,7
 605 304 605 304 678.834960937 389.1328125 c 0,8,9
 743 463 743 463 742.516601562 523.309570312 c 0,10,11
 743 596 743 596 652.236328125 669.239257812 c 0,12,13
 601 711 601 711 560.861328125 710.752929688 c 0,14,15
 521 711 521 711 450.690429688 641.165039062 c 0,0,1
562.697265625 129.387695312 m 1,16,17
 389 0 389 0 34.2099609375 0 c 2,18,-1
 -6.9384765625 0 l 2,19,20
 -64.7783203125 0 -64.7783203125 0 -64.7783203125 88.3134765625 c 6,21,-1
 -64.7783203125 107.186523438 l 6,22,23
 -64.9992486991 183.739669274 -64.9992486991 183.739669274 -6.91015625 183.993164062 c 2,24,-1
 34.0419921875 184.171875 l 2,25,26
 294 185 294 185 375.256835938 217.169921875 c 1,27,28
 216 350 216 350 215.651367188 534.500976562 c 0,29,30
 216 710 216 710 413.643554688 847.0703125 c 0,31,32
 484 896 484 896 567.052734375 895.918945312 c 0,33,34
 648 896 648 896 708.118164062 859.739257812 c 0,35,36
 919 732 919 732 918.642578125 523.001953125 c 0,37,38
 919 349 919 349 758.256835938 217.19921875 c 1,39,40
 851.019096429 183.993164062 851.019096429 183.993164062 1027.84570312 183.993164062 c 2,41,-1
 1060.38964844 183.993164062 l 2,42,43
 1080.46679688 184.00016272 1080.46679688 184.00016272 1080.46679688 107.174804688 c 2,44,-1
 1080.46679688 88.3076171875 l 2,45,46
 1080 0 1080 0 1060.38867188 0 c 2,47,-1
 1030.04101562 0 l 2,48,49
 735 0 735 0 562.697265625 129.387695312 c 1,16,17
EndSplineSet
EndChar

StartChar: uni066F.fina
Encoding: 65546 -1 272
GlifName: uni066F_.fina
Width: 1526
VWidth: 2952
GlyphClass: 2
Flags: W
AnchorPoint: "Anchor-10" 404.297 1209.41 basechar 0
AnchorPoint: "Anchor-7" 539.744 -852.409 basechar 0
LayerCount: 2
Fore
SplineSet
738.130859375 -346.896484375 m 0,0,1
 1216 -347 1216 -347 1247.9140625 1 c 1,2,-1
 1098.99511719 1 l 2,3,4
 733 1 733 1 732.819335938 299.353515625 c 0,5,6
 733 420 733 420 784.475585938 528.4609375 c 0,7,8
 879 725 879 725 1068.91992188 725.077148438 c 0,9,10
 1372 725 1372 725 1417.81445312 184 c 1,11,-1
 1534.03417969 183.999023438 l 2,12,13
 1554.12207031 184.000005971 1554.12207031 184.000005971 1554.12207031 107.174804688 c 2,14,-1
 1554.12207031 88.318359375 l 2,15,16
 1553.99983182 -0.121676743257 1553.99983182 -0.121676743257 1534.08886719 0 c 2,17,-1
 1416.15429688 0.720703125 l 1,18,19
 1359 -523 1359 -523 738.6953125 -523.630859375 c 0,20,21
 530 -524 530 -524 390.413085938 -461.706054688 c 0,22,23
 247 -398 247 -398 175.318359375 -269.0703125 c 0,24,25
 104 -141 104 -141 102.776367188 49.203125 c 0,26,27
 102 279 102 279 202.822265625 495.627929688 c 1,28,-1
 361.548828125 430.205078125 l 1,29,30
 319 323 319 323 298.5234375 231.012695312 c 0,31,32
 278 138 278 138 278.278320312 57.1796875 c 0,33,34
 281 -347 281 -347 738.130859375 -346.896484375 c 0,0,1
1250.44433594 185 m 1,35,36
 1228 535 1228 535 1057.21972656 536.124023438 c 0,37,38
 962 537 962 537 920.241210938 415.928710938 c 0,39,40
 902 363 902 363 901.973632812 313.5625 c 0,41,42
 902 185 902 185 1088.76855469 185 c 2,43,-1
 1250.44433594 185 l 1,35,36
EndSplineSet
EndChar

StartChar: arabic_gaf_bar
Encoding: 65550 -1 273
GlifName: arabic_gaf_bar
Width: 751
VWidth: 2767
GlyphClass: 2
Flags: W
LayerCount: 2
Fore
SplineSet
737.040039062 1858.2578125 m 5,0,-1
 6.15625 1576.48242188 l 1,1,-1
 6.15625 1696.21191406 l 1,2,-1
 737.040039062 1977.984375 l 5,3,-1
 737.040039062 1858.2578125 l 5,0,-1
EndSplineSet
EndChar

StartChar: guillemotleft
Encoding: 171 171 283
GlifName: guillemotleft
Width: 1184
VWidth: 2318
Flags: W
LayerCount: 2
Fore
SplineSet
447.580078125 0.5234375 m 5,0,1
 136 464 136 464 135.052734375 523.873046875 c 4,2,3
 135 594 135 594 448.26953125 988.221679688 c 5,4,-1
 648.497070312 988.221679688 l 5,5,6
 337 593 337 593 337.157226562 522.572265625 c 4,7,8
 337 463 337 463 645.95703125 0.5234375 c 5,9,-1
 447.580078125 0.5234375 l 5,0,1
875.946289062 0.5234375 m 5,10,11
 563 464 563 464 562.80078125 523.872070312 c 4,12,13
 562 594 562 594 876.63671875 988.221679688 c 5,14,-1
 1076.86425781 988.221679688 l 5,15,16
 766 593 766 593 765.953125 527.342773438 c 4,17,18
 766 462 766 462 1074.32421875 0.5234375 c 5,19,-1
 875.946289062 0.5234375 l 5,10,11
EndSplineSet
EndChar

StartChar: guillemotright
Encoding: 187 187 284
GlifName: guillemotright
Width: 1184
VWidth: 2318
Flags: W
LayerCount: 2
Fore
SplineSet
736.336914062 0.5234375 m 5,0,1
 537.959960938 0.5234375 l 5,2,3
 846.916992188 463 846.916992188 463 846.759765625 522.572265625 c 4,4,5
 846.916992188 593 846.916992188 593 535.419921875 988.221679688 c 5,6,-1
 735.647460938 988.221679688 l 5,7,8
 1048.91699219 594 1048.91699219 594 1048.86425781 523.873046875 c 4,9,10
 1047.91699219 464 1047.91699219 464 736.336914062 0.5234375 c 5,0,1
307.970703125 0.5234375 m 5,11,-1
 109.592773438 0.5234375 l 5,12,13
 417.916992188 462 417.916992188 462 417.963867188 527.342773438 c 4,14,15
 417.916992188 593 417.916992188 593 107.052734375 988.221679688 c 5,16,-1
 307.280273438 988.221679688 l 5,17,18
 621.916992188 594 621.916992188 594 621.116210938 523.872070312 c 4,19,20
 620.916992188 464 620.916992188 464 307.970703125 0.5234375 c 5,11,-1
EndSplineSet
EndChar

StartChar: NameMe.302
Encoding: 65562 -1 293
GlifName: N_ameM_e.302
Width: 645
VWidth: 2952
Flags: W
LayerCount: 2
Fore
SplineSet
21.625 0 m 2,0,-1
 -6.9384765625 0 l 2,1,2
 -64.7783203125 0 -64.7783203125 0 -64.7783203125 88.3134765625 c 6,3,-1
 -64.7783203125 107.186523438 l 6,4,5
 -64.9999802718 183.993164062 -64.9999802718 183.993164062 -6.9384765625 183.993164062 c 2,6,-1
 24.140625 183.993164062 l 2,7,8
 254.919921875 183.999997629 254.919921875 183.999997629 254.919921875 431.180664062 c 2,9,-1
 254.919921875 1153.66699219 l 1,10,-1
 428.772460938 1153.66699219 l 1,11,-1
 428.772460938 431.1953125 l 2,12,13
 429.000006292 183.993164062 429.000006292 183.993164062 632.400390625 183.993164062 c 2,14,-1
 642.509765625 183.993164062 l 2,15,16
 673.65625 183.999925378 673.65625 183.999925378 673.65625 107.174804688 c 2,17,-1
 673.65625 88.291015625 l 2,18,19
 674 39 674 39 665.409179688 20.720703125 c 0,20,21
 657 0 657 0 642.508789062 0 c 2,22,-1
 634.920898438 0 l 2,23,24
 433 0 433 0 331.287109375 142.75390625 c 1,25,26
 233 0 233 0 21.625 0 c 2,0,-1
EndSplineSet
EndChar

StartChar: NameMe.303
Encoding: 65563 -1 294
GlifName: N_ameM_e.303
Width: 574
VWidth: 2952
Flags: W
LayerCount: 2
Fore
SplineSet
-6.9384765625 0 m 2,0,1
 -64.7783203125 0 -64.7783203125 0 -64.7783203125 88.3134765625 c 6,2,-1
 -64.7783203125 107.186523438 l 6,3,4
 -64.9999802718 183.993164062 -64.9999802718 183.993164062 -6.9384765625 183.993164062 c 2,5,-1
 50.515625 183.993164062 l 2,6,7
 247.345703125 184.000012027 247.345703125 184.000012027 247.345703125 394.663085938 c 2,8,-1
 247.345703125 1316.52832031 l 1,9,-1
 420.66015625 1316.52832031 l 1,10,-1
 420.66015625 388.965820312 l 2,11,12
 421 0 421 0 45.318359375 0 c 2,13,-1
 -6.9384765625 0 l 2,0,1
EndSplineSet
EndChar

StartChar: NameMe.65564
Encoding: 65564 -1 297
GlifName: N_ameM_e.65564
Width: 531
VWidth: 2952
Flags: W
AnchorPoint: "Anchor-10" 236.697 1363.11 basechar 0
AnchorPoint: "Anchor-7" 296.078 -239.903 basechar 0
LayerCount: 2
Fore
SplineSet
558.618164062 88.310546875 m 5,0,1
 560 0 560 0 538.537109375 0 c 6,2,-1
 517.658203125 0 l 6,3,4
 150.283203125 0 150.283203125 0 150.283203125 434.395507812 c 2,5,-1
 150.283203125 1228.171875 l 1,6,-1
 323.598632812 1228.171875 l 1,7,-1
 323.598632812 436.450195312 l 2,8,9
 324.000010868 183.993164062 324.000010868 183.993164062 520.712890625 183.993164062 c 6,10,-1
 538.538085938 183.993164062 l 6,11,12
 558.618164062 183.999872436 558.618164062 183.999872436 558.618164062 107.174804688 c 6,13,-1
 558.618164062 88.310546875 l 5,0,1
EndSplineSet
EndChar

StartChar: NameMe.65565
Encoding: 65565 -1 298
GlifName: N_ameM_e.65565
Width: 722
VWidth: 2955
Flags: W
LayerCount: 2
Fore
SplineSet
117.484081484 -281.085777218 m 1,0,1
 179 -294 179 -294 232.546566513 -294.479463758 c 0,2,3
 391 -294 391 -294 453.110351562 -244.227539062 c 0,4,5
 500 -206 500 -206 500.296875 -163.516601562 c 0,6,7
 500.004727218 -139.39038422 500.004727218 -139.39038422 462.975585938 -138.455078125 c 2,8,-1
 363.110351562 -135.932617188 l 2,9,10
 246 -133 246 -133 246.001953125 -15.2490234375 c 0,11,12
 246 107 246 107 371.376953125 186.66796875 c 0,13,14
 460 243 460 243 618.490234375 243.995117188 c 1,15,-1
 608.991210938 118.038085938 l 1,16,17
 381.542190475 112.989838885 381.542190475 112.989838885 366.854492188 -2.8701171875 c 2,18,-1
 365.53515625 -13.27734375 l 1,19,-1
 476.735351562 -16.6005859375 l 2,20,21
 594 -20 594 -20 614.149414062 -118.206054688 c 0,22,23
 633 -216 633 -216 547.041992188 -311 c 0,24,25
 449 -418 449 -418 225.575393716 -418.185986418 c 0,26,27
 166 -418 166 -418 98.4639797821 -406.829524167 c 1,28,-1
 117.484081484 -281.085777218 l 1,0,1
EndSplineSet
EndChar

StartChar: uni060D
Encoding: 1549 1549 299
Width: 828
VWidth: 4038
Flags: W
LayerCount: 2
Fore
SplineSet
609.728515625 1461.15039062 m 1,0,-1
 757 1417.18457031 l 5,1,-1
 199 -211 l 5,2,-1
 52.16015625 -167.009765625 l 1,3,-1
 609.728515625 1461.15039062 l 1,0,-1
EndSplineSet
EndChar
